<svg xmlns="http://www.w3.org/2000/svg" width="47.244" height="30.267" viewBox="0 0 47.244 30.267">
  <g id="git" transform="translate(0 -8.34)">
    <g id="Group_623" data-name="Group 623" transform="translate(0 8.34)">
      <path id="Path_1262" data-name="Path 1262" d="M5.841,36.638c4.318,2.8,13.338,2.7,17.158-.862.821-.765.219-3.965.219-4.921V21.966c0-2.538-8.331-1.238-10-1.238a1.007,1.007,0,0,0-.25.035c-.135.035-.406.106-.6.178a.882.882,0,0,0-.32.189c-1.064,1.063-.98,3.866-.609,5.252a1.2,1.2,0,0,0,1.028.741c3.412,0,4.011,4.638.681,4.532-6.323-.2-5.582-10.869-3.561-14.555,2.216-4.043,6.215-1.15,9.353-1.167A7.818,7.818,0,0,0,20,15.824l.05.016a.291.291,0,0,0,.109.011c.061-.005.059-.039,0-.051s-.038-.043.056-.069a1.279,1.279,0,0,0,.166-.057c.991-.427,2.208-4.9,1.632-5.58-1.315-1.551-4.641-1.518-6.444-1.675C9.7,7.9,4.246,9.871,1.685,15.423-1.3,21.9-.548,32.493,5.841,36.638ZM2.4,20.844a3.091,3.091,0,0,1,.832-1.716l.2-.19a3.61,3.61,0,0,0,.869-1.2c.075-.276-.171-.17-.567.23l-.447.452a3.443,3.443,0,0,1-.706.632c0-.031.007-.062.011-.093a13.631,13.631,0,0,1,.7-2.843,5.644,5.644,0,0,1,1.1-1.666q1.632-1.663,3.254-3.3a5.087,5.087,0,0,1,1.664-1.093A10.053,10.053,0,0,1,10.7,9.7q.56-.1,1.136-.149c.56-.049.84-.047.623-.033a1.7,1.7,0,0,0-.845.488c-.25.252-.194.38.127.3a2.27,2.27,0,0,0,.927-.472,2.207,2.207,0,0,1,1.359-.329c.346.014.691.038,1.036.068.561.052.965.161.909.215s.3.1.784.119a10.789,10.789,0,0,1,1.268.119q.194.04.385.082c2.076.464,1.665,1.017,1.211,2.93-.5,2.129.437,1.563-1.668,1.136a14.713,14.713,0,0,0-4.168-.2,8.087,8.087,0,0,0-4.714,1.6C5.489,18.835,4.524,28.447,8.851,31.56c2.071,1.49,5.443,2.012,7.275.444.427-.364.992-1.081,1.4-1.466l.23-.218c.408-.386.74-.711.74-.731s-.325.286-.728.679l-.236.232c-.4.393-.548.431-.406.049a4.306,4.306,0,0,0,.194-.708c.206-1.107.024-3.177-1.255-3.581a4.039,4.039,0,0,0-.9-.138c-.5-.032-.833-.146-.747-.226a.522.522,0,0,0,.157-.331c0-.1-.133-.051-.3.114a.514.514,0,0,1-.74-.017.931.931,0,0,1-.136-.529c0-.239-.033-.582-.065-.966a2.369,2.369,0,0,1,.571-1.619,2.618,2.618,0,0,1,1.65-.65h1.485c.563,0,.939.078.843.175s-.04.176.129.176a.834.834,0,0,0,.495-.176.763.763,0,0,1,.246-.176h.058c.381,0,.7-.01.971-.02.536-.017.887.106.785.2s-.016.172.191.172.462.342.474.774c.006.218.007.477.007.783V35.179c0,1.977-6,2.075-7.517,2.052C9.591,37.167,6.8,35.572,5,33.137a1.976,1.976,0,0,1-.472-.93c.051-.048-.013-.345-.124-.669s-.239-.539-.3-.479c-.037.038-.073.074-.11.109l-.055.059a2.467,2.467,0,0,1-.446-.863,1.484,1.484,0,0,1-.046-1.223,1.013,1.013,0,0,0,.267-.347c-.006-.039-.1.019-.218.125s-.244.229-.289.274-.152-.153-.233-.445a.993.993,0,0,1,.218-.879,1.4,1.4,0,0,0,.3-.98c-.026-.348-.229-.439-.459-.2s-.479.071-.538-.37a1.81,1.81,0,0,1,.413-1.323,2.7,2.7,0,0,0,.527-1.536q.009-.2.018-.4c.03-.561-.2-.746-.538-.414s-.613.148-.594-.415Q2.345,21.534,2.4,20.844Z" transform="translate(0 -8.34)" fill="#f8f8f8"/>
      <path id="Path_1263" data-name="Path 1263" d="M31.911,13.6c-.273-5.1-8.229-4.373-8.484.387a3.284,3.284,0,0,0,3.105,3.593c.557.072,1.134.056,1.285.071a2.168,2.168,0,0,0,.273.017.561.561,0,0,0,.072-.006c.041-.007.038-.03,0-.061a7.568,7.568,0,0,1,.909-.307,4.009,4.009,0,0,0,2.844-3.555A.062.062,0,0,0,31.9,13.7a.09.09,0,0,1,0-.067A.123.123,0,0,0,31.911,13.6Zm-6.444.623c-.021-.089-.041-.177-.055-.266a2.344,2.344,0,0,1-.01-.648A3.026,3.026,0,0,1,26.22,12c.364-.374.465-.6.244-.463s-.1-.073.381-.263a1.737,1.737,0,0,1,.921-.095,1.862,1.862,0,0,1,.385.106c.206.08.04.5-.355.9q-.773.786-1.546,1.571C25.859,14.156,25.5,14.366,25.467,14.219Zm4.272.829a1.892,1.892,0,0,1-2.528,1.4.75.75,0,0,1-.319-.184,1.979,1.979,0,0,0-.124-.365c-.069-.194-.181-.286-.274-.2s-.4-.07-.6-.417a1.109,1.109,0,0,1,.33-1.238c.35-.32.809-1.013,1.184-1.431a3.273,3.273,0,0,1,.479-.44,1.167,1.167,0,0,1,1.565.285,3.4,3.4,0,0,1,.28.6A3.627,3.627,0,0,1,29.739,15.047Z" transform="translate(0.417 -8.309)" fill="#f8f8f8"/>
      <path id="Path_1264" data-name="Path 1264" d="M45.779,32.354c-1.476-.188-3.5-.509-3.5-2.334,0-.913-.361-6.044,1-6.044.857,0,2.03.182,2.712-.5.958-.968.5-2.641.5-3.927s-.7-1.484-1.641-1.482a3.677,3.677,0,0,1-1.926-.42c-1.6-1.224.37-3.458-1.031-4.715-.687-.615-3.243-.12-4.048-.12-3.263,0-3.329.624-3.329,3.837,0,1.659-1.032,1.883-1.993,2.4-.494.269-.832.235-.975-.181a.949.949,0,0,0-.471-.615c-1.352-.571-4.072-.186-5.538-.056-1.278.113-1.848.636-1.848,1.842v8.59c0,2.5-.735,6.35.212,8.7.444,1.1,5.735.321,6.877-.084,1.648-.583.77-4.932.77-6.3V23.848c0-.053,0-.114.006-.185.006-.1.338.147.831.415,1.144.626,2.131.536,2.131,2.887,0,3.177-.467,6.467,1.421,9.2,1.845,2.669,7.175,2.374,9.761,1.358C47.115,36.964,47.258,32.544,45.779,32.354ZM27.956,36.808c-.207,0-.4-.009-.567-.024-.311-.031-.557-.134-.557-.184s-.032-.057-.069-.018a.728.728,0,0,1-.565-.168c-.246-.177-.14-.631.135-.91a3.762,3.762,0,0,0,.5-.562,2.711,2.711,0,0,0-.513.48c-.282.3-.7.125-.721-.42a2.615,2.615,0,0,1,.624-1.642,2.8,2.8,0,0,0,.61-1.671V31.22c0-.562-.264-.751-.588-.424s-.588.14-.588-.423V28.011a2.652,2.652,0,0,1,.588-1.62,2.015,2.015,0,0,0,.588-.949c0-.191-.264-.106-.588.19s-.588.081-.588-.482V23.8a2.473,2.473,0,0,1,.588-1.577,2.819,2.819,0,0,0,.588-.675c0-.064-.265.142-.589.459s-.587.12-.587-.443V19.5c0-.106,0-.193,0-.268,0-.149.375-.266.837-.266h.837c.373,0,.686-.01.949-.01.525,0,.833.243.721.354s-.136.2-.052.2a.48.48,0,0,0,.284-.126c.072-.068.281.14.319.506a6.266,6.266,0,0,1,.027.667V31.465C29.584,33.51,30.548,36.808,27.956,36.808Zm13.388.334a4.732,4.732,0,0,1-3.123-1.359c-.395-.4-.547-.879-.447-.977a.531.531,0,0,0,.109-.462c-.039-.158-.168-.179-.3-.045s-.449-.163-.625-.7a8.655,8.655,0,0,1-.262-.993,1.994,1.994,0,0,1,.4-1.579,2.585,2.585,0,0,0,.558-1.574c0-.552-.263-.735-.584-.409s-.568.227-.538-.222a2.412,2.412,0,0,1,.586-1.354,1.922,1.922,0,0,0,.536-.775v-.233c0-.023,0-.048,0-.071,0-.04-.237.175-.525.479s-.5.094-.516-.468c0-.056-.005-.111-.009-.166a2.567,2.567,0,0,1,.125-1.276.277.277,0,0,0-.05-.457.861.861,0,0,0-.347-.075h-.058a4.118,4.118,0,0,0-.66-.811,2.925,2.925,0,0,0-1.975-.606c-.512,0-.56-3.254.583-3.534a2.765,2.765,0,0,0,1.565-1c.085-.148.16-.291.226-.434a4.308,4.308,0,0,1,.911-1.1,2.972,2.972,0,0,0,.732-.815c0-.094-.307.128-.686.495s-.569.236-.521-.306a3.017,3.017,0,0,1,.769-1.691l.8-.769.03-.03c.017-.016-.058-.028-.163-.028a2.427,2.427,0,0,0-.8.588c-.335.324-.606.574-.606.56s.251-.277.561-.585.3-.33-.008-.036-.554.434-.555.308c0-.073,0-.149,0-.227a1.406,1.406,0,0,0-.039-.339c-.047-.182.305-.3.867-.3h1.628c.167,0,.318.006.447.018.246.022.358.16.255.259s-.062.18.092.18a.714.714,0,0,0,.365-.078c.049-.044.328.325.3.887-.022.391-.082.876-.082,1.464,0,1.527.744,2.123,2.087,2.512a1.184,1.184,0,0,0,.392.051c2.417,0,1.735,1.479,1.735,3.468a.837.837,0,0,0,.049.293c.062.154.032.211-.151.2-.095-.005-.2-.008-.335-.008a3.451,3.451,0,0,0-1,.078c-3.286.955-2.772,3.381-2.772,6.458,0,.912-.29,2.663.738,3.223.533.292,3.544.644,3.544,1C44.591,36.585,44.759,37.421,41.344,37.142Z" transform="translate(0.417 -8.264)" fill="#f8f8f8"/>
    </g>
  </g>
</svg>
