<svg xmlns="http://www.w3.org/2000/svg" width="31.425" height="30.267" viewBox="0 0 31.425 30.267">
  <path id="Icon_simple-jquery" data-name="Icon simple-jquery" d="M2.024,8.239c-2.783,4-2.438,9.2-.311,13.446.049.1.1.2.155.3a2.114,2.114,0,0,0,.1.2,1.106,1.106,0,0,0,.062.109c.034.068.071.134.106.2l.206.347c.038.064.075.127.118.191.072.123.157.245.232.368.034.051.066.1.1.153q.191.3.406.582c.1.14.2.277.315.413.035.05.075.1.111.149l.29.353c.035.041.071.088.109.13.128.155.265.305.4.458,0,0,0,.005.007.009a4.1,4.1,0,0,0,.556.577c.1.108.21.215.321.32l.132.127c.146.136.291.273.444.4,0,0,0,0,.007,0l.075.066c.134.117.269.233.406.341l.164.138c.111.089.227.174.341.262l.178.136c.122.092.252.182.376.271.046.033.092.066.139.1l.038.03.368.243.157.1c.193.123.384.24.574.355.055.028.11.058.161.089.142.081.288.164.431.24.079.045.16.083.241.123.1.055.2.109.305.164a.425.425,0,0,1,.073.03c.043.02.084.041.126.062.157.079.321.153.492.228a1.069,1.069,0,0,1,.1.045c.189.083.378.161.573.239.045.013.092.035.138.052.177.067.359.135.539.2l.066.024c.2.068.4.134.6.2.047.013.1.03.146.043a6.375,6.375,0,0,0,.62.178c13.451,2.452,17.36-8.088,17.36-8.088-3.284,4.276-9.111,5.4-14.631,4.149-.2-.047-.409-.113-.615-.173q-.374-.11-.743-.237l-.081-.031c-.178-.06-.35-.127-.524-.194q-.071-.029-.144-.054c-.193-.077-.38-.157-.566-.24-.041-.013-.075-.031-.115-.047q-.238-.109-.473-.223c-.049-.021-.092-.043-.139-.068-.123-.058-.246-.123-.367-.186q-.124-.06-.245-.126c-.148-.079-.3-.164-.444-.245-.045-.031-.1-.058-.147-.087q-.29-.172-.574-.353-.079-.049-.155-.1-.209-.129-.409-.27c-.046-.03-.088-.063-.135-.1q-.2-.135-.385-.278c-.055-.045-.114-.087-.173-.131-.115-.09-.232-.177-.347-.273l-.155-.123q-.223-.18-.438-.368a.338.338,0,0,0-.049-.039l-.455-.414-.131-.123c-.108-.109-.218-.214-.328-.321l-.127-.131q-.208-.207-.405-.423l-.02-.021c-.139-.152-.274-.307-.41-.464-.035-.041-.068-.084-.1-.127l-.3-.363q-.227-.291-.446-.587C2.845,15.99,1.737,10.222,4.187,5.49m6.472-.619a9.653,9.653,0,0,0-.333,9.831,11.93,11.93,0,0,0,.888,1.484,6.953,6.953,0,0,0,1.038,1.293c.14.16.292.315.451.471l.118.118q.224.216.459.426l.02.017q.265.232.543.448c.045.03.083.066.126.1.184.142.368.278.56.413l.02.012c.081.059.168.113.26.17.037.024.079.055.118.079.139.089.275.173.416.258.022.009.042.021.063.03.118.072.246.142.37.206.043.026.085.046.13.071.088.043.174.089.258.134l.042.018c.177.087.358.168.535.249.045.017.083.031.121.05.146.063.294.123.439.18.066.022.127.049.189.068.134.05.274.1.406.142l.184.059a4.437,4.437,0,0,0,.587.169c10.383,1.721,12.787-6.276,12.787-6.276-2.164,3.115-6.353,4.6-10.817,3.44q-.3-.077-.587-.17c-.063-.017-.118-.037-.178-.055-.136-.047-.277-.093-.409-.143l-.189-.071c-.147-.059-.3-.114-.439-.177-.045-.02-.085-.033-.119-.052-.184-.083-.368-.164-.547-.252l-.27-.14-.156-.079c-.121-.063-.232-.128-.347-.2a.813.813,0,0,1-.081-.045c-.139-.087-.283-.17-.416-.26-.045-.025-.085-.055-.127-.081l-.273-.178c-.189-.131-.374-.273-.56-.409-.042-.038-.083-.069-.123-.1a12.465,12.465,0,0,1-4.245-6.041A9.387,9.387,0,0,1,12.3,2.546m5.62-.193a6.052,6.052,0,0,0-.485,5.84A8.242,8.242,0,0,0,22.161,12.6c.085.033.168.06.256.092l.115.035c.121.038.243.083.367.11C28.636,13.949,30.188,9.9,30.606,9.3c-1.366,1.961-3.656,2.432-6.466,1.749a6.35,6.35,0,0,1-.676-.21,8.317,8.317,0,0,1-.809-.333,8.549,8.549,0,0,1-1.416-.865C18.722,7.736,17.163,4.1,18.8,1.132" transform="translate(-0.027 -1.133)" fill="#f8f8f8"/>
</svg>
