<svg xmlns="http://www.w3.org/2000/svg" width="34.615" height="34.866" viewBox="0 0 34.615 34.866">
  <g id="Group_529" data-name="Group 529" transform="translate(-8075.527 -1556.234)">
    <g id="Group_526" data-name="Group 526" transform="translate(8075.527 1556.234)">
      <path id="Path_747" data-name="Path 747" d="M8433.375,1556.234h32.85a1.454,1.454,0,0,1,.553.356,2.155,2.155,0,0,1,.365.647v14.71a.673.673,0,0,1-.037.21.582.582,0,0,1-.113.173l-15.078,17.982a3.362,3.362,0,0,1-.959.6,3.432,3.432,0,0,1-1.126.178v-12.464l-17.162-20.4a2.5,2.5,0,0,1-.076-1.285A1.377,1.377,0,0,1,8433.375,1556.234Z" transform="translate(-8432.527 -1556.234)" fill="#f5f5f7"/>
      <path id="Path_749" data-name="Path 749" d="M8437.4,1619.01h-3.611a1.731,1.731,0,0,0-.653.76,2.146,2.146,0,0,0,0,1.075l17.13,20.572.048-7.074Z" transform="translate(-8433.005 -1611.956)" fill="#f5f5f7" opacity="0.6"/>
      <path id="Path_750" data-name="Path 750" d="M8437.4,1619.01h-3.611a1.731,1.731,0,0,0-.653.76,2.146,2.146,0,0,0,0,1.075l15.34,18.423a7.521,7.521,0,0,0,.965.416,3.779,3.779,0,0,0,.836.171l.037-5.512Z" transform="translate(-8433.005 -1604.989)" fill="#f5f5f7" opacity="0.4"/>
    </g>
  </g>
</svg>
