<svg xmlns="http://www.w3.org/2000/svg" width="31.358" height="23.52" viewBox="0 0 31.358 23.52">
  <path id="Icon_awesome-sass" data-name="Icon awesome-sass" d="M14.789,18.907C14.775,18.936,14.76,18.96,14.789,18.907ZM27,14.644a6.426,6.426,0,0,0-2.842.661,6.035,6.035,0,0,1-.637-1.475,3.937,3.937,0,0,1-.054-1.24,10.439,10.439,0,0,1,.372-1.333c0-.054-.069-.323-.7-.328s-1.176.122-1.239.289a6.018,6.018,0,0,0-.26.936,22.7,22.7,0,0,1-1.915,3.689,3.8,3.8,0,0,1-.436-1.078,3.937,3.937,0,0,1-.054-1.24,10.439,10.439,0,0,1,.372-1.333c0-.054-.069-.323-.7-.328s-1.176.122-1.24.289-.132.559-.26.936-1.661,3.787-2.062,4.674c-.206.451-.382.813-.51,1.058-.02.039-.034.064-.044.083.015-.024.024-.049.024-.039-.108.211-.171.328-.171.328v0c-.083.157-.176.3-.22.3a2.033,2.033,0,0,1,.015-.975c.23-1.186.774-3.028.769-3.092,0-.034.1-.353-.358-.524a.577.577,0,0,0-.647.108c-.039,0-.069.1-.069.1s.495-2.077-.95-2.077a4.312,4.312,0,0,0-2.772,1.886c-.387.211-1.225.666-2.107,1.151l-1.014.559c-.024-.024-.044-.049-.069-.073-1.754-1.872-4.991-3.195-4.854-5.708.049-.916.367-3.322,6.226-6.242,4.8-2.391,8.641-1.734,9.3-.274.951,2.082-2.052,5.958-7.039,6.517a3.754,3.754,0,0,1-3.15-.8c-.26-.289-.3-.3-.4-.25-.162.088-.059.343,0,.495a2.952,2.952,0,0,0,1.8,1.416,9.547,9.547,0,0,0,5.839-.578C17.977,9.97,20.333,6.722,19.642,4c-.7-2.763-5.286-3.67-9.619-2.131A21.8,21.8,0,0,0,2.642,6.1C.256,8.338-.126,10.284.031,11.1c.558,2.886,4.536,4.767,6.128,6.159-.078.044-.152.083-.22.122-.8.4-3.831,1.984-4.59,3.66-.857,1.9.142,3.263.8,3.449a4.892,4.892,0,0,0,5.271-2.136,5.3,5.3,0,0,0,.47-4.875c0-.015-.015-.024-.02-.039.206-.122.416-.245.627-.367.406-.24.8-.461,1.151-.652a7.61,7.61,0,0,0-.412,2.087,4.337,4.337,0,0,0,.936,3.023,1.028,1.028,0,0,0,.754.245c.676,0,.98-.559,1.318-1.225.416-.813.784-1.759.784-1.759s-.461,2.558.8,2.558c.46,0,.921-.593,1.127-.9v0s.01-.02.034-.059c.049-.073.073-.118.073-.118v-.015c.186-.318.593-1.049,1.2-2.254.794-1.558,1.553-3.5,1.553-3.5a9.86,9.86,0,0,0,.3,1.264,11.835,11.835,0,0,0,.657,1.47c-.186.255-.3.4-.3.4a.015.015,0,0,0,0,.01c-.147.2-.314.407-.485.612a17.294,17.294,0,0,0-1.47,1.842.5.5,0,0,0,.137.671,1.191,1.191,0,0,0,.769.122,3.4,3.4,0,0,0,1.151-.265,4.028,4.028,0,0,0,.989-.519,2.212,2.212,0,0,0,.951-1.95,4.058,4.058,0,0,0-.358-1.382c.054-.078.113-.162.167-.245a26.047,26.047,0,0,0,1.719-2.97,9.86,9.86,0,0,0,.3,1.264,8.643,8.643,0,0,0,.558,1.259,5.386,5.386,0,0,0-1.67,2.161c-.363,1.044-.078,1.514.456,1.622a1.644,1.644,0,0,0,.838-.171,3.893,3.893,0,0,0,1.058-.544,2.368,2.368,0,0,0,1.166-1.94,3.645,3.645,0,0,0-.265-1.147,5.981,5.981,0,0,1,3.042-.353c2.728.318,3.262,2.024,3.159,2.734a1.811,1.811,0,0,1-.867,1.225c-.191.118-.25.162-.235.25.024.127.113.122.274.093a2.129,2.129,0,0,0,1.484-1.9c.078-1.666-1.523-3.5-4.361-3.484ZM5.967,21.734c-.9.985-2.165,1.357-2.709,1.044-.583-.339-.353-1.788.759-2.838a14.518,14.518,0,0,1,2.126-1.587c.132-.078.323-.2.559-.338.039-.024.059-.034.059-.034.044-.029.093-.054.142-.083a3.911,3.911,0,0,1-.936,3.836Zm6.583-4.478c-.314.769-.975,2.729-1.376,2.626-.343-.088-.554-1.583-.069-3.053a6.758,6.758,0,0,1,1.073-1.965c.494-.554,1.038-.73,1.166-.51C13.516,14.644,12.747,16.776,12.551,17.256Zm5.439,2.6c-.132.069-.255.113-.314.078s.054-.118.054-.118.681-.73.951-1.063c.157-.2.338-.426.534-.681,0,.024,0,.049,0,.078a2.272,2.272,0,0,1-1.231,1.705Zm4.193-.955c-.1-.069-.083-.3.245-1.014a3.808,3.808,0,0,1,.931-1.2,1.773,1.773,0,0,1,.093.529A1.727,1.727,0,0,1,22.183,18.9Z" transform="translate(0 -1.125)" fill="#f8f8f8"/>
</svg>
