<svg xmlns="http://www.w3.org/2000/svg" width="10.505" height="10.504" viewBox="0 0 10.505 10.504">
  <path id="Icon_weather-moon-alt-waxing-crescent-6" data-name="Icon weather-moon-alt-waxing-crescent-6" d="M1.745,6.739A5.174,5.174,0,0,1,2.161,4.7a5.3,5.3,0,0,1,1.12-1.675A5.246,5.246,0,0,1,9.035,1.9a5.323,5.323,0,0,1,1.68,1.12A5.307,5.307,0,0,1,12.25,6.739a5.158,5.158,0,0,1-.415,2.039,5.323,5.323,0,0,1-1.12,1.68,5.145,5.145,0,0,1-1.68,1.12,5.214,5.214,0,0,1-4.079,0,5.3,5.3,0,0,1-1.675-1.12,5.145,5.145,0,0,1-1.12-1.68A5.174,5.174,0,0,1,1.745,6.739ZM7,2.049a14.311,14.311,0,0,1,.863,4.69,11.986,11.986,0,0,1-.826,4.695,4.6,4.6,0,0,0,1.806-.378,4.715,4.715,0,0,0,2.847-4.321,4.586,4.586,0,0,0-.373-1.82,4.718,4.718,0,0,0-1-1.5,4.8,4.8,0,0,0-1.5-1A4.491,4.491,0,0,0,7,2.049Z" transform="translate(-1.745 -1.489)" fill="#0a0c1b"/>
</svg>
