<svg id="fun-03" xmlns="http://www.w3.org/2000/svg" width="344.362" height="345.482" viewBox="0 0 344.362 345.482">
  <path id="Path_587" data-name="Path 587" d="M406.538,356.91l-44.564,73.547.092,7.472q-4.888.038-9.685-.163l2.219-96.048-.061-.74.082-.143.209-9.078-48.9-71,48.843,64.2.173,1.918,1.673-72.568-42.238-73.6,42.361,60.858-.291-98.145-.092-32.13h.428l.76,32.13,1.571,66.285,38.49-48.134L359.24,219.913l.842,64.913,35.425-63.352-35.292,72.894.464,36.093,51.515-88.245L360.837,343.053l1.046,80.259Z" transform="translate(-305.344 -111.293)" fill="#e6e6e6"/>
  <path id="Path_588" data-name="Path 588" d="M580.194,293.161l-14.1,27.688-35.328,69.36h-8.109l.173-7.507-42.6-61.853-6.3-9.144,6.956,9.144,41.886,55.06.173,1.918,1.316-56.977.357-15.591-42.238-73.6,42.361,60.858L524.3,142.17v-.5l.015.495,2.805,118.489,38.49-48.134L527.24,270.858l.648,49.99.194,14.923,8.344-14.923,27.081-48.43-23.45,48.43-11.842,24.465.464,36.093,35.353-60.557Z" transform="translate(-275.464 -69.418)" fill="#e6e6e6"/>
  <path id="Path_589" data-name="Path 589" d="M604.992,736.146c0,6.412-59.367,25.665-132.6,25.665s-132.6-19.252-132.6-25.665,59.367,2.444,132.6,2.444S604.992,729.734,604.992,736.146Z" transform="translate(-321.936 -416.329)" fill="#3f3d56"/>
  <path id="Path_590" data-name="Path 590" d="M604.992,736.146c0,6.412-59.367,25.665-132.6,25.665s-132.6-19.252-132.6-25.665,59.367,2.444,132.6,2.444S604.992,729.734,604.992,736.146Z" transform="translate(-321.936 -416.329)" opacity="0.2"/>
  <ellipse id="Ellipse_43" data-name="Ellipse 43" cx="132.6" cy="11.61" rx="132.6" ry="11.61" transform="translate(17.855 308.207)" fill="#3f3d56"/>
  <ellipse id="Ellipse_44" data-name="Ellipse 44" cx="54.57" cy="5.1" rx="54.57" ry="5.1" transform="translate(94.865 315.88)" opacity="0.2"/>
  <path id="Path_591" data-name="Path 591" d="M611.945,510.923H552.336v.378H409.791v20.655a96.135,96.135,0,0,0,96.135,96.135h0a96.088,96.088,0,0,0,83.045-47.685h22.974a34.741,34.741,0,1,0,0-69.483Zm0,58.773H594.366a95.817,95.817,0,0,0,7.695-37.74V521.633h9.884a24.031,24.031,0,1,1,0,48.063Z" transform="translate(-356.236 -307.111)" fill="#3f3d56"/>
  <path id="Path_592" data-name="Path 592" d="M427.291,529.163v11.73a87.21,87.21,0,1,0,174.42,0v-11.73Z" transform="translate(-364.811 -316.049)" fill="#c4ffbd"/>
  <path id="Path_593" data-name="Path 593" d="M531.437,624.486,511.472,603.91a10.91,10.91,0,0,1,.232-15.427l30.2-29.3a7.687,7.687,0,0,1,2.5-1.621l6.559-2.621a7.686,7.686,0,0,1,8.368,1.785l20.849,21.487a7.687,7.687,0,0,1,1.637,8.165l-2.206,5.611a7.686,7.686,0,0,1-1.8,2.7l-30.945,30.025A10.91,10.91,0,0,1,531.437,624.486Z" transform="translate(-404.55 -328.411)" fill="#e6e6e6"/>
  <rect id="Rectangle_306" data-name="Rectangle 306" width="13.928" height="2.089" transform="translate(157.667 236.289) rotate(45.863)" fill="#3f3d56"/>
  <path id="Path_594" data-name="Path 594" d="M622.381,542.8c1.766-4.188,7.027-5.091,10.939-5.921,4.16-.883,8.9-2.419,10.625-6.745a5.732,5.732,0,0,0-.559-5.47,5.3,5.3,0,0,0-4.58-2.479c-3.874.347-4.564,4.922-3.084,7.809,2,3.9,7.127,4.237,10.966,4.333,3.709.093,7.688-.049,11.077-1.725a9.1,9.1,0,0,0,5.107-8.587c-.119-3.742-1.77-7.233-2.756-10.789-.947-3.418-1.246-7.208,1.277-10.05,2.444-2.754,6.3-3.842,9.809-4.4.9-.143,1.81-.24,2.72-.313.975-.078.983-1.609,0-1.53-6.513.524-15.048,2.768-15.984,10.459-.427,3.515.9,6.984,1.973,10.266,1,3.051,2.161,6.564.887,9.711-1.338,3.3-4.8,4.647-8.084,5.151a32.237,32.237,0,0,1-5.341.289,24.565,24.565,0,0,1-6.152-.618,6.307,6.307,0,0,1-4.212-3.039,4.614,4.614,0,0,1-.12-4.091,2.647,2.647,0,0,1,3.736-.934,4.378,4.378,0,0,1,2.225,4.219c-.559,4.334-5.515,6.075-9.142,6.883-4,.891-8.5,1.543-11.358,4.813a8.574,8.574,0,0,0-1.448,2.35.77.77,0,0,0,.534.941.784.784,0,0,0,.941-.534Z" transform="translate(-459.669 -300.254)" fill="#3f3d56"/>
  <circle id="Ellipse_45" data-name="Ellipse 45" cx="5.61" cy="5.61" r="5.61" transform="translate(95.375 225.1)" fill="#e6e6e6"/>
  <circle id="Ellipse_46" data-name="Ellipse 46" cx="5.61" cy="5.61" r="5.61" transform="translate(198.395 246.01)" fill="#e6e6e6"/>
  <circle id="Ellipse_47" data-name="Ellipse 47" cx="4.08" cy="4.08" r="4.08" transform="translate(171.875 277.12)" fill="#e6e6e6"/>
  <path id="Path_595" data-name="Path 595" d="M340.316,721.96c16.661,3.717,35.047.971,35.047.971s-8.626-8.772-25.286-12.489-35.047-.971-35.047-.971S323.655,718.244,340.316,721.96Z" transform="translate(-309.803 -403.921)" fill="#e6e6e6"/>
  <path id="Path_596" data-name="Path 596" d="M336.937,735.107a97.445,97.445,0,0,0,33.53-5.322,88.293,88.293,0,0,0-32.156-7.218,97.443,97.443,0,0,0-33.53,5.322A88.293,88.293,0,0,0,336.937,735.107Z" transform="translate(-304.781 -410.8)" fill="#c4ffbd"/>
  <path id="Path_597" data-name="Path 597" d="M356.058,706.972c12.958,6.533,32.042,7.35,32.042,7.35s-1.926-9.775-14.884-16.308-32.042-7.35-32.042-7.35S343.1,700.439,356.058,706.972Z" transform="translate(-322.613 -395.184)" fill="#c4ffbd"/>
  <path id="Path_599" data-name="Path 599" d="M426.791,529.663v11.73a87.21,87.21,0,0,0,174.42,0v-11.73Z" transform="translate(-364.566 -316.294)" fill="#c4ffbd" opacity="0.3"/>
  <path id="Path_600" data-name="Path 600" d="M328.781,559.146c-2.962,4.6-6.258,4.743-9.048,2.946q-.1-.062-.192-.127-.191-.13-.37-.269c-2.379-1.838-3.249-4.786-.494-9.06,2.851-4.424,11.128-6.99,11.745-7.177h0l.035-.011S331.742,554.55,328.781,559.146Z" transform="translate(-310.751 -324.028)" fill="#e6e6e6"/>
  <path id="Path_601" data-name="Path 601" d="M731.781,327.971c-2.962,4.6-6.258,4.743-9.048,2.945q-.1-.063-.192-.127-.191-.13-.37-.269c-2.379-1.838-3.249-4.786-.494-9.06,2.851-4.424,11.128-6.99,11.745-7.177h0l.035-.011S734.742,323.375,731.781,327.971Z" transform="translate(-508.221 -210.753)" fill="#e6e6e6"/>
  <path id="Path_602" data-name="Path 602" d="M500.835,269.377c3.7,4.022,3.018,7.249.576,9.5q-.085.078-.172.154-.174.152-.353.291c-2.377,1.841-5.449,1.941-8.894-1.8-3.565-3.871-3.968-12.528-3.993-13.172h0v-.037S497.131,265.355,500.835,269.377Z" transform="translate(-394.557 -186.271)" fill="#e6e6e6"/>
  <path id="Path_603" data-name="Path 603" d="M731.86,509.244l-8.787,4.432a3.62,3.62,0,0,1-4.911-1.421l-6.047-11.987a2.3,2.3,0,0,1-.243-.922l-.115-2.276a2.647,2.647,0,0,1,1.494-2.456l9.176-4.629a2.656,2.656,0,0,1,2.794.2l1.552,1.179a2.308,2.308,0,0,1,.667.8l6.2,12.284A3.62,3.62,0,0,1,731.86,509.244Z" transform="translate(-504.198 -296.703)" fill="#e6e6e6"/>
  <rect id="Rectangle_308" data-name="Rectangle 308" width="4.781" height="0.667" transform="matrix(0.893, -0.45, 0.45, 0.893, 211.924, 197.707)" fill="#3f3d56"/>
  <rect id="Rectangle_309" data-name="Rectangle 309" width="10.582" height="3.06" transform="translate(211.192 202.443) rotate(-26.507)" fill="#c4ffbd"/>
  <rect id="Rectangle_310" data-name="Rectangle 310" width="10.582" height="3.06" transform="translate(213.232 206.013) rotate(-26.507)" fill="#c4ffbd"/>
  <rect id="Rectangle_311" data-name="Rectangle 311" width="10.582" height="3.06" transform="translate(215.272 210.093) rotate(-26.507)" fill="#c4ffbd"/>
  <path id="Path_135" data-name="Path 135" d="M144.431,4.8H112.3V319.88h32.13ZM136.4,297.374H120.334c-1.479,0-2.678-2.519-2.678-5.626s1.2-5.626,2.678-5.626H136.4c1.479,0,2.678,2.519,2.678,5.626S137.877,297.374,136.4,297.374Zm0-22.506H120.334c-1.479,0-2.678-2.519-2.678-5.626s1.2-5.626,2.678-5.626H136.4c1.479,0,2.678,2.519,2.678,5.626S137.877,274.869,136.4,274.869Zm0-213.8H120.334c-1.479,0-2.678-2.519-2.678-5.626s1.2-5.626,2.678-5.626H136.4c1.479,0,2.678,2.519,2.678,5.626S137.877,61.065,136.4,61.065Zm0-22.506H120.334c-1.479,0-2.678-2.519-2.678-5.626s1.2-5.626,2.678-5.626H136.4c1.479,0,2.678,2.519,2.678,5.626S137.877,38.559,136.4,38.559Zm0,0" transform="translate(199.931 -2.251)" fill="#e6e6e6"/>
</svg>
