<svg xmlns="http://www.w3.org/2000/svg" width="474.268" height="319" viewBox="0 0 474.268 319">
  <g id="fun-02" transform="translate(0.121 -0.002)">
    <path id="Path_663" data-name="Path 663" d="M961.6,170.266a47.2,47.2,0,0,0,3.738-5.5l-26.374-4.327,28.524.21a48.148,48.148,0,0,0,.919-38.1L930.145,142.4l35.291-25.941a48.081,48.081,0,1,0-79.407,53.809,48.257,48.257,0,0,0-5.483,8.766l34.234,17.786-36.5-12.25a48.1,48.1,0,0,0,7.744,45.15A48.086,48.086,0,0,0,914.946,306.7a16.5,16.5,0,0,0-.95,5.585,15.845,15.845,0,0,0,2.092,8.03,16.457,16.457,0,0,0,0,16.06,16.457,16.457,0,0,0,0,16.06,16.457,16.457,0,0,0,0,16.06,15.845,15.845,0,0,0-2.092,8.03c0,7.258,4.492,13.138,10.037,13.138s10.037-5.88,10.037-13.138a15.851,15.851,0,0,0-2.1-8.03,16.426,16.426,0,0,0,0-16.06,16.426,16.426,0,0,0,0-16.06,16.426,16.426,0,0,0,0-16.06,15.851,15.851,0,0,0,2.1-8.03,16.55,16.55,0,0,0-.977-5.661,48.086,48.086,0,0,0,28.51-76.908,48.077,48.077,0,0,0,0-59.452Z" transform="translate(-515.691 -92.46)" fill="#f2f2f2"/>
    <path id="Path_664" data-name="Path 664" d="M703.289,316.915a32.322,32.322,0,0,1-2.5-3.68l17.634-2.9-19.071.138a32.2,32.2,0,0,1-.616-25.473l25.593,13.276-23.6-17.349a32.151,32.151,0,1,1,53.087,35.983,32.008,32.008,0,0,1,3.667,5.862L734.592,334.67l24.42-8.195a32.146,32.146,0,0,1-5.184,30.192,32.151,32.151,0,0,1-19.334,51.481,11.077,11.077,0,0,1,.633,3.734,10.572,10.572,0,0,1-1.4,5.353,10.987,10.987,0,0,1,0,10.738,11,11,0,0,1,0,10.742,10.987,10.987,0,0,1,0,10.738,10.577,10.577,0,0,1,1.4,5.353c0,4.849-3,8.784-6.692,8.784s-6.692-3.935-6.692-8.784a10.578,10.578,0,0,1,1.4-5.353,10.987,10.987,0,0,1,0-10.738,11,11,0,0,1,0-10.742,10.987,10.987,0,0,1,0-10.738,10.573,10.573,0,0,1-1.4-5.353,11.046,11.046,0,0,1,.656-3.787,32.155,32.155,0,0,1-19.071-51.427,32.155,32.155,0,0,1,0-39.752Z" transform="translate(-416.363 -187.941)" fill="#f2f2f2"/>
    <ellipse id="Ellipse_65" data-name="Ellipse 65" cx="223.432" cy="28.105" rx="223.432" ry="28.105" transform="translate(27.284 262.793)" fill="#f2f2f2"/>
    <path id="Path_665" data-name="Path 665" d="M605.274,530.512c0,.892-.027,1.784-.076,2.641v.384a47.773,47.773,0,0,1-2.039,11.1c-.031.112-.071.232-.107.344a51.384,51.384,0,0,1-4.577,10.3l-.192.321a57.319,57.319,0,0,1-7.138,9.573l-.277.294a65.131,65.131,0,0,1-10.051,8.779c-.125.094-.254.187-.379.272a74.3,74.3,0,0,1-12.121,6.888c-.584.263-1.173.522-1.784.776l-.535.223a83.921,83.921,0,0,1-20.267,5.5l-.852.116a89.72,89.72,0,0,1-11.786.772c-29.211,0-54.371-14.017-65.725-34.185q-1.146-2.021-2.092-4.122l-.259-.575a48.421,48.421,0,0,1-4.046-17.349v-.446c0-.535-.022-1.075-.022-1.615a47.633,47.633,0,0,1,1.624-12.353c.031-.125.062-.245.1-.366a50.554,50.554,0,0,1,4.907-11.741c.058-.1.116-.21.178-.312a56.872,56.872,0,0,1,7.388-9.948,3.231,3.231,0,0,1,.236-.263l.036-.036c.352-.375.709-.754,1.075-1.124l.549-.553c.361-.361.732-.714,1.1-1.071h.022q1.338-1.258,2.726-2.44c1.285-1.089,2.628-2.137,4.015-3.145l.3-.223a74.5,74.5,0,0,1,11.7-6.83c.12-.058.245-.12.366-.17a81.188,81.188,0,0,1,14.36-5.059c.156-.045.308-.08.446-.116a87.748,87.748,0,0,1,18.656-2.476h.633c.571,0,1.147-.022,1.722-.022,28.948,0,53.916,13.771,65.417,33.636.1.178.2.357.3.531l.446.781c.245.446.477.892.709,1.365.107.214.21.424.312.638.062.125.129.25.187.379h0a49.164,49.164,0,0,1,3.761,10.983c.036.147.063.29.094.446A47.731,47.731,0,0,1,605.274,530.512Z" transform="translate(-285.943 -302.828)" fill="#c4ffbd"/>
    <g id="Group_470" data-name="Group 470" transform="translate(244.822 169.427)" opacity="0.2">
      <path id="Path_666" data-name="Path 666" d="M685.5,506.382q-4.947-1.874-9.814-3.9A380.493,380.493,0,0,1,617.45,472.25h.633a380.6,380.6,0,0,0,67.139,33.618C685.307,506.042,685.405,506.208,685.5,506.382Z" transform="translate(-617.45 -472.25)" fill="#f2f2f2"/>
    </g>
    <g id="Group_471" data-name="Group 471" transform="translate(225.684 171.903)" opacity="0.2">
      <path id="Path_667" data-name="Path 667" d="M667.233,524.034q-12.045-4.015-23.835-8.922a380.527,380.527,0,0,1-58.81-30.576q-5.282-3.359-10.037-6.625L575,477.8q4.644,3.172,9.814,6.46a380.4,380.4,0,0,0,82.329,39.346C667.175,523.749,667.2,523.892,667.233,524.034Z" transform="translate(-574.55 -477.8)" fill="#f2f2f2"/>
    </g>
    <g id="Group_472" data-name="Group 472" transform="translate(210.972 177.074)" opacity="0.2">
      <path id="Path_668" data-name="Path 668" d="M649.853,542.642v.384q-16.814-5.126-33.213-11.9a380.561,380.561,0,0,1-58.819-30.6c-5.911-3.761-11.336-7.446-16.252-10.961l.366-.174c4.876,3.484,10.26,7.138,16.1,10.858A379.3,379.3,0,0,0,649.853,542.642Z" transform="translate(-541.57 -489.39)" fill="#f2f2f2"/>
    </g>
    <g id="Group_473" data-name="Group 473" transform="translate(198.963 184.082)" opacity="0.2">
      <path id="Path_669" data-name="Path 669" d="M632.881,562.826c-.031.12-.071.236-.107.352A366.99,366.99,0,0,1,593.2,549.394a380.136,380.136,0,0,1-58.81-30.594c-7.343-4.671-13.932-9.23-19.736-13.481l.3-.219c5.8,4.234,12.348,8.77,19.655,13.423a378.486,378.486,0,0,0,98.277,44.3Z" transform="translate(-514.65 -505.1)" fill="#f2f2f2"/>
    </g>
    <g id="Group_474" data-name="Group 474" transform="translate(189.215 192.692)" opacity="0.2">
      <path id="Path_670" data-name="Path 670" d="M616.094,584.165l-.192.321a365.936,365.936,0,0,1-43.321-14.828,380.775,380.775,0,0,1-58.815-30.594c-7.869-5.01-14.882-9.895-20.967-14.4.071-.085.152-.174.236-.259,6.094,4.506,13.1,9.368,20.967,14.387A378.137,378.137,0,0,0,616.094,584.165Z" transform="translate(-492.8 -524.4)" fill="#f2f2f2"/>
    </g>
    <g id="Group_475" data-name="Group 475" transform="translate(181.636 202.912)" opacity="0.2">
      <path id="Path_671" data-name="Path 671" d="M599.359,606.749l-.277.294a365.2,365.2,0,0,1-44.423-15.123,380.584,380.584,0,0,1-58.814-30.594c-7.459-4.755-14.151-9.391-20.035-13.709.058-.1.116-.205.178-.308,5.884,4.323,12.594,8.971,20.075,13.736A378.056,378.056,0,0,0,599.359,606.749Z" transform="translate(-475.81 -547.31)" fill="#f2f2f2"/>
    </g>
    <g id="Group_476" data-name="Group 476" transform="translate(176.617 214.966)" opacity="0.2">
      <path id="Path_672" data-name="Path 672" d="M582.8,630.789c-.125.094-.254.187-.379.272a366.6,366.6,0,0,1-42.5-14.6A380.373,380.373,0,0,1,481.1,585.866c-6.022-3.837-11.55-7.584-16.542-11.175.031-.12.062-.241.1-.361,5.028,3.6,10.591,7.392,16.667,11.26A378.415,378.415,0,0,0,582.8,630.789Z" transform="translate(-464.56 -574.33)" fill="#f2f2f2"/>
    </g>
    <g id="Group_477" data-name="Group 477" transform="translate(175.047 229.295)" opacity="0.2">
      <path id="Path_673" data-name="Path 673" d="M566.579,656.516l-.535.223a366.315,366.315,0,0,1-36.581-12.915c-11.6-4.8-23.024-10.207-34.167-16.171q-12.58-6.745-24.647-14.423-5.045-3.212-9.609-6.335v-.446q4.675,3.19,9.854,6.5c7.329,4.671,15.805,9.694,25.334,14.766a376.544,376.544,0,0,0,70.351,28.8Z" transform="translate(-461.04 -606.45)" fill="#f2f2f2"/>
    </g>
    <g id="Group_478" data-name="Group 478" transform="translate(179.098 247.09)" opacity="0.2">
      <path id="Path_674" data-name="Path 674" d="M550.812,684.335l-.852.116q-12.121-4.055-24-8.962a379.052,379.052,0,0,1-49.647-24.96q-2.98-1.784-5.933-3.613l-.259-.576q3.252,2.025,6.772,4.126a379.906,379.906,0,0,0,73.92,33.868Z" transform="translate(-470.12 -646.34)" fill="#f2f2f2"/>
    </g>
    <path id="Path_675" data-name="Path 675" d="M576.271,681.855c-.584.263-1.173.522-1.784.776l-.535.223a83.916,83.916,0,0,1-20.249,5.5l-.852.116a89.731,89.731,0,0,1-11.786.772c-29.211,0-54.371-14.017-65.725-34.185,1.276-.2,2.556-.361,3.841-.509l.58-.062c3.453-.366,6.932-.571,10.4-.718a124.545,124.545,0,0,1,13.035,0c.3,0,.607.036.892.062a59.789,59.789,0,0,1,8.793,1.285c8.811,2,16.885,6.339,24.888,10.528C550.134,672.094,562.772,678.384,576.271,681.855Z" transform="translate(-293.914 -403.27)" opacity="0.1"/>
    <path id="Path_676" data-name="Path 676" d="M611.279,505.806c-11.5-19.865-36.469-33.636-65.417-33.636h-2.355a87.462,87.462,0,0,0-18.656,2.476l-.446.112a81.921,81.921,0,0,0-14.36,5.059l-.366.174a74.177,74.177,0,0,0-11.7,6.834l-.3.219a64.847,64.847,0,0,0-9.489,8.36,31.989,31.989,0,0,1-2.677,10.961c-1.169,2.409-2.378,4.729-.723,7.138,1.111,1.619,3.515,3.671,5.563,3.752,5.625.228,8.753-7.294,11.4-11.041,4.06-5.737,10.078-9.721,15.957-13.57a36.746,36.746,0,0,1,7.883-4.292,27.067,27.067,0,0,1,7.383-1.3,42.926,42.926,0,0,1,20.075,3.488c7.138,3.234,13.472,8.811,21.261,9.582,3.529.348,7.138-.335,10.6.473,6.143,1.441,10.4,7.236,16.381,9.261a18.908,18.908,0,0,0,11.965-.393q-.763-1.606-1.637-3.163A1.917,1.917,0,0,1,611.279,505.806Z" transform="translate(-298.702 -302.778)" opacity="0.1"/>
    <path id="Path_677" data-name="Path 677" d="M334.462,580.887c-2.115,2.231-4.488,4.189-6.669,6.353-8.079,8.03-13.258,18.464-20.521,27.212a46.945,46.945,0,0,0-5.545,7.321c-1.459,2.694-2.19,5.973-1.146,8.855.892,2.471,2.949,4.323,4.947,6.031a22.722,22.722,0,0,0,4.037,2.958c3.355,1.784,7.325,1.883,11.126,1.941,2.1.031,4.653-.205,5.55-2.1a36.835,36.835,0,0,1-9.279-6.317,12.567,12.567,0,0,1-3.7-5.215c-1.089-3.506.522-7.325,2.8-10.2s5.219-5.184,7.445-8.1,3.663-6.268,6.344-8.65c1.856-1.646,4.162-2.677,6.245-4.046a45.507,45.507,0,0,0,8.03-7.365l13.16-14.155a1.432,1.432,0,0,0-.094-2.427c-2.864-2.94-8.262-8.1-12.2-4.229C341.207,572.478,338.133,577.015,334.462,580.887Z" transform="translate(-196.843 -355.504)" fill="#a0616a"/>
    <path id="Path_678" data-name="Path 678" d="M334.462,580.887c-2.115,2.231-4.488,4.189-6.669,6.353-8.079,8.03-13.258,18.464-20.521,27.212a46.945,46.945,0,0,0-5.545,7.321c-1.459,2.694-2.19,5.973-1.146,8.855.892,2.471,2.949,4.323,4.947,6.031a22.722,22.722,0,0,0,4.037,2.958c3.355,1.784,7.325,1.883,11.126,1.941,2.1.031,4.653-.205,5.55-2.1a36.835,36.835,0,0,1-9.279-6.317,12.567,12.567,0,0,1-3.7-5.215c-1.089-3.506.522-7.325,2.8-10.2s5.219-5.184,7.445-8.1,3.663-6.268,6.344-8.65c1.856-1.646,4.162-2.677,6.245-4.046a45.507,45.507,0,0,0,8.03-7.365l13.16-14.155a1.432,1.432,0,0,0-.094-2.427c-2.864-2.94-8.262-8.1-12.2-4.229C341.207,572.478,338.133,577.015,334.462,580.887Z" transform="translate(-196.843 -355.504)" fill="#ffb8b8" opacity="0.87"/>
    <path id="Path_679" data-name="Path 679" d="M419.3,502.744c2.654-.562,5.514.852,8.079-.027a9.479,9.479,0,0,0,3.613-2.784l4.283-4.564a16.669,16.669,0,0,0,3.185-4.211,20.48,20.48,0,0,0,1.213-4.519c.785-3.926,2.128-7.95,5.077-10.653,3.676-3.381,9.341-4.015,14.061-2.4s8.561,5.219,11.385,9.341c-2.525,3.034-5.353,5.835-7.874,8.869a14.628,14.628,0,0,1-2.815,2.815,15.722,15.722,0,0,1-3.761,1.664c-4.537,1.606-9.368,3.93-11.237,8.369a27.293,27.293,0,0,0-1.249,4.863,16.562,16.562,0,0,1-4.207,8.378c-2.266,2.217-5.688,3.431-8.708,2.471-3.341-1.062-5.389-4.336-7.111-7.388A35.635,35.635,0,0,1,419.3,502.744Z" transform="translate(-262.873 -303.093)" fill="#a0616a"/>
    <path id="Path_680" data-name="Path 680" d="M419.3,502.744c2.654-.562,5.514.852,8.079-.027a9.479,9.479,0,0,0,3.613-2.784l4.283-4.564a16.669,16.669,0,0,0,3.185-4.211,20.48,20.48,0,0,0,1.213-4.519c.785-3.926,2.128-7.95,5.077-10.653,3.676-3.381,9.341-4.015,14.061-2.4s8.561,5.219,11.385,9.341c-2.525,3.034-5.353,5.835-7.874,8.869a14.628,14.628,0,0,1-2.815,2.815,15.722,15.722,0,0,1-3.761,1.664c-4.537,1.606-9.368,3.93-11.237,8.369a27.293,27.293,0,0,0-1.249,4.863,16.562,16.562,0,0,1-4.207,8.378c-2.266,2.217-5.688,3.431-8.708,2.471-3.341-1.062-5.389-4.336-7.111-7.388A35.635,35.635,0,0,1,419.3,502.744Z" transform="translate(-262.873 -303.093)" fill="#ffb8b8" opacity="0.87"/>
    <path id="Path_681" data-name="Path 681" d="M679.746,465.7c16.765,6,33.431,13.107,47.287,24.313,6.344,5.135,12,11.059,18.027,16.559,3.158,2.882,6.419,5.643,9.68,8.409l23.148,19.629a83.6,83.6,0,0,0,8.922,6.9c7.481,4.809,16.4,7.254,23.728,12.424a23.733,23.733,0,0,0,1.294,7.847,4.515,4.515,0,0,0,4.577,2.984c11.536-.665,23.233,4.934,34.854,3.524a2.186,2.186,0,0,0,1.637-1.048c.781-1.365-.553-2.641-1.722-3.457L835.4,552.742c-2.6-1.82-5.2-3.64-7.851-5.384-9.582-6.3-19.816-11.648-28.7-18.879-1.9-1.544-3.721-3.167-5.55-4.8-9.672-8.592-19.348-17.193-28.515-26.32-13.325-13.272-25.928-28.078-39.137-41.465a36.621,36.621,0,0,0-4.051-3.707,37.346,37.346,0,0,0-4.421-2.708L700.41,440.27c-2.538-1.4-5.353-2.837-8.186-2.289a4.39,4.39,0,0,0-4.015,1.026,13.751,13.751,0,0,0-2.5,3.6,21.931,21.931,0,0,0-2.186,4.974c-.6,2.369-.4,4.907-1.093,7.236-.446,1.539-1.276,2.944-1.838,4.461A15.328,15.328,0,0,0,679.746,465.7Z" transform="translate(-407.105 -283.771)" fill="#a0616a"/>
    <path id="Path_682" data-name="Path 682" d="M679.746,465.7c16.765,6,33.431,13.107,47.287,24.313,6.344,5.135,12,11.059,18.027,16.559,3.158,2.882,6.419,5.643,9.68,8.409l23.148,19.629a83.6,83.6,0,0,0,8.922,6.9c7.481,4.809,16.4,7.254,23.728,12.424a23.733,23.733,0,0,0,1.294,7.847,4.515,4.515,0,0,0,4.577,2.984c11.536-.665,23.233,4.934,34.854,3.524a2.186,2.186,0,0,0,1.637-1.048c.781-1.365-.553-2.641-1.722-3.457L835.4,552.742c-2.6-1.82-5.2-3.64-7.851-5.384-9.582-6.3-19.816-11.648-28.7-18.879-1.9-1.544-3.721-3.167-5.55-4.8-9.672-8.592-19.348-17.193-28.515-26.32-13.325-13.272-25.928-28.078-39.137-41.465a36.621,36.621,0,0,0-4.051-3.707,37.346,37.346,0,0,0-4.421-2.708L700.41,440.27c-2.538-1.4-5.353-2.837-8.186-2.289a4.39,4.39,0,0,0-4.015,1.026,13.751,13.751,0,0,0-2.5,3.6,21.931,21.931,0,0,0-2.186,4.974c-.6,2.369-.4,4.907-1.093,7.236-.446,1.539-1.276,2.944-1.838,4.461A15.328,15.328,0,0,0,679.746,465.7Z" transform="translate(-407.105 -283.771)" fill="#ffb8b8" opacity="0.87"/>
    <circle id="Ellipse_66" data-name="Ellipse 66" cx="18.875" cy="18.875" r="18.875" transform="translate(140.019 196.595)" fill="#ffb8b8"/>
    <path id="Path_683" data-name="Path 683" d="M648.518,421.762c2.636.045,5.63.25,7.289,2.3s1.285,4.854.865,7.379c-1.312,7.981-2.677,16.1-6.326,23.322a3.328,3.328,0,0,1-1.3,1.584c-1.048.54-2.293-.094-3.3-.714-7.312-4.541-14.623-9.431-22.957-11.6a2.079,2.079,0,0,1-1.3-.691,2,2,0,0,1-.076-1.544c.83-3.7,1.878-7.352,2.529-11.09.393-2.231-.335-7.584,1.642-8.967,2.092-1.472,8.119-.228,10.6-.187Z" transform="translate(-374.762 -274.448)" fill="#ffb8b8"/>
    <path id="Path_684" data-name="Path 684" d="M702.145,470.7c16.765,6,33.431,13.107,47.265,24.308,6.344,5.139,12,11.063,18.027,16.564,3.158,2.882,6.419,5.643,9.681,8.4l23.148,19.629a83.576,83.576,0,0,0,8.922,6.9c7.512,4.827,16.435,7.263,23.733,12.411a23.739,23.739,0,0,0,1.294,7.851,4.519,4.519,0,0,0,4.577,2.984c11.536-.669,23.233,4.934,34.854,3.524a2.19,2.19,0,0,0,1.637-1.053c.781-1.338-.553-2.641-1.722-3.457l-15.779-11.041c-2.6-1.82-5.2-3.64-7.851-5.385-9.564-6.3-19.8-11.648-28.68-18.875-1.9-1.544-3.721-3.172-5.55-4.8-9.672-8.592-19.348-17.193-28.519-26.32-13.321-13.272-25.923-28.078-39.132-41.488a37.1,37.1,0,0,0-4.064-3.658,37.923,37.923,0,0,0-4.421-2.7l-16.769-9.212c-2.538-1.4-5.353-2.837-8.186-2.289a4.376,4.376,0,0,0-4.015,1.022,13.776,13.776,0,0,0-2.5,3.6,21.986,21.986,0,0,0-2.186,4.97c-.6,2.369-.4,4.907-1.093,7.24-.446,1.539-1.276,2.944-1.838,4.461a15.318,15.318,0,0,0-.834,6.406Z" transform="translate(-419.51 -286.549)" fill="#ffb8b8"/>
    <path id="Path_685" data-name="Path 685" d="M686.437,459.817l.531-7.722a26.833,26.833,0,0,1,.968-6.4,25.143,25.143,0,0,1,3.524-6.424,15.471,15.471,0,0,1,2.677-3.181c1.521-1.28,3.488-1.976,4.907-3.364.406-.4.785-.981.544-1.494a1.5,1.5,0,0,0-.446-.482c-3.5-2.868-7.691-4.733-11.831-6.567l-7.825-3.462c-3.292,4.461-6.643,9.06-8.338,14.351a21.2,21.2,0,0,1-.959,2.757c-1,2.092-2.909,3.618-4.118,5.6a19.329,19.329,0,0,0-2.061,6.183,6.821,6.821,0,0,0-.076,3.792,6.932,6.932,0,0,0,2.953,2.984c5.179,3.395,10.649,6.9,16.827,7.379,1.133.085,2.641.651,3-.446C686.973,462.582,686.379,460.718,686.437,459.817Z" transform="translate(-398.24 -274.28)" fill="#3f3d56"/>
    <path id="Path_686" data-name="Path 686" d="M366.9,553.662c-1.954,2.619-.642,6.433,1.383,9s4.733,4.715,5.866,7.78c2.717,7.329-4.863,14.721-4.6,22.519.232,6.95,6.375,11.987,11.6,16.6,11.1,9.814,20.583,23.492,19.334,38.267a22.26,22.26,0,0,0,12.313-9.087,23.96,23.96,0,0,1,2.079,11.88,39.472,39.472,0,0,0,16.506-36.67c-.834-6.62-3.386-13.075-2.989-19.731.214-3.609,1.289-7.1,2.065-10.635a64.687,64.687,0,0,0,1.472-13.865c0-5.318-.986-11.224-5.179-14.494-3.569-2.779-8.476-2.873-13-2.851-4.778.031-9.556.054-14.324.352-4.867.3-9.886,1.909-14.677,2.03C379.405,554.893,371.889,546.97,366.9,553.662Z" transform="translate(-233.315 -346.427)" fill="#3f3d56"/>
    <path id="Path_687" data-name="Path 687" d="M372.174,478.73a19.709,19.709,0,0,0-8.257,5.3c-1.423,1.544-2.6,3.306-4.077,4.8a40.391,40.391,0,0,1-5.96,4.55c-3.93,2.721-7.611,5.777-11.286,8.828l-18.112,15.034c-2.833,2.351-5.666,4.706-8.338,7.24-3.3,3.123-6.339,6.531-9.859,9.408-2.061,1.686-4.278,3.19-6.17,5.068a46.127,46.127,0,0,0-4.693,5.88,283.178,283.178,0,0,1-19.182,23.8,59.722,59.722,0,0,1-9.408,8.922c-7.3,5.26-12.839,13.133-19.254,19.446-.544.535-1.142,1.3-.807,1.99a1.5,1.5,0,0,0,.892.674c4.693,1.749,8.735-5.866,13.624-4.787,2.231.491,3.6,2.6,5.2,4.211s4.336,2.8,6,1.258a26.516,26.516,0,0,1,1.691-13.223c2.735-6.785,8.159-12.134,13.95-16.613s12.094-8.3,17.532-13.2c9.123-8.222,15.788-19.437,26.61-25.241,4.238-2.275,8.922-3.6,13.147-5.933,8.177-4.524,13.9-12.491,18.366-20.686a11.051,11.051,0,0,1,2.106-3.038,11.914,11.914,0,0,1,3.078-1.753,47.346,47.346,0,0,0,15.168-11.112c-1.338-.959-2.592-1.985-3.926-2.949a15.891,15.891,0,0,1-2.958-2.529,34.221,34.221,0,0,1-2.231-3.466A4.433,4.433,0,0,0,372.174,478.73Z" transform="translate(-167.256 -306.412)" fill="#ffb8b8"/>
    <path id="Path_688" data-name="Path 688" d="M540.982,443.141c-1.178-.946-1.218-2.677-1.16-4.207q.29-7.04.571-14.075c.129-3.306.446-7.008,2.94-9.176q-10.818-2.173-21.815-3.332a35.1,35.1,0,0,0-8.757-.138,38.152,38.152,0,0,0-9.988,3.422,61.583,61.583,0,0,0-10.359,5.478,41.636,41.636,0,0,1-3.845,2.641c-2.427,1.338-5.215,1.784-7.829,2.677a25.5,25.5,0,0,0-16.55,30.233c.892-2.306,1.517-4.72,2.561-6.964a11.471,11.471,0,0,1,4.773-5.509,10.446,10.446,0,0,1,7.526-.5,28.683,28.683,0,0,1,6.95,3.328c4.97,3.011,10.046,6.527,12.406,11.831,4.907-3.649,9.926-7.138,14.842-10.8a29.694,29.694,0,0,1,6.767-4.14c3.248-1.263,6.812-1.338,10.3-1.405S537.573,442.24,540.982,443.141Z" transform="translate(-287.326 -269.444)" fill="#ff6584"/>
    <path id="Path_689" data-name="Path 689" d="M395.833,417.7l-.593,8.231,2.141-1.767-1.071-7.28Z" transform="translate(-218.989 -230.907)" fill="#ff6584"/>
    <path id="Path_690" data-name="Path 690" d="M220.6,255.374l-6.924,4.39,4.2-7.619a6.843,6.843,0,0,0-4.189-1.494h-.112a8.1,8.1,0,0,1-1.436-.107l-2.347,1.49L210.8,250.2a8.342,8.342,0,0,1-4.1-3.123l-4.2,2.677,2.654-4.822a12.294,12.294,0,0,0-9.408-4.755c-4.367,0-8.257,2.6-10.769,6.643a8.052,8.052,0,0,1-7.138,3.841H177.6c-4.822,0-8.73,5.465-8.73,12.21s3.908,12.21,8.73,12.21a6.571,6.571,0,0,0,3.042-.763,12.589,12.589,0,0,1,10.564-.205,11,11,0,0,0,8.985,0,12.6,12.6,0,0,1,10.475.205,6.536,6.536,0,0,0,3.007.745c4.822,0,8.73-5.469,8.73-12.21A15.485,15.485,0,0,0,220.6,255.374Z" transform="translate(-124.162 -174.28)" fill="#f2f2f2"/>
    <path id="Path_691" data-name="Path 691" d="M207.579,292.932a12.888,12.888,0,0,0-7.481.812,11.023,11.023,0,0,1-8.985-.022,12.589,12.589,0,0,0-10.564.21,6.58,6.58,0,0,1-3.042.758c-4.283,0-7.847-4.314-8.588-10.006a8.212,8.212,0,0,0,2.141-2.306c2.507-4.046,6.4-6.647,10.769-6.647s8.208,2.565,10.707,6.571a8.257,8.257,0,0,0,7.138,3.908h.112C203.19,286.209,206.143,288.944,207.579,292.932Z" transform="translate(-124.189 -193.971)" opacity="0.03"/>
    <path id="Path_692" data-name="Path 692" d="M529.774,322.7l-3.453,2.173,2.1-3.81a3.4,3.4,0,0,0-2.088-.745h-.036a4.2,4.2,0,0,1-.714-.054l-1.173.741.5-.892a4.153,4.153,0,0,1-2.048-1.557l-2.1,1.338,1.338-2.4a6.13,6.13,0,0,0-4.733-2.382,6.379,6.379,0,0,0-5.353,3.315,4.015,4.015,0,0,1-3.569,1.914h-.116c-2.4,0-4.354,2.726-4.354,6.089s1.949,6.089,4.354,6.089a3.279,3.279,0,0,0,1.517-.379,6.246,6.246,0,0,1,5.269-.1,5.536,5.536,0,0,0,2.23.482,5.479,5.479,0,0,0,2.231-.473,6.281,6.281,0,0,1,5.224.1,3.27,3.27,0,0,0,1.5.37c2.4,0,4.354-2.726,4.354-6.089a7.723,7.723,0,0,0-.888-3.725Z" transform="translate(-309.777 -215.784)" fill="#f2f2f2"/>
    <path id="Path_693" data-name="Path 693" d="M523.271,341.464a6.424,6.424,0,0,0-3.729.406,5.59,5.59,0,0,1-2.231.473,5.483,5.483,0,0,1-2.253-.482,6.281,6.281,0,0,0-5.268.107,3.266,3.266,0,0,1-1.517.379c-2.137,0-3.912-2.155-4.283-4.992a4.11,4.11,0,0,0,1.066-1.151,6,6,0,0,1,10.707-.04,4.131,4.131,0,0,0,3.569,1.954h.054C521.08,338.109,522.557,339.475,523.271,341.464Z" transform="translate(-309.783 -225.632)" opacity="0.03"/>
    <path id="Path_694" data-name="Path 694" d="M597.166,163.191l5.545,3.52-3.368-6.125a5.5,5.5,0,0,1,3.355-1.2h.089a6.99,6.99,0,0,0,1.151-.085l1.883,1.191L605,159.024a6.692,6.692,0,0,0,3.288-2.494l3.368,2.132-2.128-3.863a9.841,9.841,0,0,1,7.539-3.81c3.5,0,6.616,2.079,8.628,5.322a6.446,6.446,0,0,0,5.706,3.074h.187c3.863,0,6.995,4.376,6.995,9.783s-3.123,9.779-6.995,9.779a5.264,5.264,0,0,1-2.436-.607,10.077,10.077,0,0,0-8.476-.165,8.922,8.922,0,0,1-3.618.772,8.8,8.8,0,0,1-3.569-.758,10.1,10.1,0,0,0-8.391.165,5.287,5.287,0,0,1-2.413.593c-3.863,0-6.995-4.376-6.995-9.779A12.441,12.441,0,0,1,597.166,163.191Z" transform="translate(-360.574 -124.878)" fill="#f2f2f2"/>
    <path id="Path_695" data-name="Path 695" d="M622.4,193.326a10.323,10.323,0,0,1,6,.651,8.819,8.819,0,0,0,7.2,0,10.113,10.113,0,0,1,8.476.165,5.215,5.215,0,0,0,2.436.611c3.431,0,6.286-3.457,6.883-8.03a6.555,6.555,0,0,1-1.718-1.851c-2.012-3.239-5.13-5.322-8.628-5.322s-6.58,2.057-8.592,5.264a6.616,6.616,0,0,1-5.7,3.123h-.089C625.92,187.941,623.56,190.132,622.4,193.326Z" transform="translate(-375.37 -140.698)" opacity="0.03"/>
    <path id="Path_696" data-name="Path 696" d="M368.928,395.161c-.232-.352-1.37,0-2.538.763-.205.138-.4.281-.58.424a8.406,8.406,0,0,0-2.6-.848l.049-.036a19.723,19.723,0,0,0,3.261-2.677h-2.512l3.645-1.4c.446-.709.589-1.3.344-1.673-.66-.99-3.845-.036-7.138,2.141a17.648,17.648,0,0,0-3.957,3.448c-2.677.312-4.555,1.1-4.555,2.012,0,.633.892,1.2,2.342,1.6l-.085.054c-3.274,2.173-5.4,4.742-4.738,5.732.58.892,3.123.232,5.969-1.423l-1.887-.892,2.976.205.062-.04c.317-.21.62-.424.915-.638l-2.231-1.035,3.27.223a15.664,15.664,0,0,0,1.731-1.673c3.047-.161,5.429-.892,5.844-1.838a8.1,8.1,0,0,0,.741-.384,6.958,6.958,0,0,0,1.16-.946h-.892l1.3-.5C368.968,395.5,369.017,395.3,368.928,395.161Z" transform="translate(-224.35 -256.89)" fill="#f2f2f2"/>
    <path id="Path_697" data-name="Path 697" d="M165.778,684.729a21.858,21.858,0,0,1-.446,4.546c-.062.281-.125.558-.187.825-1.664,6.669-6.357,11.55-11.956,11.862h-.571c-5.92,0-10.925-5.108-12.58-12.143-.045-.187-.085-.375-.129-.562a21.859,21.859,0,0,1-.468-4.546c0-9.529,5.9-17.251,13.178-17.251S165.778,675.2,165.778,684.729Z" transform="translate(-107.86 -410.948)" fill="#3f3d56"/>
    <path id="Path_698" data-name="Path 698" d="M165.778,684.745a21.858,21.858,0,0,1-.446,4.546c-.062.281-.125.558-.187.825a5.268,5.268,0,0,1-.593-.022,26.8,26.8,0,0,1-4.309-.593,26.423,26.423,0,0,1-3.845.892,26.761,26.761,0,0,1-3.011.281h-1.017a26.8,26.8,0,0,1-3.609-.241,26.293,26.293,0,0,1-5.661-1.405,27.109,27.109,0,0,1-3.06.821c-.045-.187-.085-.375-.129-.562a21.859,21.859,0,0,1-.468-4.546c0-9.529,5.9-17.251,13.178-17.251S165.778,675.217,165.778,684.745Z" transform="translate(-107.86 -410.965)" opacity="0.1"/>
    <path id="Path_699" data-name="Path 699" d="M154.531,585.92a26.672,26.672,0,0,0-2.868-12.045l-15.5,4.822,13.606-8a26.767,26.767,0,0,0-20.124-11.474,26.9,26.9,0,0,0-2.1-2.8l-22.278,6.928,18.264-10.715a26.766,26.766,0,0,0-42.152,14.275l19.071,21.948L79.737,573.9a26.789,26.789,0,0,0,23.974,47.287,26.882,26.882,0,0,0,17.139.455,26.811,26.811,0,0,0,32.566-26.155c0-.6-.022-1.187-.062-1.784a26.735,26.735,0,0,0,1.178-7.784Z" transform="translate(-68.5 -344.278)" fill="#57b894"/>
    <path id="Path_700" data-name="Path 700" d="M154.13,637.629a71.467,71.467,0,0,0-24.8-.317c-9.306,1.544-18.817,4.929-27.917,2.454-5.353-1.454-9.966-4.813-15.168-6.692a28.765,28.765,0,0,0-15.676-.919,26.8,26.8,0,0,0,33.2,35.764,26.882,26.882,0,0,0,17.139.464,26.811,26.811,0,0,0,32.566-26.155c0-.6-.022-1.187-.062-1.784a25.576,25.576,0,0,0,.714-2.815Z" transform="translate(-68.563 -391.017)" opacity="0.1"/>
  </g>
</svg>
