<svg xmlns="http://www.w3.org/2000/svg" width="389.716" height="780.772" viewBox="0 0 389.716 780.772">
  <g id="Group_479" data-name="Group 479" transform="translate(-12566.078 -5085.228)">
    <g id="fun-01" transform="translate(12566.257 5629.257)">
      <circle id="Ellipse_48" data-name="Ellipse 48" cx="114.196" cy="114.196" r="114.196" transform="translate(81.987 0)" fill="#f2f2f2"/>
      <path id="Path_604" data-name="Path 604" d="M973.867,180.962l-6.986,17.591c1.351,6.119,2.674,13.019,3.735,20.367l12.438-26.029.2.314a56.285,56.285,0,0,0-9.606-12.533Z" transform="translate(-646.947 -154.478)" fill="#c4ffbd"/>
      <path id="Path_605" data-name="Path 605" d="M953.265,182.34l6.767-17.04a29.655,29.655,0,0,0-12.781-7.475c-.234-.06-.467-.112-.7-.163C947.093,159.277,950.216,168.777,953.265,182.34Z" transform="translate(-633.57 -139.337)" fill="#c4ffbd"/>
      <path id="Path_606" data-name="Path 606" d="M1006.386,325.738l.157.39q-.25-3.984-.786-7.883l-21.623,27.023-.078-.175q-.07,2.392-.21,4.719Z" transform="translate(-658.11 -244.998)" fill="#c4ffbd"/>
      <path id="Path_607" data-name="Path 607" d="M998.773,237.26l.182.359a88.518,88.518,0,0,0-8.007-19.295l-12.675,26.525q1.445,10.337,1.934,19.95Z" transform="translate(-654.443 -179.251)" fill="#c4ffbd"/>
      <path id="Path_608" data-name="Path 608" d="M855.985,223.416a73.892,73.892,0,0,0-3.375,14.506L896.736,263.7c-.395-5.553-.992-10.866-1.685-15.775l-39.112-24.092Z" transform="translate(-571.759 -182.602)" fill="#c4ffbd"/>
      <path id="Path_609" data-name="Path 609" d="M850.907,272.383l.04-.42,44.963,25.423q-.095-2.046-.23-4.056l-44.289-25.874.043-.419Q851.1,269.646,850.907,272.383Z" transform="translate(-570.638 -211.303)" fill="#c4ffbd"/>
      <path id="Path_610" data-name="Path 610" d="M1005.689,289.59l.169.376a105.623,105.623,0,0,0-2.939-13.939L984.1,303.938q.289,6.412.146,12.45Z" transform="translate(-658.278 -217.219)" fill="#c4ffbd"/>
      <path id="Path_611" data-name="Path 611" d="M961.5,418.677a86.193,86.193,0,0,1-8.23,23.726c5.153-4.394,25.61-23,31.665-46.243Z" transform="translate(-637.993 -296.264)" fill="#c4ffbd"/>
      <path id="Path_612" data-name="Path 612" d="M854.425,341.7a102.189,102.189,0,0,0,3.778,13.154l.07-.455,37.786,27.484a127.141,127.141,0,0,0,1.968-15.105Z" transform="translate(-572.953 -260.432)" fill="#c4ffbd"/>
      <path id="Path_613" data-name="Path 613" d="M916.6,181.531c-3.3-14.674-6.685-24.537-6.734-24.678l.212-.181c-6.913-1.421-13.273.835-18.509,5.9Z" transform="translate(-597.394 -138.41)" fill="#c4ffbd"/>
      <path id="Path_614" data-name="Path 614" d="M979.987,367.184c-.032.481-.063.964-.1,1.44a126.283,126.283,0,0,1-1.786,13.625l23.213-22.3.144.386a50.074,50.074,0,0,0,1.512-12.545q-.027-2.492-.173-4.963Z" transform="translate(-654.329 -261.169)" fill="#c4ffbd"/>
      <path id="Path_615" data-name="Path 615" d="M901.656,215.4c-1.054-7.264-2.364-14.082-3.7-20.13L872.35,175.883l.067-.4c-3.909,3.882-7.175,9.349-9.556,16.029Z" transform="translate(-578.504 -151.06)" fill="#c4ffbd"/>
      <path id="Path_616" data-name="Path 616" d="M903.538,409.018l-37.51-27.283c9.3,25.759,27.427,50.506,28.587,52.077A83.422,83.422,0,0,0,903.538,409.018Z" transform="translate(-580.588 -286.773)" fill="#c4ffbd"/>
      <path id="Path_617" data-name="Path 617" d="M895.294,327.9l.021-.023a171.382,171.382,0,0,0,.177-18.464l-45.073-25.485q-.241,3.71-.2,7.629a61.479,61.479,0,0,0,1.226,11.122Z" transform="translate(-570.181 -222.415)" fill="#c4ffbd"/>
      <path id="Path_618" data-name="Path 618" d="M1116.187,467.081l-16.6,9.093c-2.861,5.575-6.244,11.733-10.113,18.069l26.181-12.114-.043.372a56.293,56.293,0,0,0,.6-15.779Z" transform="translate(-727.611 -342.692)" fill="#c4ffbd"/>
      <path id="Path_619" data-name="Path 619" d="M1120.51,446.694l16.08-8.808a29.663,29.663,0,0,0-5.076-13.909c-.142-.2-.289-.384-.435-.572C1130.467,424.994,1126.813,434.3,1120.51,446.694Z" transform="translate(-748.032 -314.19)" fill="#c4ffbd"/>
      <path id="Path_620" data-name="Path 620" d="M1051.562,617.908l-.128.4q2.349-3.228,4.422-6.572l-33.889,7.022.051-.185q-1.58,1.8-3.172,3.5Z" transform="translate(-681.139 -438.109)" fill="#c4ffbd"/>
      <path id="Path_621" data-name="Path 621" d="M1086.71,533.573l-.088.392a88.5,88.5,0,0,0,6.14-19.967l-26.68,12.345q-5.481,8.883-11.235,16.6Z" transform="translate(-704.826 -373.799)" fill="#c4ffbd"/>
      <path id="Path_622" data-name="Path 622" d="M1021.919,420.426a73.886,73.886,0,0,0-11.852,9.019l17.543,48c3.238-4.528,6.166-9,8.764-13.225l-14.758-43.5Z" transform="translate(-675.363 -312.231)" fill="#c4ffbd"/>
      <path id="Path_623" data-name="Path 623" d="M998.017,451.405l.3-.3,18.415,48.258q1.232-1.637,2.41-3.271l-17.607-48.176.3-.3Q999.91,449.418,998.017,451.405Z" transform="translate(-667.434 -330.126)" fill="#c4ffbd"/>
      <path id="Path_624" data-name="Path 624" d="M1063.507,585.821l-.11.4a105.713,105.713,0,0,0,6.627-12.611l-32.3,9.5q-3.866,5.123-7.828,9.682Z" transform="translate(-688.413 -413.021)" fill="#c4ffbd"/>
      <path id="Path_625" data-name="Path 625" d="M939.707,672.827a86.206,86.206,0,0,1-21.472,13.023c6.772-.1,34.395-1.38,53.883-15.419Z" transform="translate(-614.939 -476.729)" fill="#c4ffbd"/>
      <path id="Path_626" data-name="Path 626" d="M952.532,506.391a102.281,102.281,0,0,0-5.481,12.541l.344-.306,11.573,45.268a127.116,127.116,0,0,0,11.15-10.379Z" transform="translate(-633.9 -368.794)" fill="#c4ffbd"/>
      <path id="Path_627" data-name="Path 627" d="M1105.362,431.894c6.816-13.408,10.5-23.162,10.554-23.3l.279,0c-4.418-5.5-10.756-7.822-18.02-7.259Z" transform="translate(-733.336 -299.611)" fill="#c4ffbd"/>
      <path id="Path_628" data-name="Path 628" d="M995.149,636.4c-.332.35-.663.7-1,1.046a126.155,126.155,0,0,1-10.066,9.354l32.1-2.373-.135.39a50.054,50.054,0,0,0,9.166-8.7q1.568-1.937,3.033-3.933Z" transform="translate(-658.268 -451.568)" fill="#c4ffbd"/>
      <path id="Path_629" data-name="Path 629" d="M1060.339,450.968c3.821-6.267,7.162-12.353,9.99-17.863l-7.353-31.267.309-.269c-5.487.5-11.489,2.624-17.583,6.251Z" transform="translate(-698.81 -299.823)" fill="#c4ffbd"/>
      <path id="Path_630" data-name="Path 630" d="M936.424,589.562l-11.488-44.937c-9.27,25.769-11.09,56.392-11.2,58.343A83.425,83.425,0,0,0,936.424,589.562Z" transform="translate(-611.98 -393.951)" fill="#c4ffbd"/>
      <path id="Path_631" data-name="Path 631" d="M982.173,522.079l.031,0a171.459,171.459,0,0,0,11.913-14.108l-18.46-48.377q-2.552,2.7-5.021,5.748a61.428,61.428,0,0,0-6.149,9.348Z" transform="translate(-645.371 -338)" fill="#c4ffbd"/>
      <path id="Path_632" data-name="Path 632" d="M839.265,384.353l-1.206,18.889c3.177,5.4,6.567,11.555,9.847,18.215l3.783-28.6.291.235a56.3,56.3,0,0,0-13.009-8.95Z" transform="translate(-562.185 -288.357)" fill="#c4ffbd"/>
      <path id="Path_633" data-name="Path 633" d="M809.466,395.848l1.169-18.3a29.655,29.655,0,0,0-14.466-3.158c-.241.016-.479.038-.716.061C796.467,375.822,802.374,383.89,809.466,395.848Z" transform="translate(-534.15 -281.91)" fill="#c4ffbd"/>
      <path id="Path_634" data-name="Path 634" d="M920.662,502.982l.27.323q-1.469-3.712-3.184-7.254l-12.211,32.383-.129-.142q.673,2.3,1.259,4.553Z" transform="translate(-606.499 -361.99)" fill="#c4ffbd"/>
      <path id="Path_635" data-name="Path 635" d="M885.5,426.682l.284.285A88.5,88.5,0,0,0,872.2,411.092l-3.856,29.144q4.569,9.385,8.005,18.375Z" transform="translate(-582.113 -306.089)" fill="#c4ffbd"/>
      <path id="Path_636" data-name="Path 636" d="M735.805,463.182a73.86,73.86,0,0,0,1.274,14.839L787.012,488.9c-2.092-5.159-4.3-10.027-6.479-14.482l-44.645-10.823Z" transform="translate(-494.898 -340.363)" fill="#c4ffbd"/>
      <path id="Path_637" data-name="Path 637" d="M740.917,513.016l-.092-.412,50.619,10.28q-.723-1.917-1.473-3.787L739.854,508.18l-.089-.412Q740.251,510.353,740.917,513.016Z" transform="translate(-497.509 -369.7)" fill="#c4ffbd"/>
      <path id="Path_638" data-name="Path 638" d="M909.067,470.662l.277.305a105.646,105.646,0,0,0-7.1-12.348l-9.268,32.361q2.257,6.008,3.987,11.8Z" transform="translate(-598.316 -337.361)" fill="#c4ffbd"/>
      <path id="Path_639" data-name="Path 639" d="M917.849,599.445a86.2,86.2,0,0,1-.494,25.108c3.542-5.771,17.247-29.789,15.821-53.766Z" transform="translate(-614.36 -411.165)" fill="#c4ffbd"/>
      <path id="Path_640" data-name="Path 640" d="M764.724,578.165a102.213,102.213,0,0,0,7.659,11.343l-.074-.454,44.431,14.458a127.091,127.091,0,0,0-2.8-14.974Z" transform="translate(-513.932 -416.02)" fill="#c4ffbd"/>
      <path id="Path_641" data-name="Path 641" d="M778.107,396.378c-7.676-12.935-13.942-21.269-14.032-21.388l.145-.238c-7.014.786-12.365,4.9-15.778,11.335Z" transform="translate(-503.219 -282.178)" fill="#c4ffbd"/>
      <path id="Path_642" data-name="Path 642" d="M909.952,548.9c.118.467.238.936.35,1.4a126.171,126.171,0,0,1,2.512,13.51L928,535.427l.257.323a50.061,50.061,0,0,0-2.439-12.4q-.8-2.362-1.7-4.667Z" transform="translate(-609.489 -376.883)" fill="#c4ffbd"/>
      <path id="Path_643" data-name="Path 643" d="M780.136,437.772c-3.248-6.582-6.6-12.662-9.741-18l-30.345-10.528-.062-.4c-2.518,4.9-3.934,11.109-4.133,18.2Z" transform="translate(-494.936 -304.607)" fill="#c4ffbd"/>
      <path id="Path_644" data-name="Path 644" d="M832.239,627l-44.106-14.353c16.8,21.624,41.694,39.555,43.284,40.69A83.425,83.425,0,0,0,832.239,627Z" transform="translate(-529.334 -438.712)" fill="#c4ffbd"/>
      <path id="Path_645" data-name="Path 645" d="M799.7,552.281l.013-.029a171.6,171.6,0,0,0-5.539-17.614l-50.744-10.306q.918,3.6,2.167,7.318a61.449,61.449,0,0,0,4.6,10.2Z" transform="translate(-499.923 -380.599)" fill="#c4ffbd"/>
      <path id="Path_646" data-name="Path 646" d="M285.169,697.066q51.8-.611,103.6.7a34.223,34.223,0,0,1,8.677.958c2.623.787,4.642,2.475,3.925,4.1q-20.221.6-40.483.37c-2.942,1.441-6.171,3.611-4.363,5.555,1.251,1.345,4.339,1.745,7.04,1.748,4.891.006,9.8-.8,14.621-.326s9.627,3.006,8.215,5.637c-1.072,2-5.139,2.987-8.84,3.164s-7.49-.191-11.108.282c-3.438.45-6.416,1.618-9.634,2.434a89.554,89.554,0,0,1-16.237,2.022c-42.5,2.6-85.359,2.576-128.113,2.552-17.309-.009-34.852-.036-51.566-2.562-9.527-1.44-18.657-3.677-28.3-4.838-11.524-1.386-23.434-1.2-35.219-1.156q-31.033.109-62.014-1.2c-1.537-.065-3.424-.284-3.838-1.118-.484-.973,1.48-1.733,3.141-2.121A182.4,182.4,0,0,1,63.283,709c4.88-.343,9.909-.518,14.4-1.647s8.409-3.5,8.367-6.261c-.013-.843-.368-1.745.335-2.489.934-.989,3.232-1.215,5.215-1.323,21.981-1.195,44.082-1.694,66.164-1.493,7.767.071,15.567.227,23.279-.3,6.319-.429,12.509-1.309,18.736-2.048,8.359-.992,44.74-6.13,50.047-1.961,3.973,3.121-4.229,3.794,6.426,5.068C265.525,697.656,275.759,697.178,285.169,697.066Z" transform="translate(-31.454 -489.52)" fill="#f2f2f2"/>
      <ellipse id="Ellipse_49" data-name="Ellipse 49" cx="21.473" cy="20.497" rx="21.473" ry="20.497" transform="translate(212.776 58.562)" fill="#2f2e41"/>
      <circle id="Ellipse_50" data-name="Ellipse 50" cx="20.497" cy="20.497" r="20.497" transform="translate(236.2 31.233)" fill="#2f2e41"/>
      <path id="Path_647" data-name="Path 647" d="M773.239,267.488a20.522,20.522,0,0,1-31.69-10.775,20.522,20.522,0,1,0,40.031-8.416A20.515,20.515,0,0,1,773.239,267.488Z" transform="translate(-498.683 -198.973)" fill="#2f2e41"/>
      <circle id="Ellipse_51" data-name="Ellipse 51" cx="16.759" cy="16.759" r="16.759" transform="translate(212.564 69.82)" fill="#ffb8b8"/>
      <path id="Path_648" data-name="Path 648" d="M666.529,385.38s6.84,10.261,5.814,14.707c0,0-4.446,2.052-4.446,2.736s-4.1,7.182-4.1,7.182L659,416.5l-2.052,8.55h9.919l10.945-8.55,10.6-11.629s7.182-3.42,10.945-.684l2.052,1.71s-7.182-9.576-10.6-11.628c0,0-6.156-7.524-5.472-15.049Z" transform="translate(-443.02 -285.121)" fill="#ffb8b8"/>
      <path id="Path_649" data-name="Path 649" d="M644.467,439.224s-6.84,3.762-9.577,10.945-15.049,31.124-15.049,31.124-1.026,15.391-.342,16.075,8.551-6.84,9.918-8.892,6.84-26.678,6.84-26.678l8.892-14.365,1.71-8.209Z" transform="translate(-418.222 -324.599)" fill="#ffb8b8" opacity="0.92"/>
      <path id="Path_650" data-name="Path 650" d="M554.27,500.832l-3.078-1.026s-18.811-11.629-19.837-16.759-16.075-22.231-16.417-13,10.945,19.5,10.945,19.5,24.625,34.544,25.993,24.625Z" transform="translate(-349.572 -343.113)" fill="#ffb8b8" opacity="0.92"/>
      <path id="Path_651" data-name="Path 651" d="M720.952,464.489s.342,9.577,13.681,13c0,0,13.681,18.469,15.049,26.678s37.28,50.277,37.28,50.277,33.176,4.1,33.176,0-27.7-7.524-27.7-7.524-29.072-43.095-30.44-48.909S747.629,449.1,741.473,449.44c0,0-5.814-2.736-9.234-.684S720.952,464.489,720.952,464.489Z" transform="translate(-485.131 -330.369)" fill="#ffb8b8"/>
      <path id="Path_652" data-name="Path 652" d="M378.557,539.807s-23.941-32.15-29.072-34.2-11.629-3.42-15.391,1.368-48.225,60.88-48.225,60.88-15.733,16.075-23.6,13c0,0-4.1,3.42,5.472,4.1a57.071,57.071,0,0,0,18.469-2.052s5.814,1.026,9.919,2.052,9.234,1.368,8.893-1.368l-1.368-10.944s35.228-29.072,36.254-41.384c0,0-.684-5.815,0-5.13s15.049,16.075,21.547,19.495,22.573,8.209,22.573,8.209Z" transform="translate(-182.751 -367.039)" fill="#a0616a"/>
      <path id="Path_653" data-name="Path 653" d="M378.557,539.807s-23.941-32.15-29.072-34.2-11.629-3.42-15.391,1.368-48.225,60.88-48.225,60.88-15.733,16.075-23.6,13c0,0-4.1,3.42,5.472,4.1a57.071,57.071,0,0,0,18.469-2.052s5.814,1.026,9.919,2.052,9.234,1.368,8.893-1.368l-1.368-10.944s35.228-29.072,36.254-41.384c0,0-.684-5.815,0-5.13s15.049,16.075,21.547,19.495,22.573,8.209,22.573,8.209Z" transform="translate(-182.751 -367.039)" fill="#ffb8b8" opacity="0.96"/>
      <path id="Path_654" data-name="Path 654" d="M311.675,584.573S280.209,572.6,276.1,569.866s-18.811-8.209-26.336-2.052-44.12,34.544-56.433,37.28-33.518,9.235-33.518,9.235-13.681,1.026,1.026,6.84c0,0,18.127,1.71,21.205,4.446s13.339,6.156,14.023,1.71,2.736-10.26,6.5-10.945,48.909-13,55.749-26.336c0,0,15.391,8.55,24.967,18.469s32.15,15.391,32.15,15.391Z" transform="translate(-112.107 -407.359)" fill="#ffb8b8"/>
      <path id="Path_655" data-name="Path 655" d="M608.714,590.224s-14.992,3.985-16.218,2.506-7.724,6.729-1.567,23.146,4.788,23.941,8.208,26.336,19.5-1.368,24.284.342,10.944,3.078,13-6.84,7.182-27.362,6.156-29.756-6.5-7.866-6.5-7.866l-11.287-5.814Z" transform="translate(-397.859 -423.955)" fill="#3f3d56"/>
      <path id="Path_656" data-name="Path 656" d="M690.246,452.063s-2.381-6.67-6.8-7.92a11.382,11.382,0,0,1-1.1-.362,8.421,8.421,0,0,0-10.393,2.981c-4.446,6.156-8.55,13.339-5.13,17.443s10.261,6.5,10.261,6.5l5.13,6.5s-10.261,18.469-10.261,27.02c0,0-.342,3.42-6.156-2.736s-29.608-10.413-29.608-10.413,4.983-6.688,1.221-9.766-7.207-15.339,1.7-20.153l15.232-22.428,2.736.342s-3.591,3.249-3.933,4.959-14.023,13.681-8.551,15.733,14.365-2.394,18.127-7.525c2.069-2.821,4.966-6.678,8.634-9.122a12.788,12.788,0,0,1,12.791-.687l1.148.574h0a14.652,14.652,0,0,1,5.065,6.231l.407.951Z" transform="translate(-427.576 -324.27)" fill="#2f2e41"/>
      <circle id="Ellipse_52" data-name="Ellipse 52" cx="15.617" cy="15.617" r="15.617" transform="translate(224.488 66.37)" fill="#2f2e41"/>
      <ellipse id="Ellipse_53" data-name="Ellipse 53" cx="14.641" cy="10.736" rx="14.641" ry="10.736" transform="translate(212.776 66.37)" fill="#2f2e41"/>
      <ellipse id="Ellipse_54" data-name="Ellipse 54" cx="1.952" cy="4.88" rx="1.952" ry="4.88" transform="translate(230.344 87.843)" fill="#a0616a"/>
      <path id="Path_657" data-name="Path 657" d="M706.818,270.557V297.8h-7.866V270.557a1.833,1.833,0,0,1,1.833-1.833h4.2a1.833,1.833,0,0,1,1.833,1.833Z" transform="translate(-470.655 -212.414)" fill="#ff6584"/>
      <ellipse id="Ellipse_55" data-name="Ellipse 55" cx="9.76" cy="8.784" rx="9.76" ry="8.784" transform="translate(222.536 81.987)" fill="#c4ffbd"/>
      <ellipse id="Ellipse_56" data-name="Ellipse 56" cx="3.904" cy="2.928" rx="3.904" ry="2.928" transform="translate(228.392 87.843)" fill="#f2f2f2"/>
      <ellipse id="Ellipse_57" data-name="Ellipse 57" cy="0.976" ry="0.976" transform="translate(232.296 89.795)" fill="#ff6584"/>
      <path id="Path_658" data-name="Path 658" d="M706.818,270.557V271.8h-7.866v-1.245a1.833,1.833,0,0,1,1.833-1.833h4.2a1.833,1.833,0,0,1,1.833,1.833Z" transform="translate(-470.655 -212.414)" opacity="0.1"/>
      <path id="Path_659" data-name="Path 659" d="M452.689,430.511l20.138-20.138a3.756,3.756,0,0,1,5.312,0l18.116,18.116a3.756,3.756,0,0,1,0,5.312L477.44,452.617a3.756,3.756,0,0,1-5.112.186L452.89,436.01a3.756,3.756,0,0,1-.2-5.5Z" transform="translate(-307.895 -304.892)" fill="#2f2e41"/>
      <path id="Path_660" data-name="Path 660" d="M440,343.114,457.614,325.5l14.536,14.536-16.93,16.93Z" transform="translate(-289.512 -214.296)" fill="#f2f2f2"/>
      <circle id="Ellipse_58" data-name="Ellipse 58" cx="8.417" cy="8.417" r="8.417" transform="translate(158.487 118.349)" fill="#c4ffbd"/>
      <path id="Path_661" data-name="Path 661" d="M499.512,465.706a8.417,8.417,0,0,1,8.575-14.069,8.417,8.417,0,1,0-7.639,14.829A8.463,8.463,0,0,1,499.512,465.706Z" transform="translate(-336.354 -331.765)" opacity="0.1"/>
      <path id="Path_662" data-name="Path 662" d="M520.062,469.344c1,.943,1.057,4.339-.476,5.97s-4.071.881-5.075-.063-.093-1.722,1.44-3.353S519.059,468.4,520.062,469.344Z" transform="translate(-349.019 -344.25)" fill="#f2f2f2"/>
      <circle id="Ellipse_59" data-name="Ellipse 59" cx="2.494" cy="2.494" r="2.494" transform="translate(160.004 124.409)" fill="#2f2e41"/>
      <circle id="Ellipse_60" data-name="Ellipse 60" cx="2.494" cy="2.494" r="2.494" transform="translate(164.487 119.638)" fill="#2f2e41"/>
      <circle id="Ellipse_61" data-name="Ellipse 61" cx="0.624" cy="0.624" r="0.624" transform="translate(161.874 126.28)" fill="#f2f2f2"/>
      <circle id="Ellipse_62" data-name="Ellipse 62" cx="0.312" cy="0.312" r="0.312" transform="translate(161.918 125.056)" fill="#f2f2f2"/>
      <circle id="Ellipse_63" data-name="Ellipse 63" cx="0.312" cy="0.312" r="0.312" transform="translate(166.401 120.285)" fill="#f2f2f2"/>
      <circle id="Ellipse_64" data-name="Ellipse 64" cx="0.624" cy="0.624" r="0.624" transform="translate(166.357 121.509)" fill="#f2f2f2"/>
    </g>
    <g id="undraw_book_reading_kx9s" transform="translate(12566.078 5085.228)">
      <rect id="Rectangle_300" data-name="Rectangle 300" width="367.341" height="0.791" transform="translate(10.884 253.187)" fill="#3f3d56"/>
      <rect id="Rectangle_301" data-name="Rectangle 301" width="0.791" height="367.341" transform="translate(39.469 110.444) rotate(-67.078)" fill="#3f3d56"/>
      <rect id="Rectangle_302" data-name="Rectangle 302" width="367.341" height="0.791" transform="translate(10.884 109.651)" fill="#3f3d56"/>
      <path id="Path_544" data-name="Path 544" d="M556.843,255.883a127.351,127.351,0,0,1-37.062,90.2q-1.951,1.963-3.99,3.836-2.456,2.266-5.038,4.393c-.328.273-.656.542-.989.807A124.048,124.048,0,0,1,487.8,369.363c-.463.233-.925.467-1.392.7-.739.364-1.487.72-2.234,1.068a123.046,123.046,0,0,1-88.277,5.991c-51.036-15.84-88.162-64.125-88.162-121.234,0-69.993,55.766-126.731,124.556-126.731S556.843,185.89,556.843,255.883Z" transform="translate(-228.441 -129.032)" fill="#c4ffbd"/>
      <path id="Path_545" data-name="Path 545" d="M621.015,333.268l.1,0-.39-.856a23.9,23.9,0,0,0-1.6-3.516l-11.441-25.121a4.524,4.524,0,0,0-4.193-2.649L589,301.364a4.524,4.524,0,0,0-4.218,3.095l-9.109,27.358a23.789,23.789,0,0,0-.779,2.34l-.309.929.073,0a24.062,24.062,0,1,0,46.358-1.815Z" transform="translate(-389.436 -233.002)" fill="#3f3d56"/>
      <rect id="Rectangle_303" data-name="Rectangle 303" width="25.338" height="0.523" transform="translate(200.016 99.429) rotate(-79.634)" fill="#c4ffbd"/>
      <rect id="Rectangle_304" data-name="Rectangle 304" width="0.523" height="25.338" transform="translate(209.543 74.526) rotate(-12.264)" fill="#c4ffbd"/>
      <path id="Path_546" data-name="Path 546" d="M607.117,270.236l18.567-.309a.523.523,0,1,1,.017,1.046l-18.567.309a.523.523,0,0,1-.017-1.046Z" transform="translate(-409.134 -214.142)" fill="#3f3d56"/>
      <path id="Path_547" data-name="Path 547" d="M607.614,280.151l18.567-.309a.523.523,0,1,1,.017,1.046l-18.567.309a.523.523,0,1,1-.017-1.046Z" transform="translate(-409.434 -220.136)" fill="#3f3d56"/>
      <path id="Path_548" data-name="Path 548" d="M608.109,290.065l18.567-.309a.523.523,0,1,1,.018,1.046l-18.567.309a.523.523,0,0,1-.018-1.046Z" transform="translate(-409.734 -226.13)" fill="#3f3d56"/>
      <path id="Path_549" data-name="Path 549" d="M621.144,260.882c-3.683.061-6.634,2.164-6.592,4.7l13.337-.222C627.847,262.823,624.827,260.82,621.144,260.882Z" transform="translate(-413.94 -208.673)" fill="#3f3d56"/>
      <path id="Path_550" data-name="Path 550" d="M619.843,389.614a3.222,3.222,0,0,1,1.956.836c.138.114.273.234.409.354a4.082,4.082,0,0,0,1.541,1.008c1.278.349,2.539-.662,3.6-1.7l.365.375c-1.171,1.138-2.574,2.244-4.107,1.826a4.533,4.533,0,0,1-1.75-1.121c-.132-.116-.263-.233-.4-.344a2.233,2.233,0,0,0-2.032-.634,2.547,2.547,0,0,0-.815.628,4.887,4.887,0,0,1-.565.509,2.562,2.562,0,0,1-2.839.084,5.067,5.067,0,0,1-.444-.333,1.3,1.3,0,0,0-2.116.112,2.7,2.7,0,0,1-1.48.735l-.057,0c-1.042.017-1.7-1.025-2.112-1.818l.465-.24c.556,1.077,1.091,1.569,1.677,1.533a2.3,2.3,0,0,0,1.185-.624,1.785,1.785,0,0,1,2.768-.108,4.64,4.64,0,0,0,.4.3,2.056,2.056,0,0,0,2.248-.067,4.388,4.388,0,0,0,.5-.456,2.973,2.973,0,0,1,.994-.746A1.72,1.72,0,0,1,619.843,389.614Z" transform="translate(-410.586 -286.503)" fill="#c4ffbd"/>
      <rect id="Rectangle_305" data-name="Rectangle 305" width="0.544" height="52.188" transform="translate(207.251)" fill="#3f3d56"/>
      <path id="Path_551" data-name="Path 551" d="M1019.6,320.014c-3.314,12.252-14.667,19.84-14.667,19.84s-5.979-12.277-2.665-24.529,14.667-19.84,14.667-19.84S1022.913,307.761,1019.6,320.014Z" transform="translate(-647.742 -229.594)" fill="#c4ffbd"/>
      <path id="Path_552" data-name="Path 552" d="M969.843,320.014c3.314,12.252,14.667,19.84,14.667,19.84s5.979-12.277,2.664-24.529-14.667-19.84-14.667-19.84S966.528,307.761,969.843,320.014Z" transform="translate(-628.138 -229.594)" fill="#c4ffbd"/>
      <path id="Path_553" data-name="Path 553" d="M948.936,336.184c9.095,8.853,10.206,22.463,10.206,22.463s-13.635-.744-22.73-9.6-10.206-22.464-10.206-22.464S939.842,327.33,948.936,336.184Z" transform="translate(-602.361 -248.397)" fill="#3f3d56"/>
      <path id="Path_554" data-name="Path 554" d="M1019.706,336.184c-9.094,8.853-10.206,22.463-10.206,22.463s13.635-.744,22.73-9.6,10.206-22.464,10.206-22.464S1028.8,327.33,1019.706,336.184Z" transform="translate(-652.719 -248.397)" fill="#3f3d56"/>
      <path id="Path_555" data-name="Path 555" d="M200.6,682.014c-3.314,12.252-14.667,19.84-14.667,19.84s-5.979-12.277-2.664-24.529,14.667-19.84,14.667-19.84S203.911,669.761,200.6,682.014Z" transform="translate(-152.585 -448.453)" fill="#c4ffbd"/>
      <path id="Path_556" data-name="Path 556" d="M150.843,682.014c3.314,12.252,14.667,19.84,14.667,19.84s5.979-12.277,2.665-24.529-14.667-19.84-14.667-19.84S147.528,669.761,150.843,682.014Z" transform="translate(-132.983 -448.453)" fill="#c4ffbd"/>
      <path id="Path_557" data-name="Path 557" d="M129.936,698.183c9.095,8.853,10.206,22.463,10.206,22.463s-13.635-.744-22.73-9.6-10.206-22.463-10.206-22.463S120.841,689.33,129.936,698.183Z" transform="translate(-107.207 -467.256)" fill="#3f3d56"/>
      <path id="Path_558" data-name="Path 558" d="M200.706,698.183c-9.095,8.853-10.206,22.463-10.206,22.463s13.635-.744,22.73-9.6,10.206-22.463,10.206-22.463S209.8,689.33,200.706,698.183Z" transform="translate(-157.565 -467.256)" fill="#3f3d56"/>
      <circle id="Ellipse_26" data-name="Ellipse 26" cx="7.606" cy="7.606" r="7.606" transform="translate(257.458 105.163)" fill="#2f2e41"/>
      <path id="Path_559" data-name="Path 559" d="M754.43,394.164a7.605,7.605,0,0,1,6.79-7.561,7.606,7.606,0,1,0,0,15.121A7.606,7.606,0,0,1,754.43,394.164Z" transform="translate(-497.516 -284.655)" fill="#2f2e41"/>
      <path id="Path_560" data-name="Path 560" d="M758.208,414.036s-1.181,5.432,6.2,7.606Z" transform="translate(-500.75 -301.268)" fill="#c4ffbd"/>
      <circle id="Ellipse_27" data-name="Ellipse 27" cx="25.533" cy="25.533" r="25.533" transform="translate(242.676 113.363)" fill="#2f2e41"/>
      <path id="Path_561" data-name="Path 561" d="M760.513,688.27q-.492.409-.988.807a124.058,124.058,0,0,1-21.97,14.247c-.463.233-.925.467-1.392.7-.739.364-1.487.719-2.234,1.068l-13.088-4.362.15-3.135v-.012l.57-11.957.194-4.089Z" transform="translate(-478.2 -462.992)" fill="#ffb8b8"/>
      <path id="Path_562" data-name="Path 562" d="M731.974,728.475c-.739.364-1.487.72-2.234,1.068a121.389,121.389,0,0,1-15.781,6.078.889.889,0,0,1-.047-.245l2.74-13.393.15.063Z" transform="translate(-474.011 -487.447)" fill="#2f2e41"/>
      <circle id="Ellipse_28" data-name="Ellipse 28" cx="16.909" cy="16.909" r="16.909" transform="translate(244.927 132.168)" fill="#ffb8b8"/>
      <path id="Path_563" data-name="Path 563" d="M757.242,508.171s2.742,13.71,7.769,16.909l-27.877,32.9-10.511-10.054,7.769-13.71s8.683-5.027,5.941-11.882Z" transform="translate(-481.696 -358.181)" fill="#ffb8b8"/>
      <path id="Path_564" data-name="Path 564" d="M835.739,581.528a126.866,126.866,0,0,1-17.288,21.653c-.281-6.129-.89-11.182-2.084-12.677a.011.011,0,0,1-.008,0l-14.619-4.567s3.2-30.162,10.969-31.53c0,0,1.127.229,2.879.759,5.646,1.7,17.77,6.493,19.514,16.6A56.131,56.131,0,0,1,835.739,581.528Z" transform="translate(-527.111 -386.131)" fill="#ffb8b8"/>
      <path id="Path_565" data-name="Path 565" d="M560.607,574.043s-13.71-.457-22.393,10.511-29.7,19.194-29.7,19.194l-52.554,20.565s-9.6-16.909-15.538-10.968,10.968,21.022,18.737,19.194,54.839-15.995,54.839-15.995l37.473-16.909Z" transform="translate(-307.911 -398.004)" fill="#ffb8b8"/>
      <path id="Path_566" data-name="Path 566" d="M757.794,586.743l-1.906,16.513q-2.456,2.266-5.038,4.393c-.328.273-.656.542-.989.807-13.2-4.045-33.871-3.594-37.964-3.456-.467.012-.72.024-.72.024l-.455-9.6c-4.385-1.459-5.824-4.65-5.864-8.161-.067-6.366,4.492-13.776,4.492-13.776.819-.819,6.936-12.416,8.2-14.82.146-.281.229-.435.229-.435l5.484-1.368s-.016.044-.047.122c-.49,1.372-4.753,13.784,2.586,14.215,7.22.427,22.926-19.85,25.089-22.693l.249-.328,5.943,3.2c-.024.008-.047.012-.071.02-3.63,1.008-6.991,9.751-6.991,9.751-9.478,16.7,7.347,25.378,7.762,25.587A.012.012,0,0,0,757.794,586.743Z" transform="translate(-468.538 -382.371)" fill="#d0cde1"/>
      <path id="Path_567" data-name="Path 567" d="M746.789,455.666c-9,0-16.3,4.256-16.3,9.507,0,2.349,1.466,4.5,3.888,6.155l3.138-2.273-.853,3.561c.354.164.715.323,1.092.47l4.687-5.468v6.718a27.368,27.368,0,0,0,4.346.345c9,0,16.3-4.257,16.3-9.507S755.79,455.666,746.789,455.666Z" transform="translate(-484.035 -326.437)" fill="#2f2e41"/>
      <circle id="Ellipse_29" data-name="Ellipse 29" cx="7.606" cy="7.606" r="7.606" transform="translate(288.533 117.044)" fill="#2f2e41"/>
      <path id="Path_568" data-name="Path 568" d="M833.021,424.213a7.605,7.605,0,0,1,6.79-7.561,7.713,7.713,0,0,0-.814-.045,7.606,7.606,0,1,0,.815,15.166A7.605,7.605,0,0,1,833.021,424.213Z" transform="translate(-545.031 -302.823)" fill="#2f2e41"/>
      <path id="Path_569" data-name="Path 569" d="M836.8,444.085s-1.181,5.433,6.2,7.606Z" transform="translate(-548.264 -319.435)" fill="#c4ffbd"/>
      <ellipse id="Ellipse_30" data-name="Ellipse 30" cx="1.32" cy="2.97" rx="1.32" ry="2.97" transform="translate(278.11 144.735)" fill="#ffb8b8"/>
      <path id="Path_570" data-name="Path 570" d="M404.667,500.235l-20.039,4.855-.065.015-2.178,1.972-.627.567-1.344-.244-2.379-.43,1.658-5.6L380,490.7l-1.14-6.529,6.321-4.352S397.517,479.1,404.667,500.235Z" transform="translate(-270.945 -341.039)" fill="#d0cde1"/>
      <path id="Path_571" data-name="Path 571" d="M384.629,505.1c-.271.579.3.2-.013.793l-2.9.933-1.3.586-2.379-.43,1.658-5.6L380,490.706l-1.14-6.528,6.321-4.352S391.97,489.434,384.629,505.1Z" transform="translate(-270.945 -341.043)" opacity="0.1"/>
      <path id="Path_572" data-name="Path 572" d="M433.651,492.667s-26.322,12.228-37,14.093-9.741,12.539-9.741,12.539l59.793-9.327S444.635,500.336,433.651,492.667Z" transform="translate(-276.301 -348.807)" fill="#d0cde1"/>
      <path id="Path_573" data-name="Path 573" d="M375.933,486.542a36.787,36.787,0,0,1-.518,24.871l5.907,2.694,2.28-2.694.052-.259-6.27-.57s5.181-13.886.933-23.524C378.316,487.06,377.384,484.988,375.933,486.542Z" transform="translate(-269.361 -344.755)" fill="#c4ffbd"/>
      <path id="Path_574" data-name="Path 574" d="M462.8,589.436c-23.316-5.182-45.026,5.544-45.026,5.544l-.059-.053-8.646-7.719-33.783-55.13,8.238.052c22.9-13.679,55.13-11.814,55.13-11.814C452.538,536.068,462.8,589.436,462.8,589.436Z" transform="translate(-269.281 -365.471)" fill="#3f3d56"/>
      <path id="Path_575" data-name="Path 575" d="M417.712,613.041l-8.646-7.719-33.783-55.13,8.238.052S416.357,593.611,417.712,613.041Z" transform="translate(-269.282 -383.586)" opacity="0.1"/>
      <ellipse id="Ellipse_31" data-name="Ellipse 31" cx="13.368" cy="8.497" rx="13.368" ry="8.497" transform="translate(134.461 174.112) rotate(-17.052)" fill="#d0cde1"/>
      <circle id="Ellipse_32" data-name="Ellipse 32" cx="7.513" cy="7.513" r="7.513" transform="translate(3.477 102.077)" fill="#3f3d56"/>
      <circle id="Ellipse_33" data-name="Ellipse 33" cx="7.513" cy="7.513" r="7.513" transform="translate(370.423 246.404)" fill="#3f3d56"/>
      <circle id="Ellipse_34" data-name="Ellipse 34" cx="5.931" cy="5.931" r="5.931" transform="translate(37.878 104.45)" fill="#c4ffbd"/>
      <circle id="Ellipse_35" data-name="Ellipse 35" cx="5.931" cy="5.931" r="5.931" transform="translate(372.004 104.45)" fill="#c4ffbd"/>
      <circle id="Ellipse_36" data-name="Ellipse 36" cx="5.931" cy="5.931" r="5.931" transform="translate(5.059 247.195)" fill="#c4ffbd"/>
    </g>
    <g id="Icon_feather-repeat" data-name="Icon feather-repeat" transform="translate(12760.442 5455.971)">
      <path id="Path_701" data-name="Path 701" d="M25.5,1.5,37.212,13.212,25.5,24.925" transform="translate(15.493 -1.5)" fill="none" stroke="#c4ffbd" stroke-linecap="round" stroke-linejoin="round" stroke-width="3"/>
      <path id="Path_702" data-name="Path 702" d="M4.5,25.069V19.212A11.712,11.712,0,0,1,16.212,7.5H57.206" transform="translate(-4.5 4.212)" fill="none" stroke="#c4ffbd" stroke-linecap="round" stroke-linejoin="round" stroke-width="3"/>
      <path id="Path_703" data-name="Path 703" d="M16.212,45.925,4.5,34.212,16.212,22.5" transform="translate(-4.5 18.493)" fill="none" stroke="#c4ffbd" stroke-linecap="round" stroke-linejoin="round" stroke-width="3"/>
      <path id="Path_704" data-name="Path 704" d="M57.206,19.5v5.856A11.712,11.712,0,0,1,45.493,37.069H4.5" transform="translate(-4.5 15.637)" fill="none" stroke="#c4ffbd" stroke-linecap="round" stroke-linejoin="round" stroke-width="3"/>
    </g>
  </g>
</svg>
