<svg xmlns="http://www.w3.org/2000/svg" width="423.01" height="373.771" viewBox="0 0 423.01 373.771">
  <g id="order" transform="translate(-73.939 -77.537)">
    <g id="Group_460" data-name="Group 460" transform="translate(169.949 77.537)">
      <rect id="Rectangle_276" data-name="Rectangle 276" width="238.309" height="1.41" transform="translate(0 78.208)" fill="#d0cde1"/>
      <rect id="Rectangle_277" data-name="Rectangle 277" width="238.309" height="1.41" transform="translate(0 164.224)" fill="#d0cde1"/>
      <path id="Path_297" data-name="Path 297" d="M377.4,373.78h0l-4.2-13.065-.808.716a22.137,22.137,0,0,1-17.583,5.654l-1.074-.111,4.2,13.065h0l2.884,8.968h0l9.7,30.174h0l2.884,8.967h0l3.185,9.9.785-.558a30.2,30.2,0,0,1,17.717-5.7l.963,0-3.185-9.9h0l-2.884-8.968h0l-9.7-30.174h0Zm-21.67-5.2a23.291,23.291,0,0,0,16.78-5.4l3.547,11.031-16.78,5.4Zm3.979,12.373,16.78-5.4,2.021,6.282-16.78,5.4Zm34.419,49.454a31.47,31.47,0,0,0-16.78,5.4l-2.6-8.084,16.78-5.4Zm-3.031-9.426-16.78,5.4-2.021-6.283,16.78-5.4Zm-2.452-7.625-16.78,5.4-9.7-30.174,16.78-5.4Z" transform="translate(-268.095 -274.698)" fill="#d0cde1"/>
      <path id="Path_298" data-name="Path 298" d="M259.4,251.78h0l-4.2-13.065-.808.716a22.137,22.137,0,0,1-17.583,5.654l-1.074-.111,4.2,13.065h0l2.884,8.968h0l9.7,30.174h0l2.884,8.968h0l3.185,9.9.785-.558a30.2,30.2,0,0,1,17.717-5.7l.963,0-3.185-9.9h0l-2.884-8.968h0l-9.7-30.174h0Zm-21.67-5.2a23.283,23.283,0,0,0,16.78-5.4l3.547,11.031-16.78,5.4Zm3.979,12.373,16.78-5.4,2.02,6.282-16.78,5.4Zm34.419,49.454a31.474,31.474,0,0,0-16.78,5.4l-2.6-8.083,16.78-5.4Zm-3.031-9.426-16.78,5.4-2.021-6.283,16.78-5.4Zm-2.452-7.625-16.78,5.4-9.7-30.174,16.78-5.4Z" transform="translate(-233.291 -238.715)" fill="#d0cde1"/>
      <path id="Path_320" data-name="Path 320" d="M340.307,384.139v2.416H322.681v-2.416h-1.41v47.944h1.41v-1.469h17.626v1.469h1.41V384.139Zm0,38.263H322.681V394.766h17.626Z" transform="translate(-258.521 -281.607)" fill="#c4ffbd"/>
      <path id="Path_321" data-name="Path 321" d="M301.307,391.139v2.167H283.681v-2.167h-1.41v43.008h1.41V432.83h17.626v1.318h1.41V391.139Zm0,34.324H283.681v-24.79h17.626Z" transform="translate(-247.018 -283.672)" fill="#c4ffbd"/>
      <path id="Path_322" data-name="Path 322" d="M262.307,384.139v2.274H244.681v-2.274h-1.41v45.124h1.41V427.88h17.626v1.383h1.41V384.139Zm0,36.012H244.681V394.142h17.626Z" transform="translate(-235.515 -281.607)" fill="#c4ffbd"/>
      <path id="Path_323" data-name="Path 323" d="M546.307,264.139v2.416H528.681v-2.416h-1.41v47.944h1.41v-1.469h17.626v1.469h1.41V264.139Zm0,38.263H528.681V274.766h17.626Z" transform="translate(-319.279 -246.214)" fill="#c4ffbd"/>
      <path id="Path_324" data-name="Path 324" d="M507.307,271.139v2.167H489.681v-2.167h-1.41v43.008h1.41V312.83h17.626v1.318h1.41V271.139Zm0,34.324H489.681v-24.79h17.626Z" transform="translate(-307.777 -248.278)" fill="#c4ffbd"/>
      <path id="Path_325" data-name="Path 325" d="M468.307,264.139v2.274H450.681v-2.274h-1.41v45.124h1.41V307.88h17.626v1.383h1.41V264.139Zm0,36.012H450.681V274.142h17.626Z" transform="translate(-296.274 -246.214)" fill="#c4ffbd"/>
      <path id="Path_326" data-name="Path 326" d="M340.731,365.039a22.126,22.126,0,0,1-18.472,0l-.987-.43v74.665l.917-.3a30.2,30.2,0,0,1,18.613,0l.917.3V364.609Zm-18.049,54.409v-31.7h17.626v31.7Zm17.626,1.41v6.6H322.681v-6.6Zm-17.626-34.519v-6.6h17.626v6.6Zm17.626,51.018a31.572,31.572,0,0,0-17.626,0v-8.489h17.626Zm0-59.027H322.681V366.745a23.324,23.324,0,0,0,17.626,0Z" transform="translate(-258.521 -275.847)" fill="#d0cde1"/>
      <path id="Path_327" data-name="Path 327" d="M301.8,438.98l.918.291V364.608l-.989.434a22.132,22.132,0,0,1-18.469,0l-.989-.434v74.663l.918-.291A30.192,30.192,0,0,1,301.8,438.98Zm-.492-11.523H283.68v-6.6h17.626Zm0-41.116H283.68v-6.6h17.626Zm-17.626-19.6a23.308,23.308,0,0,0,17.626,0v11.587H283.68Zm0,21.006h17.626v31.7H283.68Zm0,41.116h17.626v8.491a31.469,31.469,0,0,0-17.626,0Z" transform="translate(-247.018 -275.847)" fill="#d0cde1"/>
      <path id="Path_328" data-name="Path 328" d="M262.8,438.98l.918.291V364.608l-.989.434a22.132,22.132,0,0,1-18.469,0l-.989-.434v74.663l.918-.291A30.192,30.192,0,0,1,262.8,438.98Zm-.492-11.523H244.68v-6.6h17.626Zm0-41.116H244.68v-6.6h17.626Zm-17.626-19.6a23.308,23.308,0,0,0,17.626,0v11.587H244.68Zm0,21.006h17.626v31.7H244.68Zm0,41.116h17.626v8.491a31.469,31.469,0,0,0-17.626,0Z" transform="translate(-235.515 -275.847)" fill="#d0cde1"/>
      <path id="Path_329" data-name="Path 329" d="M468.8,316.98l.918.291V242.608l-.989.434a22.132,22.132,0,0,1-18.469,0l-.989-.434v74.663l.918-.291a30.2,30.2,0,0,1,18.61,0Zm-.492-11.523H450.68v-6.6h17.626Zm0-41.116H450.68v-6.6h17.626Zm-17.626-19.6a23.308,23.308,0,0,0,17.626,0v11.587H450.68Zm0,21.006h17.626v31.7H450.68Zm0,41.116h17.626v8.491a31.476,31.476,0,0,0-17.626,0Z" transform="translate(-296.273 -239.863)" fill="#d0cde1"/>
      <path id="Path_330" data-name="Path 330" d="M507.8,316.98l.918.291V242.608l-.989.434a22.132,22.132,0,0,1-18.469,0l-.989-.434v74.663l.918-.291A30.2,30.2,0,0,1,507.8,316.98Zm-.492-11.523H489.68v-6.6h17.626Zm0-41.116H489.68v-6.6h17.626Zm-17.626-19.6a23.308,23.308,0,0,0,17.626,0v11.587H489.68Zm0,21.006h17.626v31.7H489.68Zm0,41.116h17.626v8.491a31.477,31.477,0,0,0-17.626,0Z" transform="translate(-307.776 -239.863)" fill="#d0cde1"/>
      <path id="Path_331" data-name="Path 331" d="M546.8,316.98l.918.291V242.608l-.989.434a22.132,22.132,0,0,1-18.469,0l-.989-.434v74.663l.918-.291a30.2,30.2,0,0,1,18.61,0Zm-.492-11.523H528.681v-6.6h17.626Zm0-41.116H528.681v-6.6h17.626Zm-17.626-19.6a23.308,23.308,0,0,0,17.626,0v11.587H528.681Zm0,21.006h17.626v31.7H528.681Zm0,49.607v-8.491h17.626v8.491a31.477,31.477,0,0,0-17.626,0Z" transform="translate(-319.279 -239.863)" fill="#d0cde1"/>
    </g>
    <path id="Path_280" data-name="Path 280" d="M302.688,736.472c4.295,15.876,19.005,25.708,19.005,25.708s7.747-15.908,3.453-31.784-19.005-25.709-19.005-25.709S298.393,720.6,302.688,736.472Z" transform="translate(-205.607 -327.253)" fill="#3f3d56"/>
    <path id="Path_281" data-name="Path 281" d="M296.733,742.008c11.785,11.472,13.224,29.108,13.224,29.108s-17.668-.965-29.453-12.437-13.224-29.108-13.224-29.108S284.948,730.535,296.733,742.008Z" transform="translate(-193.341 -336.2)" fill="#c4ffbd"/>
    <rect id="Rectangle_273" data-name="Rectangle 273" width="414.985" height="1.281" transform="translate(81.963 450.027)" fill="#2f2e41"/>
    <path id="Path_282" data-name="Path 282" d="M332.826,809.692H316.175V793.041h16.651Zm-15.37-1.281h14.089V794.322H317.456Z" transform="translate(-210.923 -359.024)" fill="#3f3d56"/>
    <g id="Group_492" data-name="Group 492" transform="translate(10.297 99.684)">
      <rect id="Rectangle_272" data-name="Rectangle 272" width="37.253" height="47.187" transform="translate(262.301 39.124)" fill="#2f2e41"/>
      <path id="Path_266" data-name="Path 266" d="M624.7,174.874c-3.336,9.876-8.45,18.875-18.875,18.875s-18.287-8.467-18.875-18.875c-.75-13.3,8.21-18.93,18.875-18.875C618.428,156.065,628.663,163.154,624.7,174.874Z" transform="translate(-324.655 -134.261)" fill="#2f2e41"/>
      <path id="Path_267" data-name="Path 267" d="M625.053,223.541s-2.98,17.881-1.49,18.378-16.888,2.483-16.888,2.483,5.464-13.411,3.974-15.894S625.053,223.541,625.053,223.541Z" transform="translate(-334.602 -168.254)" fill="#ffb8b8"/>
      <path id="Path_268" data-name="Path 268" d="M625.053,223.541s-2.98,17.881-1.49,18.378-16.888,2.483-16.888,2.483,5.464-13.411,3.974-15.894S625.053,223.541,625.053,223.541Z" transform="translate(-334.602 -168.254)" opacity="0.1"/>
      <path id="Path_269" data-name="Path 269" d="M703.588,304.593l8.207,6.514s-6.783-34.364-6.973-36.889-6.57-19.825-13.4-17.162,4.848,21.615,4.848,21.615l7.632,27.462Z" transform="translate(-376.174 -184.982)" fill="#ffb8b8"/>
      <circle id="Ellipse_9" data-name="Ellipse 9" cx="14.404" cy="14.404" r="14.404" transform="translate(265.616 35.915)" fill="#ffb8b8"/>
      <path id="Path_270" data-name="Path 270" d="M591.47,252.521l-6.457-2.98S581.536,256,579.55,256s-18.875,3.477-18.875,6.954,4.967,28.312,4.967,28.312,9.934,23.842,10.431,23.842,35.763-4.47,35.763-4.47l1.987-5.464,2.98-32.286s-11.921-7.947-11.921-10.431-.994-10.927-2.98-10.927-5.464,2.98-5.464,2.98Z" transform="translate(-311.45 -181.34)" fill="#d0cde1"/>
      <path id="Path_271" data-name="Path 271" d="M663.165,298.528l4.47-1.987s3.477,6.457,4.47,6.954a6.825,6.825,0,0,1,2.484,3.974c0,.993,2.98,8.941,5.464,9.437s6.457,2.484,5.961,3.974a3.439,3.439,0,0,0,0,2.484L688,320.879l10.431,7.947s5.464,16.888-2.484,16.391-14.9-4.47-18.378-6.457-3.477-.993-5.464-3.974-10.43-8.444-10.43-8.444Z" transform="translate(-362.283 -204.995)" fill="#d0cde1"/>
      <path id="Path_272" data-name="Path 272" d="M540.048,366.676l-3.974,1.987.993,7.45s-55.134,195.2-47.186,196.694,30.3,5.464,42.22,8.444,28.809,3.477,28.809,0S565.876,454.1,565.876,454.1s1.49,131.129,5.96,131.129,41.226,7.947,43.71,0-11.921-186.759-29.8-207.621c0,0-8.941-11.424-8.444-12.914a5.484,5.484,0,0,0-.5-3.477s.5-.993-4.967.5-7.947,1.49-9.437.993-3.974-2.484-5.464-.993-5.96,3.974-7.947,3.477-2.98-3.477-4.967-1.49A17.154,17.154,0,0,1,540.048,366.676Z" transform="translate(-275.425 -237.381)" fill="#2f2e41"/>
      <g id="Group_459" data-name="Group 459" transform="translate(256.738 122.277)">
        <path id="Path_302" data-name="Path 302" d="M673.717,364.153l-17.529,21.269,25.943,30.618,17.3-20.334Z" transform="translate(-656.071 -364.153)" fill="#c4ffbd"/>
        <path id="Path_303" data-name="Path 303" d="M673.717,364.153l-17.529,21.269,25.943,30.618,17.3-20.334Z" transform="translate(-656.071 -364.153)" opacity="0.1"/>
        <path id="Path_304" data-name="Path 304" d="M839.957,501.323h0a8.815,8.815,0,0,1,1.429-1.908l16.1-16.322s5.609-.935,6.778,1.87L843.7,501.79Z" transform="translate(-839.138 -479.82)" fill="#f2f2f2"/>
        <path id="Path_305" data-name="Path 305" d="M838.476,500.526l23.84,36.461a5.462,5.462,0,0,0,4.675.7l24.424-16.478-25.944-39.266L842.1,500.175Z" transform="translate(-838.476 -479.374)" fill="#c4ffbd"/>
        <rect id="Rectangle_279" data-name="Rectangle 279" width="19.326" height="7.166" transform="matrix(0.83, -0.558, 0.558, 0.83, 14.15, 27.889)" fill="#3f3d56"/>
      </g>
      <path id="Path_273" data-name="Path 273" d="M495.333,784.541s-2.98,15.895,0,16.391,17.881,1.49,18.378.5-3.477-14.9-4.967-15.894S495.333,784.541,495.333,784.541Z" transform="translate(-277.897 -450.605)" fill="#2f2e41"/>
      <path id="Path_274" data-name="Path 274" d="M685.01,788.541s2.98,13.908,0,14.4-17.881,1.49-18.378.5,3.477-12.914,4.967-13.908S685.01,788.541,685.01,788.541Z" transform="translate(-364.757 -452.619)" fill="#2f2e41"/>
      <path id="Path_275" data-name="Path 275" d="M503.175,352.008s20.365,5.464,25.332,6.457,10.431,5.96,10.927,7.947,4.967,10.927,8.444,8.941,0-18.875-2.484-19.371-32.782-8.941-32.782-8.941Z" transform="translate(-282.51 -230.412)" fill="#ffb8b8"/>
      <path id="Path_276" data-name="Path 276" d="M522.7,274.541H517.24l-31.789,23.842s-7.451,1.987-6.954,3.477-7.45,10.431-2.483,12.418,8.941,2.483,10.927,3.974,14.4-6.954,14.4-6.954l-1.987-1.49s22.848-7.947,24.835-6.954S522.7,274.541,522.7,274.541Z" transform="translate(-268.015 -193.923)" fill="#d0cde1"/>
      <path id="Path_277" data-name="Path 277" d="M439,176.565l11.921,7.451-.993,26.822,3.477-6.457,1.987,6.457V184.016h8.444l-.5-4.47-9.934,1.49-12.914-6.954Z" transform="translate(-169.658 -103.646)" fill="#c4ffbd"/>
      <path id="Path_278" data-name="Path 278" d="M588.329,172.558s-.164-.912-6.568,1.49-10.244,20.125-7.041,30.532c1.291,4.194.241,7.218-1.473,9.334-6.43,7.94-3.9,19.865,5.467,23.948q.4.173.809.342l4,2.4a18.306,18.306,0,0,1-2.549-15.3,44.035,44.035,0,0,0,.795-22.543c-.293-1.258-.626-2.554-1-3.877-3.2-11.208-1.645-9.914,9.563-21.121a71.237,71.237,0,0,0,12.008,7.205c5.6,2.4,10.407,4.8,6.4,12.809s-13.609,15.211-7.205,25.618,7.205,6.4,6.4,10.407h0l-.8,4,4.8-4.8-3.2,6.4s10.407,0,13.609-8.006l1.6,1.6s6.4-11.208-5.6-21.615c0,0-4-2.4,1.6-10.407s1.3-25.218-5.905-28.42S588.329,172.558,588.329,172.558Z" transform="translate(-315.983 -141.878)" fill="#2f2e41"/>
      <circle id="Ellipse_10" data-name="Ellipse 10" cx="7.451" cy="7.451" r="7.451" transform="translate(273.725 10.812)" fill="#2f2e41"/>
      <path id="Path_279" data-name="Path 279" d="M605.49,133.45a7.451,7.451,0,0,1,6.7-7.413c-.245-.024-.493-.038-.745-.038a7.451,7.451,0,0,0,0,14.9c.252,0,.5-.013.745-.038a7.451,7.451,0,0,1-6.705-7.413Z" transform="translate(-333.256 -119.162)" fill="#2f2e41"/>
      <ellipse id="Ellipse_11" data-name="Ellipse 11" cx="0.993" cy="1.987" rx="0.993" ry="1.987" transform="translate(293.593 46.574)" fill="#ffb8b8"/>
      <circle id="Ellipse_12" data-name="Ellipse 12" cx="4.077" cy="4.077" r="4.077" transform="translate(205.652 214.446)" fill="#c4ffbd"/>
      <path id="Path_293" data-name="Path 293" d="M576.876,183.091H547.147l29.239-16.274.483.868L550.974,182.1h25.9Z" transform="translate(-224.089 -99.99)"/>
      <circle id="Ellipse_14" data-name="Ellipse 14" cx="4.077" cy="4.077" r="4.077" transform="translate(320.887 78.35)" fill="#c4ffbd"/>
    </g>
  </g>
</svg>
