<svg xmlns="http://www.w3.org/2000/svg" width="12.25" height="12.25" viewBox="0 0 12.25 12.25">
  <path id="Icon_awesome-check-square" data-name="Icon awesome-check-square" d="M10.938,13.125H1.313A1.312,1.312,0,0,1,0,11.813V2.188A1.312,1.312,0,0,1,1.313.875h9.625A1.312,1.312,0,0,1,12.25,2.188v9.625A1.312,1.312,0,0,1,10.938,13.125Zm-5.6-2.681,5.031-5.031a.438.438,0,0,0,0-.619l-.619-.619a.438.438,0,0,0-.619,0l-4.1,4.1L3.116,6.363a.438.438,0,0,0-.619,0l-.619.619a.438.438,0,0,0,0,.619l2.844,2.844a.437.437,0,0,0,.619,0Z" transform="translate(0 -0.875)" fill="#0a0c1b"/>
</svg>
