<svg xmlns="http://www.w3.org/2000/svg" width="71.636" height="73.334" viewBox="0 0 71.636 73.334">
  <path id="Icon_metro-steps" data-name="Icon metro-steps" d="M27.671,68.552c-5.028,0-9.1-6.714-9.1-15,0-4.608,1.139-9.5,2.276-17.04.89-5.911,3.057-10.809,6.828-10.809s6.3,3.266,6.3,9.236c0,2.033-1.672,5.272-1.746,8.035-.135,4.985,3.343,6.974,3.343,11.582C35.566,62.843,32.7,68.552,27.671,68.552ZM52.238,51.414c-5.028,0-7.895-5.71-7.895-13.992,0-4.608,3.478-6.6,3.343-11.582-.074-2.764-1.746-6-1.746-8.035,0-5.97,2.527-9.236,6.3-9.236s5.938,4.9,6.828,10.809c1.137,7.545,2.276,12.432,2.276,17.04,0,8.282-4.076,15-9.1,15Z" transform="matrix(0.755, -0.656, 0.656, 0.755, -19.634, 33.777)" fill="#fe9f9d"/>
</svg>
