<svg xmlns="http://www.w3.org/2000/svg" width="521.717" height="526.504" viewBox="0 0 521.717 526.504">
  <g id="Group_571" data-name="Group 571" transform="translate(-18879.999 -1482.496)">
    <g id="undraw_programming_2svr" transform="translate(18879.988 1482.461)">
      <path id="Path_804" data-name="Path 804" d="M561.081,392.486q-.872,1.879-1.739,3.708-1.353,2.841-2.671,5.572c-.391.807-.782,1.6-1.162,2.39-4.309,8.8-8.332,16.589-11.749,22.993a36.681,36.681,0,0,1-31.971,19.39l-75.982.827h-.8l-6.513.07-5.572.06-17.085.185h-.691l-8.7.1h-.266l-53.611.581-47.854.5-5.566.06-34.572.376h-.04l-22.421.241h-.241l-70.9.767-21.209.23a44.125,44.125,0,0,1-13.363-1.914,43.284,43.284,0,0,1-19.586-12.4,100.177,100.177,0,0,1-20.207-34.451q-.967-2.751-1.8-5.572c-15.437-52.183,3.382-119.507,37.252-164.56q2.129-2.826,4.329-5.511l.035-.04c10.417-12.786,22.1-23.469,34.536-31.064,22.046-13.483,46.471-17.281,70.5-5.962a157.7,157.7,0,0,0,57.7,15.307c1.859.12,3.718.21,5.566.266,42.2,1.328,81.754-13.879,128.2-23.694,1.849-.391,3.7-.777,5.572-1.142,33.134-6.594,69.889-10.071,113.6-2.761a94.743,94.743,0,0,1,13.408,3.207q2.891.932,5.571,2c20.863,8.488,32.242,24.17,37.077,43.821q.686,2.736,1.187,5.567C607.918,278.9,582.811,345.945,561.081,392.486Z" transform="translate(-79.34 -172.91)" fill="#fe9f9d" opacity="0.1"/>
      <g id="Group_568" data-name="Group 568" transform="translate(5.472 6.867)" opacity="0.1">
        <path id="Path_805" data-name="Path 805" d="M207.811,217V472.338l-21.209.231a44.128,44.128,0,0,1-13.363-1.914V248.064h.035C183.692,235.263,195.371,224.581,207.811,217Z" transform="translate(-131.659 -201.758)" fill="#fe9f9d"/>
        <path id="Path_806" data-name="Path 806" d="M641.907,284.551H164.6q2.129-2.826,4.329-5.511V279H640.719Q641.406,281.721,641.907,284.551Z" transform="translate(-127.348 -232.694)" fill="#fe9f9d"/>
        <path id="Path_807" data-name="Path 807" d="M1035.271,189.494V403.437h-1.739q-1.353,2.841-2.671,5.572c-.391.807-.781,1.6-1.162,2.39V187.47Q1032.591,188.4,1035.271,189.494Z" transform="translate(-559.002 -187.024)" fill="#fe9f9d"/>
        <path id="Path_808" data-name="Path 808" d="M770.661,186.58V454.258l-5.571.06v-266.6C766.939,187.332,768.793,186.946,770.661,186.58Z" transform="translate(-426.971 -186.58)" fill="#fe9f9d"/>
        <path id="Path_809" data-name="Path 809" d="M503.677,235.886v244.3l-5.567.06V235.62C499.969,235.74,501.828,235.81,503.677,235.886Z" transform="translate(-293.757 -211.049)" fill="#fe9f9d"/>
        <path id="Path_810" data-name="Path 810" d="M564.781,618.52q-1.353,2.841-2.67,5.572H92.054q-.967-2.751-1.8-5.572Z" transform="translate(-90.25 -402.102)" fill="#fe9f9d"/>
      </g>
      <rect id="Rectangle_357" data-name="Rectangle 357" width="9.52" height="28.89" transform="translate(106.025 133.208)" fill="#3f3d56"/>
      <rect id="Rectangle_358" data-name="Rectangle 358" width="9.52" height="30.563" transform="translate(362.219 131.705)" fill="#3f3d56"/>
      <path id="Path_811" data-name="Path 811" d="M485.384,519.43v6.513l-76.117.7-.812.015-28.93.266-.691.01-8.793.075h-.261l-53.6.5-87.987.817h-.075l-22.371.21-.24.005-99.406.912v-7.516l23.373-14.029,46.9-.391,1-.005.331-.005,1-.015,22.517-.185,1.007-.005.321-.005,1-.005,7.22-.06.19-.005,17.812-.15h.145L367.906,505.9l3.4-.025h.341l2.6-.025,18.864-.155,1-.015.927-.01h.481l5.867-.045,1.162-.015,1.558-.01,4.885-.045,7.751-.065,1-.01,1.744-.01h.326l37.432-.321Z" transform="translate(-52.935 -252.034)" fill="#65617d"/>
      <path id="Path_812" data-name="Path 812" d="M485.384,519.43v6.513l-76.117.7-.812.015-28.93.266-.691.01-8.793.075h-.261l-53.6.5-87.987.817h-.075l-22.371.21-.24.005-99.406.912v-7.516l23.373-14.029,46.9-.391,1-.005.331-.005,1-.015,22.517-.185,1.007-.005.321-.005,1-.005,7.22-.06.19-.005,17.812-.15h.145L367.906,505.9l3.4-.025h.341l2.6-.025,18.864-.155,1-.015.927-.01h.481l5.867-.045,1.162-.015,1.558-.01,4.885-.045,7.751-.065,1-.01,1.744-.01h.326l37.432-.321Z" transform="translate(-52.935 -252.034)" opacity="0.2"/>
      <path id="Path_813" data-name="Path 813" d="M351.9,656.57v12.27a3.071,3.071,0,0,1-1.754,2.776,3.006,3.006,0,0,1-1.253.3l-17.486.371a3.006,3.006,0,0,1-1.353-.286,3.066,3.066,0,0,1-1.789-2.791V656.57Z" transform="translate(-203.542 -414.221)" fill="#3f3d56"/>
      <path id="Path_814" data-name="Path 814" d="M351.9,656.57v12.27a3.071,3.071,0,0,1-1.754,2.776,3.006,3.006,0,0,1-1.253.3l-17.486.371a3.006,3.006,0,0,1-1.353-.286,3.066,3.066,0,0,1-1.789-2.791V656.57Z" transform="translate(-203.542 -414.221)" opacity="0.1"/>
      <path id="Path_815" data-name="Path 815" d="M353.9,656.57v12.27a3.071,3.071,0,0,1-1.754,2.776,3.006,3.006,0,0,1-1.253.3l-17.486.371a3.006,3.006,0,0,1-1.353-.286,3.066,3.066,0,0,1-1.789-2.791V656.57Z" transform="translate(-204.54 -414.221)" fill="#3f3d56"/>
      <rect id="Rectangle_359" data-name="Rectangle 359" width="23.634" height="15.783" transform="translate(341.176 242.349)" fill="#3f3d56"/>
      <rect id="Rectangle_360" data-name="Rectangle 360" width="23.634" height="15.783" transform="translate(341.176 242.349)" opacity="0.1"/>
      <rect id="Rectangle_361" data-name="Rectangle 361" width="23.634" height="15.783" transform="translate(340.174 242.349)" fill="#3f3d56"/>
      <path id="Path_816" data-name="Path 816" d="M221.12,265.82v2.871l-9.52-.246V265.82Z" transform="translate(-105.575 -132.617)" opacity="0.1"/>
      <path id="Path_817" data-name="Path 817" d="M326.391,268.673l-11.439,82.17a2.155,2.155,0,0,1-2.19,1.859l-91.589-2.375-1.739-.045a2.154,2.154,0,0,1-2.084-2.44l12.842-86.018a2.154,2.154,0,0,1,2.275-1.819l91.92,6.223a2.149,2.149,0,0,1,2,2.445Z" transform="translate(-148.188 -216.347)" fill="#65617d"/>
      <path id="Path_818" data-name="Path 818" d="M166.285,99.16,156.6,174.982l84.174,2.671L251.125,104.5Z" transform="translate(-78.132 -49.46)" fill="#fe9f9d"/>
      <rect id="Rectangle_362" data-name="Rectangle 362" width="102.547" height="86.845" rx="5.33" transform="translate(192.704 48.528)" fill="#65617d"/>
      <rect id="Rectangle_363" data-name="Rectangle 363" width="93.193" height="72.315" transform="translate(197.544 54.375)" fill="#fe9f9d"/>
      <path id="Path_819" data-name="Path 819" d="M732.45,262.82v1.9l-9.52.2V262.82Z" transform="translate(-360.711 -131.12)" opacity="0.1"/>
      <path id="Path_820" data-name="Path 820" d="M802.5,344.895a1.543,1.543,0,0,1-1.5,1.643L707.2,348.477a1.543,1.543,0,0,1-1.568-1.4l-8.062-83.813a1.543,1.543,0,0,1,1.463-1.688l93.083-4.63,1-.05a1.538,1.538,0,0,1,1.613,1.4Z" transform="translate(-387.807 -214.798)" fill="#65617d"/>
      <path id="Path_821" data-name="Path 821" d="M628.93,99l85.011-4.179,7.18,76.158-84.339,2Z" transform="translate(-313.808 -47.294)" fill="#fe9f9d"/>
      <path id="Path_822" data-name="Path 822" d="M896.661,344.895a1.543,1.543,0,0,1-1.5,1.643l-8.878-89.59,1-.05a1.538,1.538,0,0,1,1.613,1.4Z" transform="translate(-481.969 -214.798)" opacity="0.1"/>
      <path id="Path_823" data-name="Path 823" d="M232.482,259.994l-11.308,90.327-1.739-.045a2.154,2.154,0,0,1-2.084-2.44l12.842-86.018A2.155,2.155,0,0,1,232.482,259.994Z" transform="translate(-148.188 -216.341)" opacity="0.1"/>
      <rect id="Rectangle_364" data-name="Rectangle 364" width="9.52" height="8.558" transform="translate(106.025 153.54)" opacity="0.1"/>
      <path id="Path_824" data-name="Path 824" d="M274.564,483.65v2.49l-23.634.631V483.65Z" transform="translate(-125.2 -241.306)" opacity="0.1"/>
      <path id="Path_825" data-name="Path 825" d="M361.147,483.3v84.274a2,2,0,0,1-1.929,1.979l-96.024,2.555h-.025a2,2,0,0,1-1.979-1.979V483.3a2,2,0,0,1,1.979-1.979h96a2,2,0,0,1,1.979,1.979Z" transform="translate(-170.071 -326.778)" fill="#65617d"/>
      <path id="Path_826" data-name="Path 826" d="M263.194,481.32v90.788h-.025a2,2,0,0,1-1.979-1.979V483.3a2,2,0,0,1,1.979-1.979Z" transform="translate(-170.071 -326.778)" opacity="0.1"/>
      <path id="Path_827" data-name="Path 827" d="M194.6,319.15h88.934v74.279l-88.934,2Z" transform="translate(-97.093 -159.227)" fill="#d4dfec"/>
      <rect id="Rectangle_365" data-name="Rectangle 365" width="9.52" height="8.728" transform="translate(362.219 153.54)" opacity="0.1"/>
      <path id="Path_828" data-name="Path 828" d="M702.564,483.65v3.212l-23.634-.631v-2.58Z" transform="translate(-338.756 -241.306)" opacity="0.1"/>
      <path id="Path_829" data-name="Path 829" d="M768.127,483.3v86.83a2,2,0,0,1-2,1.979h0l-96.044-2.555a2,2,0,0,1-1.929-1.979V483.3a2,2,0,0,1,1.979-1.979h96A2,2,0,0,1,768.127,483.3Z" transform="translate(-373.13 -326.778)" fill="#65617d"/>
      <path id="Path_830" data-name="Path 830" d="M865.694,483.3v86.83a2,2,0,0,1-2,1.979h0V481.32h0a2,2,0,0,1,2,1.979Z" transform="translate(-470.697 -326.778)" opacity="0.1"/>
      <path id="Path_831" data-name="Path 831" d="M687.034,319.15H598.1v74.279l88.934,2Z" transform="translate(-298.425 -159.227)" fill="#d4dfec"/>
      <path id="Path_832" data-name="Path 832" d="M563.647,483.3v84.274a2,2,0,0,1-1.929,1.979l-96.023,2.555h0a2,2,0,0,1-2-1.979V483.3a2,2,0,0,1,1.979-1.979h96A2,2,0,0,1,563.647,483.3Z" transform="translate(-271.111 -326.778)" fill="#65617d"/>
      <path id="Path_833" data-name="Path 833" d="M397.1,319.15h88.934v74.279l-88.934,2Z" transform="translate(-198.133 -159.227)" fill="#d4dfec"/>
      <path id="Path_834" data-name="Path 834" d="M485.384,533.65v6.513l-76.117.7-.812.015-28.93.266-.691.01-8.793.075h-.261l-53.6.5-87.987.817h-.075l-22.371.21-.24.005-99.406.912v-7.516l101.465-.666h.241l20.537-.14h.1l141.833-.937h.145l.085-.005h.236l2.4-.015h.732l37.322-.25,2.2-.01.491-.005Z" transform="translate(-52.935 -266.255)" opacity="0.1"/>
      <path id="Path_839" data-name="Path 839" d="M445.44,607.57S474,622.351,484.27,620.6Z" transform="translate(-262.005 -389.772)" opacity="0.1"/>
      <path id="Path_840" data-name="Path 840" d="M561.44,595.57s27.807,9.019,37.077,10.271S561.44,595.57,561.44,595.57Z" transform="translate(-319.885 -383.785)" opacity="0.1"/>
      <path id="Path_850" data-name="Path 850" d="M353.9,677.87v1.6a3.071,3.071,0,0,1-1.754,2.776l-20.092.386a3.066,3.066,0,0,1-1.789-2.791v-1.5Z" transform="translate(-204.54 -424.849)" opacity="0.1"/>
      <path id="Path_851" data-name="Path 851" d="M272.529,511.244l-26.179.5V507.4l26.179-.5Z" transform="translate(-122.914 -252.907)" fill="#3f3d56"/>
      <path id="Path_852" data-name="Path 852" d="M272.529,511.244l-26.179.5V507.4l26.179-.5Z" transform="translate(-122.914 -252.907)" opacity="0.1"/>
      <path id="Path_853" data-name="Path 853" d="M274.529,511.244l-26.179.5V507.4l26.179-.5Z" transform="translate(-123.912 -252.907)" fill="#3f3d56"/>
      <path id="Path_863" data-name="Path 863" d="M762.737,656.57s1.588,5.762,0,10.772S762.737,656.57,762.737,656.57Z" transform="translate(-419.973 -414.221)" opacity="0.1"/>
      <path id="Path_864" data-name="Path 864" d="M775.605,668.3s.666,7.315-.837,8.613S775.605,668.3,775.605,668.3Z" transform="translate(-426.077 -420.074)" opacity="0.1"/>
      <line id="Line_37" data-name="Line 37" y1="0.501" x2="50.91" transform="translate(99.707 171.302)" fill="none" stroke="#fe9f9d" stroke-miterlimit="10" stroke-width="2"/>
      <line id="Line_38" data-name="Line 38" y1="0.496" x2="50.91" transform="translate(99.707 177.555)" fill="none" stroke="#fe9f9d" stroke-miterlimit="10" stroke-width="2"/>
      <line id="Line_39" data-name="Line 39" y1="0.501" x2="50.91" transform="translate(99.707 183.802)" fill="none" stroke="#fe9f9d" stroke-miterlimit="10" stroke-width="2"/>
    </g>
    <g id="undraw_modern_professional_yt9h" transform="translate(18910 1481.686)">
      <circle id="Ellipse_179" data-name="Ellipse 179" cx="12.211" cy="12.211" r="12.211" transform="translate(99.306 434.216)" fill="#fe9f9d" opacity="0.4"/>
      <circle id="Ellipse_180" data-name="Ellipse 180" cx="8.566" cy="8.566" r="8.566" transform="translate(80.353 443.693)" fill="#fe9f9d" opacity="0.4"/>
      <path id="Path_867" data-name="Path 867" d="M576.048,315.882s27.007-11.768,39.693.663S581.777,324.884,576.048,315.882Z" transform="translate(-357.347 -164.214)" fill="#3f3d56"/>
      <path id="Path_868" data-name="Path 868" d="M617.49,245.231c-9.076-15.336-27.032-16.05-27.032-16.05s-17.5-2.238-28.721,21.119c-10.462,21.77-24.9,42.789-2.325,47.885l4.078-12.693,2.526,13.637a88.334,88.334,0,0,0,9.66.165c24.177-.781,47.2.228,46.461-8.448C621.151,279.314,626.223,259.986,617.49,245.231Z" transform="translate(-352.154 -149.374)" fill="#2f2e41"/>
      <ellipse id="Ellipse_183" data-name="Ellipse 183" cx="45.831" cy="10.639" rx="45.831" ry="10.639" transform="translate(194.558 308.801)" fill="#3f3d56"/>
      <rect id="Rectangle_367" data-name="Rectangle 367" width="44.315" height="1.636" transform="translate(232.967 453.248) rotate(-4.229)" fill="#2f2e41"/>
      <rect id="Rectangle_368" data-name="Rectangle 368" width="1.636" height="18.68" transform="matrix(0.482, -0.876, 0.876, 0.482, 203.169, 445.78)" fill="#2f2e41"/>
      <rect id="Rectangle_369" data-name="Rectangle 369" width="14.731" height="1.637" transform="translate(235.479 438.518)" fill="#2f2e41"/>
      <path id="Path_869" data-name="Path 869" d="M241.136,608.412,239.5,608.3l12.276-189.869,1.634.111Z" transform="translate(-44.123 -82.27)" fill="#2f2e41"/>
      <path id="Path_870" data-name="Path 870" d="M313.685,609.127l-8.184-186.6,1.635-.08,8.184,186.6Z" transform="translate(-56.109 -83)" fill="#2f2e41"/>
      <rect id="Rectangle_370" data-name="Rectangle 370" width="1.637" height="188.873" transform="matrix(0.997, -0.082, 0.082, 0.997, 272.314, 337.921)" fill="#2f2e41"/>
      <path id="Path_871" data-name="Path 871" d="M642.743,588.5s-11.458,21.278-18.823,21.278-6.547,13.913-4.91,17.186,5.729,10.639-.818,21.278c-2.287,3.716-1.878,7.932-.377,11.844,4.2,10.963,20.561,7.641,20.04-4.088q-.009-.194-.021-.39c-.818-13.094,5.729-33.554,12.276-38.465s12.276-18,12.276-18Z" transform="translate(-364.707 -214.636)" fill="#ffb8b8"/>
      <path id="Path_872" data-name="Path 872" d="M548.19,582.5s11.458,21.278,18.823,21.278,6.547,13.913,4.91,17.186-5.729,10.639.818,21.279c2.287,3.716,1.878,7.932.377,11.844-4.2,10.963-20.561,7.641-20.04-4.088q.009-.194.021-.39c.818-13.094-5.729-33.554-12.276-38.465s-12.276-18-12.276-18Z" transform="translate(-348.721 -213.547)" fill="#ffb8b8"/>
      <path id="Path_873" data-name="Path 873" d="M547.837,452.5l-4.91,10.639s-72.019,23.734-65.472,51.559,38.465,71.2,43.375,69.564,31.1-6.547,31.918-20.46-18.823-38.465-18.823-38.465l27.007-24.552,39.3-.818,33.538,25.37s-35.191,31.1-19.642,43.375,38.465,20.46,41.738,15.55,40.1-77.748,34.373-84.3-63.835-31.1-63.835-31.1l-15.55-22.1L550.292,443.5Z" transform="translate(-339.366 -188.304)" fill="#2f2e41"/>
      <path id="Path_874" data-name="Path 874" d="M580.269,288.128s4.092,27.007-4.092,30.281S592.545,335.6,592.545,335.6h13.913l9-18.823s-8.184-14.731-3.274-28.644S580.269,288.128,580.269,288.128Z" transform="translate(-357.067 -158.966)" fill="#ffb8b8"/>
      <path id="Path_875" data-name="Path 875" d="M580.269,288.128s4.092,27.007-4.092,30.281S592.545,335.6,592.545,335.6h13.913l9-18.823s-8.184-14.731-3.274-28.644S580.269,288.128,580.269,288.128Z" transform="translate(-357.067 -158.966)" opacity="0.1"/>
      <path id="Path_876" data-name="Path 876" d="M572.732,317.5s9,9.821,10.639,11.458,9,10.639,24.552-2.455,17.186,2.455,17.186,2.455v98.208s-13.094-5.729-23.734,0-32.736-1.637-32.736-1.637l-4.092-101.482Z" transform="translate(-355.258 -165.423)" fill="#d0cde1"/>
      <path id="Path_877" data-name="Path 877" d="M570.571,317.177s-7.648-3.274-14.2,0-29.463,19.642-27.826,27.007,22.915,58.925,8.184,83.477-17.186,31.1-17.186,31.1l36.01-18.823s27.826-17.186,25.37-27.826S570.571,317.177,570.571,317.177Z" transform="translate(-347.086 -165.1)" fill="#3f3d56"/>
      <path id="Path_878" data-name="Path 878" d="M619.883,317.5s17.177,1.637,18,3.274,25.78,8.593,24.143,15.959-24.143,73.247-14.322,85.523,26.189,29.462,20.46,31.1-15.55-2.455-25.37,0-32.736-18-30.281-40.1S612.526,323.229,619.883,317.5Z" transform="translate(-363.934 -165.423)" fill="#3f3d56"/>
      <path id="Path_879" data-name="Path 879" d="M571.414,507.592v8.184s-4.092,18.823,9,18,4.91-22.915,4.91-22.915l-.818-7.366Z" transform="translate(-356.395 -199.2)" fill="#ffb8b8"/>
      <path id="Path_880" data-name="Path 880" d="M615.66,509.5s-9,18.823,0,20.46,15.55-10.639,15.55-13.913S615.66,509.5,615.66,509.5Z" transform="translate(-363.813 -200.29)" fill="#ffb8b8"/>
      <path id="Path_881" data-name="Path 881" d="M272.137,608.748l-1.637-.039,4.91-188.232,1.637.039Z" transform="translate(-49.753 -82.641)" fill="#2f2e41"/>
      <ellipse id="Ellipse_184" data-name="Ellipse 184" cx="1.618" cy="3.236" rx="1.618" ry="3.236" transform="translate(262.596 115.214)" fill="#ffb8b8"/>
      <ellipse id="Ellipse_185" data-name="Ellipse 185" cx="1.618" cy="3.236" rx="1.618" ry="3.236" transform="translate(214.05 115.214)" fill="#ffb8b8"/>
      <path id="Path_882" data-name="Path 882" d="M642.01,330.5s20.46,0,19.642,8.184-27.826,148.949-27.826,148.949-11.458-10.639-21.278-8.184Z" transform="translate(-363.975 -167.784)" fill="#3f3d56"/>
      <path id="Path_883" data-name="Path 883" d="M547.008,333.5s-20.46,4.092-20.46,16.368S556.01,479.994,560.1,479.994s19.642-2.455,19.642-6.547S547.008,333.5,547.008,333.5Z" transform="translate(-348.357 -168.329)" fill="#3f3d56"/>
      <path id="Path_884" data-name="Path 884" d="M557.048,363l18.414,72.012S566.869,372,557.048,363Z" transform="translate(-353.896 -173.686)" opacity="0.2"/>
      <path id="Path_885" data-name="Path 885" d="M640.432,350.636l-18.623,94.152S627.761,356.067,640.432,350.636Z" transform="translate(-365.657 -171.44)" opacity="0.2"/>
      <circle id="Ellipse_186" data-name="Ellipse 186" cx="23.734" cy="23.734" r="23.734" transform="translate(215.837 94.789)" fill="#ffb8b8"/>
      <path id="Path_886" data-name="Path 886" d="M309.582,120.936l-17.74-9.292-24.5,3.8-5.068,22.386,12.616-.485,3.525-8.224v8.089l5.822-.224,3.378-13.094,2.112,13.938,20.7-.422Z" transform="translate(-48.259 -26.558)" fill="#2f2e41"/>
      <rect id="Rectangle_371" data-name="Rectangle 371" width="446.621" height="2.158" transform="translate(8 525.156)" fill="#2f2e41"/>
      <path id="Path_887" data-name="Path 887" d="M772.268,745.357l-1.637-.032a379.589,379.589,0,0,1,5.81-54.25c7.078-38.367,18.847-63.565,34.981-74.893l.94,1.339C774.673,643.983,772.287,744.345,772.268,745.357Z" transform="translate(-392.683 -219.663)" fill="#2f2e41"/>
      <path id="Path_888" data-name="Path 888" d="M797.268,761.032,795.631,761c.035-1.813,1.058-44.533,17.876-56.34l.94,1.339C798.307,717.331,797.276,760.6,797.268,761.032Z" transform="translate(-397.222 -235.731)" fill="#2f2e41"/>
      <circle id="Ellipse_187" data-name="Ellipse 187" cx="8.091" cy="8.091" r="8.091" transform="translate(421.178 380.598)" fill="#fe9f9d"/>
      <circle id="Ellipse_188" data-name="Ellipse 188" cx="8.091" cy="8.091" r="8.091" transform="translate(416.863 451.798)" fill="#fe9f9d"/>
      <path id="Path_889" data-name="Path 889" d="M790.559,620.23a36.352,36.352,0,0,1-2.471,18.611,33.13,33.13,0,0,1-5.57-35.576A36.357,36.357,0,0,1,790.559,620.23Z" transform="translate(-394.329 -217.317)" fill="#2f2e41"/>
      <path id="Path_890" data-name="Path 890" d="M821.495,650.542a36.353,36.353,0,0,1-18.757.81A33.13,33.13,0,0,1,836.8,639.669,36.35,36.35,0,0,1,821.495,650.542Z" transform="translate(-398.513 -223.771)" fill="#2f2e41"/>
      <path id="Path_891" data-name="Path 891" d="M823.109,727.466a25.482,25.482,0,0,1-13.147.568,23.221,23.221,0,0,1,23.874-8.189,25.48,25.48,0,0,1-10.727,7.622Z" transform="translate(-399.825 -238.363)" fill="#2f2e41"/>
    </g>
  </g>
</svg>
