<svg xmlns="http://www.w3.org/2000/svg" width="169.371" height="288.403" viewBox="0 0 169.371 288.403">
  <g id="Group_573" data-name="Group 573" transform="translate(-488 -498.597)">
    <path id="Path_896" data-name="Path 896" d="M17729,499.919s124.291-11.871,150.672,121.352S17729,775.6,17729,775.6" transform="translate(-17226)" fill="none" stroke="#fe9f9d" stroke-linecap="round" stroke-width="2" stroke-dasharray="19"/>
    <circle id="Ellipse_189" data-name="Ellipse 189" cx="11" cy="11" r="11" transform="translate(488 765)" fill="#fe9f9d"/>
    <path id="Icon_metro-steps" data-name="Icon metro-steps" d="M27.671,68.552c-5.028,0-9.1-6.714-9.1-15,0-4.608,1.139-9.5,2.276-17.04.89-5.911,3.057-10.809,6.828-10.809s6.3,3.266,6.3,9.236c0,2.033-1.672,5.272-1.746,8.035-.135,4.985,3.343,6.974,3.343,11.582C35.566,62.843,32.7,68.552,27.671,68.552ZM52.238,51.414c-5.028,0-7.895-5.71-7.895-13.992,0-4.608,3.478-6.6,3.343-11.582-.074-2.764-1.746-6-1.746-8.035,0-5.97,2.527-9.236,6.3-9.236s5.938,4.9,6.828,10.809c1.137,7.545,2.276,12.432,2.276,17.04,0,8.282-4.076,15-9.1,15Z" transform="matrix(0.755, -0.656, 0.656, 0.755, 490.613, 548.11)" fill="#fe9f9d"/>
  </g>
</svg>
