<svg xmlns="http://www.w3.org/2000/svg" width="45" height="27" viewBox="0 0 45 27">
  <path id="Icon_awesome-backspace" data-name="Icon awesome-backspace" d="M40.5,4.5H14.432a4.5,4.5,0,0,0-3.183,1.319L.659,16.409a2.249,2.249,0,0,0,0,3.182L11.25,30.182A4.5,4.5,0,0,0,14.432,31.5H40.5A4.5,4.5,0,0,0,45,27V9A4.5,4.5,0,0,0,40.5,4.5ZM34.545,22.364a1.125,1.125,0,0,1,0,1.591l-1.59,1.59a1.125,1.125,0,0,1-1.591,0L27,21.182l-4.364,4.364a1.125,1.125,0,0,1-1.591,0l-1.59-1.59a1.125,1.125,0,0,1,0-1.591L23.818,18l-4.364-4.364a1.125,1.125,0,0,1,0-1.591l1.59-1.59a1.125,1.125,0,0,1,1.591,0L27,14.818l4.364-4.364a1.125,1.125,0,0,1,1.591,0l1.59,1.59a1.125,1.125,0,0,1,0,1.591L30.182,18Z" transform="translate(0 -4.5)" fill="#fe9f9d"/>
</svg>
