<svg xmlns="http://www.w3.org/2000/svg" width="33.401" height="30.267" viewBox="0 0 33.401 30.267">
  <g id="ajax" transform="translate(0 -0.501)">
    <path id="Path_1249" data-name="Path 1249" d="M32.189,12.924h-.6A15.135,15.135,0,0,0,6,4.933,15.022,15.022,0,0,0,1.8,12.99H1.213A1.214,1.214,0,0,0,0,14.2v4.408a1.214,1.214,0,0,0,1.213,1.213h.946a15.131,15.131,0,0,0,4.685,7.294.49.49,0,0,0,.638-.743,14.184,14.184,0,0,1-1.615-1.632,18.786,18.786,0,0,1,2.284-.789,16.238,16.238,0,0,0,1.232,1.864,19.1,19.1,0,0,0,3.325,3.4,14.037,14.037,0,0,1-2.872-1.2.49.49,0,0,0-.476.856,15.147,15.147,0,0,0,21.881-9.026h.947A1.214,1.214,0,0,0,33.4,18.633v-4.5a1.214,1.214,0,0,0-1.213-1.213Zm-1.593,0H27.188c-.041-.254-.086-.508-.138-.761A17.259,17.259,0,0,0,25.692,8.15l.271-.074a18.673,18.673,0,0,0,2.2-.755,14,14,0,0,1,2.435,5.6Zm-4.389.065H21.145c-.017-.246-.035-.491-.057-.736-.1-1.1-.24-2.157-.425-3.171A31.707,31.707,0,0,0,24.724,8.4a16.266,16.266,0,0,1,1.366,3.963c.043.209.081.418.116.628Zm.5-7.364q.433.433.823.9a18.9,18.9,0,0,1-1.838.613c-.153.044-.308.086-.463.127a17.21,17.21,0,0,0-1.022-1.616,16.825,16.825,0,0,0-3.456-3.579,14.083,14.083,0,0,1,5.956,3.56Zm-8.5-4.065a15.92,15.92,0,0,1,5.2,4.654q.448.628.831,1.291a30.969,30.969,0,0,1-3.77.612,20.149,20.149,0,0,0-2.5-6.58l.241.023ZM16.7,1.48h.036A17.581,17.581,0,0,1,19.491,8.2q-1.57.113-3.214.09c-.744-.011-1.539-.034-2.368-.084a17.59,17.59,0,0,1,2.756-6.728H16.7Zm-1.27.057a20.165,20.165,0,0,0-2.506,6.6,28.1,28.1,0,0,1-3.8-.577q.4-.691.863-1.345a15.926,15.926,0,0,1,5.2-4.654l.241-.023ZM12.734,9.1c-.183,1.008-.325,2.062-.421,3.15-.022.245-.04.491-.057.736H7.2c.035-.209.073-.419.116-.628A16.277,16.277,0,0,1,8.651,8.454a28.492,28.492,0,0,0,4.084.649ZM6.693,5.626a14.083,14.083,0,0,1,5.956-3.56A16.812,16.812,0,0,0,9.193,5.645a17.128,17.128,0,0,0-1.05,1.667,18.743,18.743,0,0,1-2.276-.787q.391-.464.825-.9Zm-1.452,1.7A19.421,19.421,0,0,0,7.686,8.2a17.265,17.265,0,0,0-1.334,3.963q-.085.413-.149.827H2.794A14,14,0,0,1,5.241,7.322ZM1.213,18.844A.234.234,0,0,1,.98,18.61V14.2a.234.234,0,0,1,.233-.233H15.351a.49.49,0,0,0,0-.98H13.238c.015-.217.032-.433.051-.65.1-1.1.241-2.154.426-3.162.893.057,1.75.083,2.548.094q.29,0,.578,0,1.449,0,2.844-.107c.186,1.01.33,2.071.428,3.17q.029.325.051.65H18.409a.49.49,0,1,0,0,.98h7.6v4.875H1.213Zm24.676.979a15.586,15.586,0,0,1-1.168,3.045,31.726,31.726,0,0,0-4.053-.683c.141-.766.256-1.555.345-2.362h4.875Zm-5.86,0c-.088.778-.2,1.538-.34,2.275q-1.673-.127-3.426-.1c-.8.011-1.657.037-2.552.095-.137-.734-.25-1.492-.338-2.267ZM5.244,23.945a14.141,14.141,0,0,1-2.063-4.121H6.5a16.6,16.6,0,0,0,1.183,3.246A19.393,19.393,0,0,0,5.244,23.945Zm2.27-4.121h4.873c.088.8.2,1.583.342,2.343a28.491,28.491,0,0,0-4.077.648,15.588,15.588,0,0,1-1.139-2.99Zm7.672,9.882a16.938,16.938,0,0,1-5.024-4.482,15.208,15.208,0,0,1-1.021-1.517,28.136,28.136,0,0,1,3.782-.573,25.215,25.215,0,0,0,.688,2.542,19.154,19.154,0,0,0,1.827,4.056c-.084-.007-.168-.016-.252-.025Zm1.515.083h-.036a15.776,15.776,0,0,1-2.125-4.421c-.241-.728-.451-1.5-.631-2.307.828-.05,1.624-.074,2.368-.084q1.643-.023,3.213.091c-.18.8-.39,1.575-.63,2.3a15.769,15.769,0,0,1-2.125,4.421H16.7Zm1.262-.056a19.125,19.125,0,0,0,1.828-4.058,25.049,25.049,0,0,0,.684-2.523,30.967,30.967,0,0,1,3.754.609,15.193,15.193,0,0,1-.989,1.463,16.938,16.938,0,0,1-5.029,4.485l-.248.024Zm8.746-4.09a14.079,14.079,0,0,1-6.026,3.58,19.1,19.1,0,0,0,3.334-3.4A16.181,16.181,0,0,0,25.22,24q.238.063.473.13a18.975,18.975,0,0,1,1.837.612c-.26.308-.533.608-.821.9Zm1.449-1.7a18.689,18.689,0,0,0-2.2-.754c-.09-.026-.18-.05-.271-.074a16.6,16.6,0,0,0,1.2-3.272h3.324a14,14,0,0,1-2.059,4.1Zm4.263-5.336a.234.234,0,0,1-.233.233h-5.2V13.969h5.2a.234.234,0,0,1,.233.234Zm0,0" fill="#f8f8f8"/>
    <path id="Path_1250" data-name="Path 1250" d="M50.123,221.964c0,.072-.109.148-.235.148s-.232-.076-.232-.148v-2.428c0-.087.094-.145.232-.145s.235.058.235.145v1.111a.5.5,0,0,1,.456-.275.7.7,0,0,1,.622.735v.858c0,.1-.119.149-.235.149s-.232-.051-.232-.149v-.858a.335.335,0,0,0-.315-.326.308.308,0,0,0-.3.326v.858Zm0,0" transform="translate(-46.417 -204.61)" fill="#f8f8f8"/>
    <path id="Path_1251" data-name="Path 1251" d="M82.416,224.9c0,.141.051.192.2.192h.141a.2.2,0,1,1,0,.394h-.141c-.434,0-.669-.177-.669-.586v-1.755c0-.087.123-.145.232-.145s.235.058.235.145v.622h.427c.076,0,.119.087.119.17s-.043.17-.119.17h-.427v.793Zm0,0" transform="translate(-76.603 -207.984)" fill="#f8f8f8"/>
    <path id="Path_1252" data-name="Path 1252" d="M104.995,224.9c0,.141.05.192.2.192h.141a.2.2,0,1,1,0,.394H105.2c-.434,0-.669-.177-.669-.586v-1.755c0-.087.123-.145.232-.145s.235.058.235.145v.622h.427c.076,0,.119.087.119.17s-.043.17-.119.17h-.427Zm0,0" transform="translate(-97.709 -207.984)" fill="#f8f8f8"/>
    <path id="Path_1253" data-name="Path 1253" d="M127.657,234.593v.109a.569.569,0,0,1,.489-.275.7.7,0,0,1,.648.735v.3a.719.719,0,0,1-.633.742.537.537,0,0,1-.474-.286v.9c0,.076-.109.148-.239.148s-.228-.072-.228-.148v-2.226c0-.087.1-.145.221-.145S127.657,234.506,127.657,234.593Zm.669.568a.34.34,0,0,0-.329-.326.317.317,0,0,0-.311.326v.362a.352.352,0,0,0,.318.268.345.345,0,0,0,.322-.333Zm0,0" transform="translate(-118.92 -218.665)" fill="#f8f8f8"/>
    <path id="Path_1254" data-name="Path 1254" d="M158.7,235.689c0-.318-.858-.119-.858-.724,0-.257.163-.539.648-.539.293,0,.575.1.575.235,0,.065-.061.225-.17.225-.087,0-.2-.1-.4-.1-.181,0-.253.09-.253.163,0,.264.868.083.868.727,0,.322-.239.529-.666.529-.369,0-.655-.152-.655-.311,0-.076.065-.206.155-.206s.185.163.489.163c.213,0,.264-.083.264-.156Zm0,0" transform="translate(-147.495 -218.664)" fill="#f8f8f8"/>
    <path id="Path_1255" data-name="Path 1255" d="M185.738,237.946a.25.25,0,0,1-.242.246.246.246,0,1,1,.242-.246Zm0,1.057a.25.25,0,0,1-.242.246.246.246,0,1,1,.242-.246Zm0,0" transform="translate(-173.164 -221.725)" fill="#f8f8f8"/>
    <path id="Path_1256" data-name="Path 1256" d="M201.078,218.5a.14.14,0,0,1-.015.065l-1.3,2.628a.157.157,0,0,1-.141.079.169.169,0,0,1-.174-.159.123.123,0,0,1,.018-.061l1.3-2.638a.141.141,0,0,1,.13-.076A.175.175,0,0,1,201.078,218.5Zm0,0" transform="translate(-186.438 -203.628)" fill="#f8f8f8"/>
    <path id="Path_1257" data-name="Path 1257" d="M217.836,218.5a.143.143,0,0,1-.015.065l-1.3,2.628a.157.157,0,0,1-.141.079.169.169,0,0,1-.174-.159.121.121,0,0,1,.018-.061l1.3-2.638a.141.141,0,0,1,.13-.076A.176.176,0,0,1,217.836,218.5Zm0,0" transform="translate(-202.102 -203.628)" fill="#f8f8f8"/>
    <path id="Path_1258" data-name="Path 1258" d="M246.221,236.174c-.025.062-.1.083-.184.083s-.17-.029-.192-.083l-.279-.789-.275.785c-.022.058-.109.087-.2.087a.181.181,0,0,1-.181-.087l-.557-1.429a.148.148,0,0,1-.018-.069c0-.112.181-.192.3-.192a.132.132,0,0,1,.134.076l.362,1.028.271-.894c.025-.083.087-.094.159-.094s.134.011.159.094l.268.9.365-1.031a.134.134,0,0,1,.134-.076c.116,0,.3.079.3.2a.133.133,0,0,1-.015.065Zm0,0" transform="translate(-228.396 -218.715)" fill="#f8f8f8"/>
    <path id="Path_1259" data-name="Path 1259" d="M288,236.174c-.025.062-.1.083-.184.083s-.17-.029-.192-.083l-.279-.789-.275.785c-.022.058-.108.087-.2.087a.181.181,0,0,1-.181-.087l-.557-1.429a.149.149,0,0,1-.018-.069c0-.112.181-.192.3-.192a.133.133,0,0,1,.134.076l.362,1.028.271-.894c.025-.083.087-.094.159-.094s.134.011.159.094l.268.9.366-1.031a.134.134,0,0,1,.134-.076c.116,0,.3.079.3.2a.133.133,0,0,1-.014.065Zm0,0" transform="translate(-267.445 -218.715)" fill="#f8f8f8"/>
    <path id="Path_1260" data-name="Path 1260" d="M329.772,236.174c-.025.062-.1.083-.185.083s-.17-.029-.192-.083l-.279-.789-.275.785c-.022.058-.109.087-.2.087a.181.181,0,0,1-.181-.087l-.557-1.429a.148.148,0,0,1-.018-.069c0-.112.181-.192.3-.192a.133.133,0,0,1,.134.076l.362,1.028.271-.894c.025-.083.087-.094.159-.094s.134.011.159.094l.268.9.366-1.031a.134.134,0,0,1,.134-.076c.116,0,.3.079.3.2a.132.132,0,0,1-.015.065Zm0,0" transform="translate(-306.496 -218.715)" fill="#f8f8f8"/>
    <path id="Path_1261" data-name="Path 1261" d="M427.323,214.473l-.528-.077-.236-.479a.735.735,0,0,0-1.318,0L425,214.4l-.528.077a.735.735,0,0,0-.407,1.254l.382.373-.09.526a.735.735,0,0,0,1.066.775l.472-.248.472.248a.731.731,0,0,0,.774-.056.73.73,0,0,0,.292-.719l-.09-.526.382-.373a.735.735,0,0,0-.407-1.254Zm-.751,1.014a.736.736,0,0,0-.211.65l.028.164-.148-.077a.735.735,0,0,0-.684,0l-.148.077.028-.164a.734.734,0,0,0-.211-.65l-.119-.116.165-.024a.735.735,0,0,0,.554-.4l.074-.15.074.15a.734.734,0,0,0,.553.4l.165.024Zm0,0" transform="translate(-396.196 -199.111)" fill="#f8f8f8"/>
  </g>
</svg>
