<svg xmlns="http://www.w3.org/2000/svg" width="12.056" height="13.603" viewBox="0 0 12.056 13.603">
  <g id="bug" transform="translate(-29.111)">
    <path id="Path_751" data-name="Path 751" d="M179.178,3.21a4.419,4.419,0,0,1,1.977.465V3.422a2.1,2.1,0,0,0-.866-1.7V1.353A.557.557,0,0,1,180.846.8V0a1.355,1.355,0,0,0-1.353,1.353v.015a2.1,2.1,0,0,0-.873,0V1.353A1.355,1.355,0,0,0,177.267,0V.8a.557.557,0,0,1,.556.556v.371a2.1,2.1,0,0,0-.866,1.7v.253a4.418,4.418,0,0,1,1.979-.466Z" transform="translate(-143.917 0)" fill="#f5f5f7"/>
    <path id="Path_752" data-name="Path 752" d="M180.043,436.564a3.627,3.627,0,0,0,1.955-.569,3.056,3.056,0,0,1-2.077-1.487,3.056,3.056,0,0,1-2.076,1.487,3.627,3.627,0,0,0,1.956.57Z" transform="translate(-144.783 -422.961)" fill="#f5f5f7"/>
    <path id="Path_753" data-name="Path 753" d="M31.993,152.781l-.736-.618h-1.1v.8h.812l.648.544a3.63,3.63,0,0,0-.245,1.313v.849h-1.6l-.66.66.564.564.426-.426h1.27v.653a3.629,3.629,0,0,0,.238,1.3l-.987.828v1.2h.8v-.829l.565-.474a3.674,3.674,0,0,0,.236.315h.272a2.252,2.252,0,0,0,2.25-2.25v-6.024A3.65,3.65,0,0,0,31.993,152.781Zm1.465,4.032h-.8v-.8h.8Zm.409-1.707h-.8v-.8h.8Z" transform="translate(0 -147.162)" fill="#f5f5f7"/>
    <path id="Path_754" data-name="Path 754" d="M275.923,155.661h-1.6v-.849a3.63,3.63,0,0,0-.244-1.312l.65-.545h.809v-.8h-1.1l-.737.619a3.65,3.65,0,0,0-2.75-1.6V157.2a2.252,2.252,0,0,0,2.25,2.25h.274a3.665,3.665,0,0,0,.236-.315l.565.474v.829h.8v-1.2l-.987-.828a3.629,3.629,0,0,0,.238-1.295v-.653h1.268l.426.426.564-.564Zm-4.1-1.358h.8v.8h-.8Zm1.207,2.5h-.8v-.8h.8Z" transform="translate(-235.415 -147.157)" fill="#f5f5f7"/>
  </g>
</svg>
