<svg xmlns="http://www.w3.org/2000/svg" width="35.474" height="24.278" viewBox="0 0 35.474 24.278">
  <path id="Icon_awesome-laravel" data-name="Icon awesome-laravel" d="M35.33,13.941c-.233-.266-3.48-4.328-4.051-5.016s-.853-.565-1.2-.515-4.461.743-4.938.82-.776.272-.482.682c.26.366,2.959,4.2,3.558,5.038L17.478,17.521,8.933,3.25c-.338-.5-.41-.682-1.186-.643s-6.7.526-7.122.565-.887.222-.466,1.219S7.309,19.887,7.5,20.309a1.44,1.44,0,0,0,1.818.831c1.169-.283,5.226-1.341,7.443-1.923,1.169,2.123,3.558,6.423,4,7.038.587.826,1,.687,1.9.41.709-.216,11.062-3.94,11.528-4.129s.754-.327.438-.8c-.233-.344-2.965-4-4.395-5.919.981-.26,4.467-1.186,4.838-1.291.438-.111.5-.321.26-.587ZM15.81,17.931c-.127.028-6.141,1.469-6.462,1.541s-.321.039-.36-.072S1.839,4.619,1.739,4.436s-.094-.327,0-.327,5.681-.5,5.875-.51.177.033.249.155c0,0,7.881,13.6,8.014,13.839S15.938,17.9,15.81,17.931Zm16.959,3.181c.094.15.194.249-.111.355s-10.181,3.442-10.369,3.525-.344.111-.587-.249-3.458-5.919-3.458-5.919L28.707,16.1c.26-.083.344-.139.51.122s3.458,4.738,3.552,4.888Zm.671-7.432c-.233.05-4.079,1-4.079,1l-3.142-4.312c-.089-.127-.161-.249.061-.277s3.791-.676,3.952-.709.3-.083.5.188,2.915,3.713,3.02,3.846-.078.205-.31.26Z" transform="translate(0.006 -2.602)" fill="#f8f8f8"/>
</svg>
