<svg xmlns="http://www.w3.org/2000/svg" width="14.512" height="16.003" viewBox="0 0 14.512 16.003">
  <path id="Icon_simple-email" data-name="Icon simple-email" d="M15.244,7.386a8.253,8.253,0,0,1-.266,1.79,5.18,5.18,0,0,1-.7,1.572,3.673,3.673,0,0,1-1.18,1.117,3.33,3.33,0,0,1-1.723.425,2.5,2.5,0,0,1-1.246-.305,2.134,2.134,0,0,1-.842-.863,2.669,2.669,0,0,1-2.258,1.134A2.3,2.3,0,0,1,5.062,11.2a3.47,3.47,0,0,1-.49-1.228,5.3,5.3,0,0,1-.064-1.6A7.442,7.442,0,0,1,5,6.4a5.333,5.333,0,0,1,.9-1.5,3.816,3.816,0,0,1,1.24-.958,3.46,3.46,0,0,1,1.508-.335,4.689,4.689,0,0,1,.9.077,3.692,3.692,0,0,1,.7.21,3.785,3.785,0,0,1,.58.306c.177.114.355.232.532.352l-.438,5.04a1.675,1.675,0,0,0,.013.59.825.825,0,0,0,.18.364.648.648,0,0,0,.292.19,1.084,1.084,0,0,0,1.026-.2,2.187,2.187,0,0,0,.55-.7,4.508,4.508,0,0,0,.37-1.052,7.218,7.218,0,0,0,.162-1.31,8.372,8.372,0,0,0-.206-2.448A4.866,4.866,0,0,0,12.4,3.131a4.207,4.207,0,0,0-1.624-1.22,5.894,5.894,0,0,0-2.366-.433,5.224,5.224,0,0,0-2.34.51A5.369,5.369,0,0,0,4.3,3.4,6.786,6.786,0,0,0,3.131,5.529a9.585,9.585,0,0,0-.49,2.65,8.812,8.812,0,0,0,.25,2.7,4.884,4.884,0,0,0,.988,1.938,4.123,4.123,0,0,0,1.674,1.164,6.421,6.421,0,0,0,2.31.386,7.912,7.912,0,0,0,1.516-.163c.25-.05.487-.11.713-.176a5.366,5.366,0,0,0,.614-.22l.317,1.426a3.519,3.519,0,0,1-.687.34,6.613,6.613,0,0,1-.812.235,7.923,7.923,0,0,1-1.7.19,8.894,8.894,0,0,1-3.092-.5,5.691,5.691,0,0,1-2.254-1.482,6.224,6.224,0,0,1-1.353-2.447,10.438,10.438,0,0,1-.378-3.4,10.36,10.36,0,0,1,.65-3.26,8.068,8.068,0,0,1,1.566-2.59A7.136,7.136,0,0,1,5.356.62,7.48,7.48,0,0,1,8.45,0a7.809,7.809,0,0,1,3,.537,5.831,5.831,0,0,1,2.164,1.51A6.2,6.2,0,0,1,14.9,4.38a8.921,8.921,0,0,1,.348,3.006Zm-8.588.98a3.4,3.4,0,0,0,.176,1.687.9.9,0,0,0,.87.57.961.961,0,0,0,.3-.055,1.063,1.063,0,0,0,.343-.206,1.831,1.831,0,0,0,.348-.42,3.223,3.223,0,0,0,.32-.71l.342-3.916a2.043,2.043,0,0,0-.532-.07,1.839,1.839,0,0,0-.885.2,1.752,1.752,0,0,0-.627.6,3.5,3.5,0,0,0-.416.98,8.313,8.313,0,0,0-.236,1.34Z" transform="translate(-0.742)" fill="#0a0c1b"/>
</svg>
