<svg xmlns="http://www.w3.org/2000/svg" width="20" height="15" viewBox="0 0 20 15">
  <path id="Icon_awesome-plane-departure" data-name="Icon awesome-plane-departure" d="M19.5,14H.5a.5.5,0,0,0-.5.5v1a.5.5,0,0,0,.5.5h19a.5.5,0,0,0,.5-.5v-1A.5.5,0,0,0,19.5,14ZM2.517,10.665a1.031,1.031,0,0,0,.76.335l4.079-.006a2.051,2.051,0,0,0,.926-.223l9.093-4.614A5.312,5.312,0,0,0,19.47,4.335c.572-.89.634-1.534.408-1.989s-.773-.79-1.82-.858a5.249,5.249,0,0,0-2.7.609L12.283,3.659,5.449,1.095a.556.556,0,0,0-.563-.035L2.832,2.1a.571.571,0,0,0-.162.892L7.552,6.06,4.327,7.7,2.066,6.557a.556.556,0,0,0-.5,0L.31,7.194a.571.571,0,0,0-.174.877l2.382,2.593Z" transform="translate(0 -1)" fill="#0a0c1b"/>
</svg>
