<svg xmlns="http://www.w3.org/2000/svg" width="42.514" height="39.517" viewBox="0 0 42.514 39.517">
  <g id="author" transform="translate(0 -18.047)">
    <path id="Path_1049" data-name="Path 1049" d="M42.081,50.923a.992.992,0,0,0,.432-.813q0-.217,0-.435a20.078,20.078,0,0,0-.3-3.242.986.986,0,0,0-.614-.747,1.076,1.076,0,0,1-.69-1,1.059,1.059,0,0,1,.236-.671.986.986,0,0,0,.153-.956,19.658,19.658,0,0,0-1.611-3.348.624.624,0,0,0-.611-.3,1.062,1.062,0,0,1-1.206-1.062A1.052,1.052,0,0,1,37.924,38a.984.984,0,0,0-.185-.968,19.811,19.811,0,0,0-1.986-1.995,4.629,4.629,0,0,0,.214-1.489,4.176,4.176,0,0,0,3.544-3.741,4.14,4.14,0,0,0-3.926-4.492h-.014a1.181,1.181,0,0,1-.963-.55c-2.809-4.59-5.976-6.794-9.41-6.552a.622.622,0,0,0-.172.037,11.167,11.167,0,0,0-2.182-.205h-.007a11.325,11.325,0,0,0-2.175.2.629.629,0,0,0-.1-.018c-3.511-.342-6.743,1.856-9.606,6.536a1.179,1.179,0,0,1-.958.55H9.987a4.14,4.14,0,0,0,.113,8.274,4.63,4.63,0,0,0,.145,1.111A19.9,19.9,0,0,0,7.88,37.007a.988.988,0,0,0-.182.985,1.057,1.057,0,0,1,.064.362,1.073,1.073,0,0,1-1.072,1.072H6.67a.99.99,0,0,0-.881.484,19.7,19.7,0,0,0-1.567,3.328.624.624,0,0,0,.161.667,1.07,1.07,0,0,1,.275.414,6.191,6.191,0,0,0-4.27,1.816A1.349,1.349,0,0,0,0,47.084V56.54a1.014,1.014,0,0,0,.581.922,1.015,1.015,0,0,0,1.083-.127,4.925,4.925,0,0,1,3.124-1.1,4.894,4.894,0,0,1,2.776.84,1.291,1.291,0,0,0,1.33.069l.058-.033.058.033a1.292,1.292,0,0,0,1.33-.069,5,5,0,0,1,5.9.256,1.022,1.022,0,0,0,1.663-.8V50.829a26.887,26.887,0,0,1,4.884-.443A26.088,26.088,0,0,1,30.1,51.4a.624.624,0,1,0,.349-1.2,27.335,27.335,0,0,0-7.661-1.067,28.2,28.2,0,0,0-4.884.422V47.084a1.348,1.348,0,0,0-.387-.949,6.238,6.238,0,0,0-8.564-.227,6.174,6.174,0,0,0-3-1.484,2.329,2.329,0,0,0-.432-1.105,18.447,18.447,0,0,1,1.266-2.648,2.317,2.317,0,0,0,2.132-2.957,18.654,18.654,0,0,1,1.847-1.82,4.933,4.933,0,0,0,3.7,2.014,21.112,21.112,0,0,0,3.426,5.709c1.62,1.864,3.285,2.849,4.816,2.849h0c1.541,0,3.226-.989,4.873-2.857a21.158,21.158,0,0,0,3.454-5.627,4.5,4.5,0,0,0,2.287-.4,4.635,4.635,0,0,0,1.841-1.4A18.545,18.545,0,0,1,36.7,37.74a2.3,2.3,0,0,0-.084.614A2.322,2.322,0,0,0,38.8,40.669a18.4,18.4,0,0,1,1.275,2.691A2.317,2.317,0,0,0,41,46.79a18.846,18.846,0,0,1,.262,2.9q0,.142,0,.283a2.317,2.317,0,0,0-.317,3.377c-.067.356-.144.71-.23,1.057a1.054,1.054,0,0,1-.753.778,1.1,1.1,0,0,1-1.078-.277A18.547,18.547,0,0,0,33.26,51.22a.624.624,0,1,0-.5,1.144A17.309,17.309,0,0,1,38.016,55.8a2.333,2.333,0,0,0,1.639.677,2.388,2.388,0,0,0,.651-.091A2.3,2.3,0,0,0,41.93,54.71c.1-.418.2-.846.273-1.275a.984.984,0,0,0-.278-.868,1.07,1.07,0,0,1,.157-1.644ZM8.327,47.037v1.281a.624.624,0,1,0,1.247,0V47.038a4.987,4.987,0,0,1,7.049-.03.108.108,0,0,1,.03.076v9.006a6.255,6.255,0,0,0-7.012-.046.041.041,0,0,1-.048,0,.034.034,0,0,1-.021-.036V51.245a.624.624,0,1,0-1.247,0v4.767a.034.034,0,0,1-.021.036.041.041,0,0,1-.048,0,6.2,6.2,0,0,0-3.472-1.052,6.149,6.149,0,0,0-3.54,1.1V47.084a.108.108,0,0,1,.03-.076,4.931,4.931,0,0,1,3.51-1.444,4.891,4.891,0,0,1,3.54,1.474Zm25.218-21.62a2.43,2.43,0,0,0,1.979,1.145,2.893,2.893,0,0,1,2.744,3.14,2.917,2.917,0,0,1-2.5,2.617A2.986,2.986,0,0,0,34.1,30.346a2.314,2.314,0,0,0-1.607,0,18.172,18.172,0,0,0-1.681-7.662A9.3,9.3,0,0,0,29.5,20.761,15.6,15.6,0,0,1,33.546,25.418Zm-.721,11.023a2.785,2.785,0,0,1-1.887.242l-.027-.012a.624.624,0,0,0-.823.344,20.435,20.435,0,0,1-3.437,5.767c-1.384,1.569-2.782,2.434-3.938,2.434h0c-2.316,0-5.43-3.513-7.244-8.171a.624.624,0,0,0-.647-.394,3.519,3.519,0,0,1-3.259-1.916,3.355,3.355,0,0,1-.06-2.169,1.8,1.8,0,0,1,.935-1.176,1.219,1.219,0,0,1,.966.118.624.624,0,0,0,.909-.539,23.1,23.1,0,0,1,.614-5.043.624.624,0,0,0-1.209-.305,22.775,22.775,0,0,0-.622,4.488A2.2,2.2,0,0,0,12,30.222a2.987,2.987,0,0,0-1.686,1.959c-.018.054-.034.109-.049.163h-.006a2.893,2.893,0,0,1-.2-5.782,2.426,2.426,0,0,0,1.971-1.145,15.235,15.235,0,0,1,4.219-4.779,9.229,9.229,0,0,0-1.407,1.992.624.624,0,1,0,1.1.585,7.158,7.158,0,0,1,6.9-3.923h.006a7.073,7.073,0,0,1,6.863,3.965A18.109,18.109,0,0,1,31.27,31.4a.624.624,0,0,0,1.011.486,1.452,1.452,0,0,1,1.375-.371,1.8,1.8,0,0,1,.923,1.186,3.355,3.355,0,0,1-.083,2.169,3.044,3.044,0,0,1-1.671,1.577Z" fill="#0a0c1b"/>
    <circle id="Ellipse_265" data-name="Ellipse 265" cx="1.201" cy="1.201" r="1.201" transform="translate(17.677 33.59) rotate(-89.714)" fill="#0a0c1b"/>
    <circle id="Ellipse_266" data-name="Ellipse 266" cx="1.201" cy="1.201" r="1.201" transform="translate(26.127 33.634) rotate(-89.714)" fill="#0a0c1b"/>
    <path id="Path_1050" data-name="Path 1050" d="M196.178,144.58a.624.624,0,0,0,.828-.933,4.73,4.73,0,0,0-5.6,0,.624.624,0,0,0,.828.933,3.524,3.524,0,0,1,3.95,0Z" transform="translate(-175.316 -114.327)" fill="#0a0c1b"/>
    <path id="Path_1051" data-name="Path 1051" d="M298.784,143.648a4.73,4.73,0,0,0-5.605,0,.624.624,0,1,0,.828.933,3.524,3.524,0,0,1,3.95,0,.624.624,0,0,0,.828-.933Z" transform="translate(-268.643 -114.328)" fill="#0a0c1b"/>
    <path id="Path_1052" data-name="Path 1052" d="M255.482,279.738a4.213,4.213,0,0,0-2.15,0,1.167,1.167,0,0,0-.736,1.163c0,.7.545,2.914,1.811,2.914s1.811-2.211,1.811-2.914A1.167,1.167,0,0,0,255.482,279.738Zm-1.075,2.775a3.434,3.434,0,0,1-.564-1.613c0-.008,0-.015,0-.022a4.778,4.778,0,0,1,1.127,0c0,.006,0,.014,0,.022A3.434,3.434,0,0,1,254.407,282.513Z" transform="translate(-231.622 -239.833)" fill="#0a0c1b"/>
    <path id="Path_1053" data-name="Path 1053" d="M36.337,393a.926.926,0,0,0-.647-.252.939.939,0,0,0-.906,1.108,1.027,1.027,0,0,0,.36.566c.234.233.971.937,1.229,1.184a.13.13,0,0,0,.18,0c.266-.256,1.042-1,1.23-1.194a1,1,0,0,0,.364-.736.93.93,0,0,0-1.57-.675A.175.175,0,0,1,36.337,393Z" transform="translate(-31.883 -343.581)" fill="#0a0c1b"/>
    <path id="Path_1054" data-name="Path 1054" d="M217.083,218.594l-3.558-1.039a1.623,1.623,0,0,0-.535-.063c-.505.025-1.018.025-1.523,0a1.624,1.624,0,0,0-.535.063l-3.558,1.039a1.065,1.065,0,0,0-.767.894,1.083,1.083,0,0,0,.512,1.066,5.244,5.244,0,0,0,2.64.638,5.48,5.48,0,0,0,1.228-.131,1.423,1.423,0,0,0,2.433-.011,5.437,5.437,0,0,0,1.278.142,5.244,5.244,0,0,0,2.64-.638,1.083,1.083,0,0,0,.512-1.066,1.064,1.064,0,0,0-.766-.893Zm-2.385,1.351a3.13,3.13,0,0,1-1.622-.362,1.565,1.565,0,0,0-1.695,0,3.129,3.129,0,0,1-1.622.362,4.582,4.582,0,0,1-1.619-.275l3.141-.918a.369.369,0,0,1,.124-.015c.546.027,1.1.027,1.647,0a.367.367,0,0,1,.124.015l3.141.918A4.582,4.582,0,0,1,214.7,219.945Z" transform="translate(-189.444 -182.882)" fill="#0a0c1b"/>
  </g>
</svg>
