<svg xmlns="http://www.w3.org/2000/svg" width="49.269" height="39.517" viewBox="0 0 49.269 39.517">
  <g id="book" transform="translate(0 -50.669)">
    <path id="Path_1055" data-name="Path 1055" d="M298.468,104.227a30.939,30.939,0,0,1-6.454-1.3,11.686,11.686,0,0,0-8.192.392.722.722,0,1,0,.57,1.326,10.28,10.28,0,0,1,7.206-.337,32.362,32.362,0,0,0,6.759,1.353l.056,0a.722.722,0,0,0,.054-1.441Z" transform="translate(-256.116 -46.731)" fill="#0a0c1b"/>
    <path id="Path_1056" data-name="Path 1056" d="M298.468,136.1a30.932,30.932,0,0,1-6.453-1.3,11.686,11.686,0,0,0-8.192.392.722.722,0,1,0,.57,1.326,10.28,10.28,0,0,1,7.206-.337,32.356,32.356,0,0,0,6.76,1.353l.056,0a.722.722,0,0,0,.054-1.441Z" transform="translate(-256.116 -75.539)" fill="#0a0c1b"/>
    <path id="Path_1057" data-name="Path 1057" d="M298.468,295.478a30.933,30.933,0,0,1-6.454-1.3,11.686,11.686,0,0,0-8.192.393.722.722,0,1,0,.57,1.326,10.282,10.282,0,0,1,7.206-.337,32.359,32.359,0,0,0,6.759,1.353l.056,0a.722.722,0,0,0,.054-1.441Z" transform="translate(-256.116 -219.579)" fill="#0a0c1b"/>
    <path id="Path_1058" data-name="Path 1058" d="M298.468,327.354a30.938,30.938,0,0,1-6.454-1.3,11.686,11.686,0,0,0-8.192.392.722.722,0,1,0,.57,1.326,10.28,10.28,0,0,1,7.206-.337,32.361,32.361,0,0,0,6.759,1.353l.056,0a.722.722,0,0,0,.054-1.441Z" transform="translate(-256.116 -248.387)" fill="#0a0c1b"/>
    <path id="Path_1059" data-name="Path 1059" d="M298.468,167.978a30.932,30.932,0,0,1-6.454-1.3,11.686,11.686,0,0,0-8.192.393.722.722,0,1,0,.57,1.326,10.281,10.281,0,0,1,7.206-.337,32.36,32.36,0,0,0,6.759,1.353l.056,0a.722.722,0,0,0,.054-1.441Z" transform="translate(-256.116 -104.347)" fill="#0a0c1b"/>
    <path id="Path_1060" data-name="Path 1060" d="M298.468,231.728a30.925,30.925,0,0,1-6.453-1.3,11.686,11.686,0,0,0-8.192.392.722.722,0,1,0,.57,1.326,10.281,10.281,0,0,1,7.206-.337,32.363,32.363,0,0,0,6.76,1.353l.056,0a.722.722,0,0,0,.054-1.441Z" transform="translate(-256.116 -161.963)" fill="#0a0c1b"/>
    <path id="Path_1061" data-name="Path 1061" d="M298.468,199.853a30.939,30.939,0,0,1-6.454-1.3,11.686,11.686,0,0,0-8.192.392.722.722,0,1,0,.57,1.326,10.28,10.28,0,0,1,7.206-.337,32.363,32.363,0,0,0,6.759,1.353l.056,0a.722.722,0,0,0,.054-1.441Z" transform="translate(-256.116 -133.155)" fill="#0a0c1b"/>
    <path id="Path_1062" data-name="Path 1062" d="M298.468,263.6a30.923,30.923,0,0,1-6.453-1.3,11.686,11.686,0,0,0-8.192.393.722.722,0,1,0,.57,1.326,10.282,10.282,0,0,1,7.206-.337,32.353,32.353,0,0,0,6.76,1.353l.056,0a.722.722,0,0,0,.054-1.441Z" transform="translate(-256.116 -190.771)" fill="#0a0c1b"/>
    <path id="Path_1063" data-name="Path 1063" d="M65.669,105.668l.056,0a32.355,32.355,0,0,0,6.76-1.353,10.28,10.28,0,0,1,7.206.337.722.722,0,0,0,.57-1.326,11.686,11.686,0,0,0-8.192-.392,30.94,30.94,0,0,1-6.454,1.3.722.722,0,0,0,.054,1.441Z" transform="translate(-58.699 -46.731)" fill="#0a0c1b"/>
    <path id="Path_1064" data-name="Path 1064" d="M65.669,137.544l.056,0a32.348,32.348,0,0,0,6.76-1.353,10.279,10.279,0,0,1,7.206.337.722.722,0,0,0,.57-1.326,11.687,11.687,0,0,0-8.192-.392,30.933,30.933,0,0,1-6.453,1.3.722.722,0,0,0,.054,1.441Z" transform="translate(-58.699 -75.539)" fill="#0a0c1b"/>
    <path id="Path_1065" data-name="Path 1065" d="M65.669,296.92l.056,0a32.354,32.354,0,0,0,6.76-1.353,10.279,10.279,0,0,1,7.206.337.722.722,0,0,0,.57-1.326,11.687,11.687,0,0,0-8.192-.393,30.931,30.931,0,0,1-6.454,1.3.722.722,0,0,0,.054,1.441Z" transform="translate(-58.699 -219.579)" fill="#0a0c1b"/>
    <path id="Path_1066" data-name="Path 1066" d="M65.669,328.8l.056,0a32.354,32.354,0,0,0,6.76-1.353,10.279,10.279,0,0,1,7.206.337.722.722,0,0,0,.57-1.326,11.686,11.686,0,0,0-8.192-.392,30.939,30.939,0,0,1-6.454,1.3.722.722,0,0,0,.054,1.441Z" transform="translate(-58.699 -248.387)" fill="#0a0c1b"/>
    <path id="Path_1067" data-name="Path 1067" d="M65.669,169.419l.056,0a32.353,32.353,0,0,0,6.76-1.353,10.28,10.28,0,0,1,7.206.337.722.722,0,0,0,.57-1.326,11.686,11.686,0,0,0-8.192-.393,30.933,30.933,0,0,1-6.454,1.3.722.722,0,0,0,.054,1.441Z" transform="translate(-58.699 -104.347)" fill="#0a0c1b"/>
    <path id="Path_1068" data-name="Path 1068" d="M65.669,233.17l.056,0a32.356,32.356,0,0,0,6.76-1.353,10.279,10.279,0,0,1,7.206.337.722.722,0,0,0,.57-1.326,11.687,11.687,0,0,0-8.192-.392,30.926,30.926,0,0,1-6.453,1.3.722.722,0,0,0,.054,1.441Z" transform="translate(-58.699 -161.963)" fill="#0a0c1b"/>
    <path id="Path_1069" data-name="Path 1069" d="M65.669,201.294l.056,0a32.355,32.355,0,0,0,6.76-1.353,10.28,10.28,0,0,1,7.206.337.722.722,0,1,0,.57-1.326,11.685,11.685,0,0,0-8.192-.392,30.941,30.941,0,0,1-6.454,1.3.722.722,0,0,0,.054,1.441Z" transform="translate(-58.699 -133.154)" fill="#0a0c1b"/>
    <path id="Path_1070" data-name="Path 1070" d="M65.669,265.045l.056,0a32.347,32.347,0,0,0,6.76-1.353,10.279,10.279,0,0,1,7.206.337.722.722,0,1,0,.57-1.326,11.686,11.686,0,0,0-8.192-.393,30.923,30.923,0,0,1-6.453,1.3.722.722,0,0,0,.054,1.441Z" transform="translate(-58.699 -190.771)" fill="#0a0c1b"/>
    <path id="Path_1071" data-name="Path 1071" d="M47.506,54.773h-1.13v-.658a1.584,1.584,0,0,0-1.709-1.579,22.227,22.227,0,0,1-7.05-.836.722.722,0,0,0-.355,1.4,23.491,23.491,0,0,0,7.52.876.14.14,0,0,1,.15.141V83.238A25.573,25.573,0,0,1,35.9,81.952a11.958,11.958,0,0,0-10.543,1.716V54.82a10.325,10.325,0,0,1,8.6-2.569.722.722,0,1,0,.23-1.425,11.676,11.676,0,0,0-9.554,2.7,11.778,11.778,0,0,0-11.263-2.3A24.519,24.519,0,0,1,4.6,52.535a1.584,1.584,0,0,0-1.709,1.579v.658H1.763A1.765,1.765,0,0,0,0,56.535V85.8a1.765,1.765,0,0,0,1.763,1.763h18.7a.712.712,0,0,1,.648.394,3.9,3.9,0,0,0,7.049,0,.712.712,0,0,1,.648-.394h18.7A1.765,1.765,0,0,0,49.268,85.8V72.115a.722.722,0,0,0-1.443,0V85.8a.319.319,0,0,1-.319.319h-18.7a2.161,2.161,0,0,0-1.953,1.221,2.457,2.457,0,0,1-4.439,0,2.161,2.161,0,0,0-1.953-1.221H1.763a.32.32,0,0,1-.319-.319V56.535a.32.32,0,0,1,.319-.319h1.13V83.854a.722.722,0,0,0,.537.7c.137.036,3.443.867,10.357-1.217a10.356,10.356,0,0,1,9.135,1.417,2.98,2.98,0,0,0,3.425,0,10.352,10.352,0,0,1,9.135-1.416C42.4,85.418,45.7,84.588,45.839,84.551a.722.722,0,0,0,.537-.7V56.216h1.13a.32.32,0,0,1,.319.319V68.747a.722.722,0,0,0,1.443,0V56.535A1.765,1.765,0,0,0,47.506,54.773Zm-43.17-.658a.14.14,0,0,1,.15-.141,25.919,25.919,0,0,0,9.3-1.37,10.29,10.29,0,0,1,10.126,2.217V83.668A11.905,11.905,0,0,0,13.37,81.952c-.389.117-.817.239-1.213.345l-.014,0a23.6,23.6,0,0,1-7.807.937c0-2.006,0-28.586,0-29.124Z" fill="#0a0c1b"/>
  </g>
</svg>
