<svg xmlns="http://www.w3.org/2000/svg" width="35.561" height="39.517" viewBox="0 0 35.561 39.517">
  <g id="calendar" transform="translate(-25.627)">
    <path id="Path_1072" data-name="Path 1072" d="M53.828,19.407h2.756a1.131,1.131,0,0,0,1.13-1.13V15.521a1.131,1.131,0,0,0-1.13-1.13H53.828a1.131,1.131,0,0,0-1.13,1.13v2.756A1.131,1.131,0,0,0,53.828,19.407Zm.028-3.859h2.7v2.7h-2.7ZM53.828,26.74h2.756a1.131,1.131,0,0,0,1.13-1.13V22.853a1.131,1.131,0,0,0-1.13-1.13H53.828a1.131,1.131,0,0,0-1.13,1.13v2.756A1.131,1.131,0,0,0,53.828,26.74Zm.028-3.859h2.7v2.7h-2.7Zm-7.894-3.473h2.756a1.131,1.131,0,0,0,1.13-1.13V15.521a1.131,1.131,0,0,0-1.13-1.13H45.962a1.131,1.131,0,0,0-1.13,1.13v2.756A1.131,1.131,0,0,0,45.962,19.407Zm.028-3.859h2.7v2.7h-2.7Zm-13,13.163H30.23a1.131,1.131,0,0,0-1.13,1.13V32.6a1.131,1.131,0,0,0,1.13,1.13h2.756a1.131,1.131,0,0,0,1.13-1.13V29.841A1.131,1.131,0,0,0,32.987,28.711Zm-.028,3.859h-2.7v-2.7h2.7Zm.028-18.18H30.23a1.131,1.131,0,0,0-1.13,1.13v2.756a1.131,1.131,0,0,0,1.13,1.13h2.756a1.131,1.131,0,0,0,1.13-1.13V15.521A1.131,1.131,0,0,0,32.987,14.391Zm-.028,3.859h-2.7v-2.7h2.7Zm13,8.318h2.756a1.131,1.131,0,0,0,1.13-1.13V22.681a1.131,1.131,0,0,0-1.13-1.13H45.962a1.131,1.131,0,0,0-1.13,1.13v2.756A1.131,1.131,0,0,0,45.962,26.568Zm.028-3.859h2.7v2.7h-2.7ZM58.29,2.645H55.815V1.76A1.762,1.762,0,0,0,54.054,0h-.266a1.762,1.762,0,0,0-1.76,1.76v.885H34.786V1.76A1.762,1.762,0,0,0,33.026,0H32.76A1.762,1.762,0,0,0,31,1.76v.885H28.525a2.9,2.9,0,0,0-2.9,2.9V36.622a2.9,2.9,0,0,0,2.894,2.894H58.294a2.9,2.9,0,0,0,2.894-2.894V5.543a2.9,2.9,0,0,0-2.9-2.9Zm-5.1-.885a.6.6,0,0,1,.6-.6h.266a.6.6,0,0,1,.6.6v.885H53.186Zm-21.028,0a.6.6,0,0,1,.6-.6h.266a.6.6,0,0,1,.6.6v.885H32.158V1.76ZM60.03,36.622a1.738,1.738,0,0,1-1.737,1.737H28.521a1.738,1.738,0,0,1-1.737-1.737v0a2.883,2.883,0,0,0,1.741.582H51.995a2.879,2.879,0,0,0,2.049-.849l5.986-5.986Zm-6.577-1.317a2.476,2.476,0,0,0,.07-.584V30.858a1.323,1.323,0,0,1,1.321-1.321h3.864a2.476,2.476,0,0,0,.584-.07ZM60.03,10.918H35.365a.579.579,0,1,0,0,1.158H60.03V27.057a1.323,1.323,0,0,1-1.321,1.321H54.845a2.482,2.482,0,0,0-2.479,2.479v3.864a1.323,1.323,0,0,1-1.321,1.321H28.525a1.742,1.742,0,0,1-1.74-1.741V12.075H33.05a.579.579,0,0,0,0-1.158H26.785V5.543a1.742,1.742,0,0,1,1.74-1.74H31V5.5a1.762,1.762,0,0,0,1.76,1.76.579.579,0,0,0,0-1.158.6.6,0,0,1-.6-.6V3.8H52.028V5.5a1.762,1.762,0,0,0,1.76,1.76.579.579,0,1,0,0-1.158.6.6,0,0,1-.6-.6V3.8h5.1a1.742,1.742,0,0,1,1.74,1.74ZM32.987,21.551H30.23a1.131,1.131,0,0,0-1.13,1.13v2.756a1.131,1.131,0,0,0,1.13,1.13h2.756a1.131,1.131,0,0,0,1.13-1.13V22.681A1.131,1.131,0,0,0,32.987,21.551Zm-.028,3.859h-2.7v-2.7h2.7Zm5.137-6h2.756a1.131,1.131,0,0,0,1.13-1.13V15.521a1.131,1.131,0,0,0-1.13-1.13H38.1a1.131,1.131,0,0,0-1.13,1.13v2.756A1.131,1.131,0,0,0,38.1,19.407Zm.028-3.859h2.7v2.7h-2.7ZM45.989,32.57a.579.579,0,0,0-1.157.028,1.131,1.131,0,0,0,1.13,1.13h2.756a1.131,1.131,0,0,0,1.13-1.13V29.841a1.131,1.131,0,0,0-1.13-1.13H45.962a1.131,1.131,0,0,0-1.13,1.13v.795a.579.579,0,1,0,1.158,0v-.767h2.7v2.7Zm-7.893-6h2.756a1.131,1.131,0,0,0,1.13-1.13V22.681a1.131,1.131,0,0,0-1.13-1.13H38.1a1.131,1.131,0,0,0-1.13,1.13v2.756A1.131,1.131,0,0,0,38.1,26.568Zm.028-3.859h2.7v2.7h-2.7ZM38.1,33.728h2.756a1.131,1.131,0,0,0,1.13-1.13V29.841a1.131,1.131,0,0,0-1.13-1.13H38.1a1.131,1.131,0,0,0-1.13,1.13V32.6A1.131,1.131,0,0,0,38.1,33.728Zm.028-3.859h2.7v2.7h-2.7Z" fill="#0a0c1b"/>
  </g>
</svg>
