<svg xmlns="http://www.w3.org/2000/svg" width="42.347" height="39.516" viewBox="0 0 42.347 39.516">
  <g id="repeate" transform="translate(0 -17.107)">
    <g id="Group_584" data-name="Group 584" transform="translate(17.686 24.838)">
      <g id="Group_583" data-name="Group 583">
        <path id="Path_1073" data-name="Path 1073" d="M226.476,110.582a1.516,1.516,0,1,0,0,3.032,8.995,8.995,0,0,1,0,17.99H215.359a1.516,1.516,0,1,0,0,3.032h11.117a12.027,12.027,0,0,0,0-24.054Z" transform="translate(-213.843 -110.582)" fill="#0a0c1b"/>
      </g>
    </g>
    <g id="Group_586" data-name="Group 586" transform="translate(17.687 38.078)">
      <g id="Group_585" data-name="Group 585" transform="translate(0 0)">
        <path id="Path_1074" data-name="Path 1074" d="M217.36,279.958l5.822-6.792a1.516,1.516,0,0,0-2.3-1.973l-6.671,7.782a1.515,1.515,0,0,0,0,1.977l6.67,7.731a1.516,1.516,0,0,0,2.3-1.981Z" transform="translate(-213.845 -270.664)" fill="#0a0c1b"/>
      </g>
    </g>
    <g id="Group_588" data-name="Group 588" transform="translate(0 24.838)">
      <g id="Group_587" data-name="Group 587">
        <path id="Path_1075" data-name="Path 1075" d="M23.144,110.582H12.027a12.027,12.027,0,0,0,0,24.054,1.516,1.516,0,0,0,0-3.032,8.995,8.995,0,0,1,0-17.99H23.144a1.516,1.516,0,0,0,0-3.032Z" transform="translate(0 -110.582)" fill="#0a0c1b"/>
      </g>
    </g>
    <g id="Group_590" data-name="Group 590" transform="translate(14.958 17.107)">
      <g id="Group_589" data-name="Group 589">
        <path id="Path_1076" data-name="Path 1076" d="M190.184,25.364l-6.67-7.731a1.516,1.516,0,1,0-2.3,1.98l5.818,6.745-5.822,6.793a1.516,1.516,0,0,0,2.3,1.973l6.67-7.782A1.516,1.516,0,0,0,190.184,25.364Z" transform="translate(-180.85 -17.107)" fill="#0a0c1b"/>
      </g>
    </g>
  </g>
</svg>
