<svg xmlns="http://www.w3.org/2000/svg" width="296.243" height="229.511" viewBox="0 0 296.243 229.511">
  <g id="books-02" transform="translate(0.001 -36.758)" opacity="0.03">
    <g id="Group_77" data-name="Group 77" transform="translate(-0.001 36.758)">
      <path id="Path_134" data-name="Path 134" d="M275.109,106.092c-1.2-8.938-1.367-24.332,7-29.5a3.13,3.13,0,0,0,.392-.349c6.838-2.171,11.571-5.217,7.856-9.317L189.477,36.758,26.134,59.3S7.429,61.951,9.1,90.793c.907,15.7,5.868,23.407,10.206,27.2L5.9,122c-3.72,4.1,1.011,7.147,7.851,9.314a2.7,2.7,0,0,0,.392.352c8.359,5.173,8.2,20.566,7,29.505C-8.89,169.638,1.89,172.4,1.89,172.4l6.587,1.582C3.844,178.133-.758,186.014.1,200.959,1.776,229.8,17.14,231.786,17.14,231.786l106.891,34.482L285.37,227.483s10.783-2.762-19.255-11.226c-1.208-8.925-1.376-24.316,7-29.5a2.464,2.464,0,0,0,.391-.347c6.839-2.171,11.568-5.215,7.852-9.314l-7.013-2.1c4.677-2.8,11.7-10.114,12.8-29.117.759-13.071-2.676-20.726-6.653-25.232l13.861-3.329C294.359,117.318,305.143,114.556,275.109,106.092Zm-134.95-.369,27.131-5.534,91.688-18.7,13.66-2.789c-4.365,7.929-4.182,18.779-3.46,25.753.158,1.578.34,3.018.517,4.114l-14.952,3.69L139.018,140.829ZM23.614,133.786l13.658,2.789,88.053,17.965,7.693,1.564h0l23.069,4.706,1.138,35.107L38.284,166.547l-11.726-2.892c.172-1.1.355-2.536.52-4.118C27.8,152.568,27.983,141.715,23.614,133.786ZM18.308,89.4c-.165-7.672,1.212-13.22,4-16.04a7.286,7.286,0,0,1,5.3-2.175,9.049,9.049,0,0,1,1.34.1l70.38,22.773,35.114,11.362-1.152,35.352-98.508-27.41-5.2-1.445a3.17,3.17,0,0,0-.65-.1C28.521,111.8,18.782,110.908,18.308,89.4ZM124.285,250.953,20.582,222.1a3.106,3.106,0,0,0-.648-.1c-.413-.027-10.157-.916-10.628-22.414-.168-7.681,1.217-13.224,4-16.047a7.3,7.3,0,0,1,5.3-2.175,9.434,9.434,0,0,1,1.343.1h0L125.43,215.6Zm135.89-36.333c.164,1.583.346,3.021.522,4.118L130.018,251,131.16,215.9l27.938-5.7,4.126.991,15.465-4.988,71.286-14.539,13.665-2.79C259.271,196.8,259.452,207.651,260.176,214.62Zm7.2-47.712a2.528,2.528,0,0,0-.7.107l-9.856,2.739L162.974,195.87l-1.148-35.352,30.79-9.967,74.553-24.131a7.808,7.808,0,0,1,6.793,2.031c2.78,2.82,4.159,8.368,4,16.04C277.472,165.987,267.729,166.881,267.374,166.908Z" transform="translate(0.001 -36.758)" fill="#f8f8f8"/>
    </g>
  </g>
</svg>
