<svg xmlns="http://www.w3.org/2000/svg" width="1347.264" height="751.059" viewBox="0 0 1347.264 751.059">
  <g id="Group_602" data-name="Group 602" transform="translate(-17.445 0.126)">
    <g id="Ellipse_120" data-name="Ellipse 120" transform="translate(1110.099 725.765)" fill="none" stroke="#fe9f9d" stroke-width="1">
      <circle cx="4.525" cy="4.525" r="4.525" stroke="none"/>
      <circle cx="4.525" cy="4.525" r="4.025" fill="none"/>
    </g>
    <g id="Ellipse_119" data-name="Ellipse 119" transform="translate(1223.837 623.306)" fill="none" stroke="#fe9f9d" stroke-width="1">
      <circle cx="5.943" cy="5.943" r="5.943" stroke="none"/>
      <circle cx="5.943" cy="5.943" r="5.443" fill="none"/>
    </g>
    <g id="Ellipse_118" data-name="Ellipse 118" transform="translate(1290.792 577.992)" fill="none" stroke="#fe9f9d" stroke-width="1">
      <circle cx="4.726" cy="4.726" r="4.726" stroke="none"/>
      <circle cx="4.726" cy="4.726" r="4.226" fill="none"/>
    </g>
    <g id="Ellipse_117" data-name="Ellipse 117" transform="translate(1235.885 494.225)" fill="none" stroke="#fe9f9d" stroke-width="1">
      <circle cx="6.547" cy="6.547" r="6.547" stroke="none"/>
      <circle cx="6.547" cy="6.547" r="6.047" fill="none"/>
    </g>
    <g id="Ellipse_116" data-name="Ellipse 116" transform="translate(1204.824 429.391)" fill="none" stroke="#fe9f9d" stroke-width="1">
      <circle cx="4.801" cy="4.801" r="4.801" stroke="none"/>
      <circle cx="4.801" cy="4.801" r="4.301" fill="none"/>
    </g>
    <g id="Ellipse_115" data-name="Ellipse 115" transform="translate(1093.106 371.349)" fill="none" stroke="#fe9f9d" stroke-width="1">
      <circle cx="6.07" cy="6.07" r="6.07" stroke="none"/>
      <circle cx="6.07" cy="6.07" r="5.57" fill="none"/>
    </g>
    <g id="Ellipse_114" data-name="Ellipse 114" transform="translate(1263.392 300.114)" fill="none" stroke="#fe9f9d" stroke-width="1">
      <circle cx="5.034" cy="5.034" r="5.034" stroke="none"/>
      <circle cx="5.034" cy="5.034" r="4.534" fill="none"/>
    </g>
    <g id="Ellipse_113" data-name="Ellipse 113" transform="translate(1246.922 193.26)" fill="none" stroke="#fe9f9d" stroke-width="1">
      <circle cx="5.536" cy="5.536" r="5.536" stroke="none"/>
      <circle cx="5.536" cy="5.536" r="5.036" fill="none"/>
    </g>
    <g id="Ellipse_112" data-name="Ellipse 112" transform="translate(1215.719 83.305)" fill="none" stroke="#fe9f9d" stroke-width="1">
      <circle cx="6.786" cy="6.786" r="6.786" stroke="none"/>
      <circle cx="6.786" cy="6.786" r="6.286" fill="none"/>
    </g>
    <g id="Ellipse_111" data-name="Ellipse 111" transform="translate(1351.621 46.064)" fill="none" stroke="#fe9f9d" stroke-width="1">
      <circle cx="6.544" cy="6.544" r="6.544" stroke="none"/>
      <circle cx="6.544" cy="6.544" r="6.044" fill="none"/>
    </g>
    <g id="Ellipse_110" data-name="Ellipse 110" transform="translate(842.955 709.716)" fill="none" stroke="#fe9f9d" stroke-width="1">
      <circle cx="3.79" cy="3.79" r="3.79" stroke="none"/>
      <circle cx="3.79" cy="3.79" r="3.29" fill="none"/>
    </g>
    <g id="Ellipse_109" data-name="Ellipse 109" transform="translate(962.546 629.869)" fill="none" stroke="#fe9f9d" stroke-width="1">
      <circle cx="5.368" cy="5.368" r="5.368" stroke="none"/>
      <circle cx="5.368" cy="5.368" r="4.868" fill="none"/>
    </g>
    <g id="Ellipse_108" data-name="Ellipse 108" transform="translate(1072.431 564.862)" fill="none" stroke="#fe9f9d" stroke-width="1">
      <circle cx="3.65" cy="3.65" r="3.65" stroke="none"/>
      <circle cx="3.65" cy="3.65" r="3.15" fill="none"/>
    </g>
    <g id="Ellipse_107" data-name="Ellipse 107" transform="translate(955.757 468.781)" fill="none" stroke="#fe9f9d" stroke-width="1">
      <circle cx="4.29" cy="4.29" r="4.29" stroke="none"/>
      <circle cx="4.29" cy="4.29" r="3.79" fill="none"/>
    </g>
    <g id="Ellipse_106" data-name="Ellipse 106" transform="translate(1065.213 435.271)" fill="none" stroke="#fe9f9d" stroke-width="1">
      <circle cx="6.279" cy="6.279" r="6.279" stroke="none"/>
      <circle cx="6.279" cy="6.279" r="5.779" fill="none"/>
    </g>
    <g id="Ellipse_105" data-name="Ellipse 105" transform="translate(1047.971 319.889)" fill="none" stroke="#fe9f9d" stroke-width="1">
      <circle cx="5.27" cy="5.27" r="5.27" stroke="none"/>
      <circle cx="5.27" cy="5.27" r="4.77" fill="none"/>
    </g>
    <g id="Ellipse_104" data-name="Ellipse 104" transform="translate(1023.83 228.63)" fill="none" stroke="#fe9f9d" stroke-width="1">
      <circle cx="4.836" cy="4.836" r="4.836" stroke="none"/>
      <circle cx="4.836" cy="4.836" r="4.336" fill="none"/>
    </g>
    <g id="Ellipse_103" data-name="Ellipse 103" transform="translate(1000.005 166.38)" fill="none" stroke="#fe9f9d" stroke-width="1">
      <circle cx="6.454" cy="6.454" r="6.454" stroke="none"/>
      <circle cx="6.454" cy="6.454" r="5.954" fill="none"/>
    </g>
    <g id="Ellipse_102" data-name="Ellipse 102" transform="translate(1068.139 144.521)" fill="none" stroke="#fe9f9d" stroke-width="1">
      <circle cx="6.705" cy="6.705" r="6.705" stroke="none"/>
      <circle cx="6.705" cy="6.705" r="6.205" fill="none"/>
    </g>
    <g id="Ellipse_101" data-name="Ellipse 101" transform="translate(1059.283 0.549)" fill="none" stroke="#fe9f9d" stroke-width="1">
      <circle cx="4.306" cy="4.306" r="4.306" stroke="none"/>
      <circle cx="4.306" cy="4.306" r="3.806" fill="none"/>
    </g>
    <g id="Ellipse_100" data-name="Ellipse 100" transform="translate(638.479 743.473)" fill="none" stroke="#fe9f9d" stroke-width="1">
      <circle cx="3.73" cy="3.73" r="3.73" stroke="none"/>
      <circle cx="3.73" cy="3.73" r="3.23" fill="none"/>
    </g>
    <g id="Ellipse_99" data-name="Ellipse 99" transform="translate(620.663 666.539)" fill="none" stroke="#fe9f9d" stroke-width="1">
      <circle cx="5.147" cy="5.147" r="5.147" stroke="none"/>
      <circle cx="5.147" cy="5.147" r="4.647" fill="none"/>
    </g>
    <g id="Ellipse_98" data-name="Ellipse 98" transform="translate(813.195 570.031)" fill="none" stroke="#fe9f9d" stroke-width="1">
      <circle cx="6.982" cy="6.982" r="6.982" stroke="none"/>
      <circle cx="6.982" cy="6.982" r="6.482" fill="none"/>
    </g>
    <g id="Ellipse_97" data-name="Ellipse 97" transform="translate(658.955 521.759)" fill="none" stroke="#fe9f9d" stroke-width="1">
      <circle cx="3.756" cy="3.756" r="3.756" stroke="none"/>
      <circle cx="3.756" cy="3.756" r="3.256" fill="none"/>
    </g>
    <g id="Ellipse_96" data-name="Ellipse 96" transform="translate(692.621 447.652)" fill="none" stroke="#fe9f9d" stroke-width="1">
      <circle cx="4.244" cy="4.244" r="4.244" stroke="none"/>
      <circle cx="4.244" cy="4.244" r="3.744" fill="none"/>
    </g>
    <g id="Ellipse_95" data-name="Ellipse 95" transform="translate(712.466 342.625)" fill="none" stroke="#fe9f9d" stroke-width="1">
      <circle cx="5.766" cy="5.766" r="5.766" stroke="none"/>
      <circle cx="5.766" cy="5.766" r="5.266" fill="none"/>
    </g>
    <g id="Ellipse_94" data-name="Ellipse 94" transform="translate(750.318 300.054)" fill="none" stroke="#fe9f9d" stroke-width="1">
      <circle cx="6.22" cy="6.22" r="6.22" stroke="none"/>
      <circle cx="6.22" cy="6.22" r="5.72" fill="none"/>
    </g>
    <g id="Ellipse_93" data-name="Ellipse 93" transform="translate(756.917 175.014)" fill="none" stroke="#fe9f9d" stroke-width="1">
      <circle cx="5.069" cy="5.069" r="5.069" stroke="none"/>
      <circle cx="5.069" cy="5.069" r="4.569" fill="none"/>
    </g>
    <g id="Ellipse_92" data-name="Ellipse 92" transform="translate(713.841 99.019)" fill="none" stroke="#fe9f9d" stroke-width="1">
      <circle cx="5.804" cy="5.804" r="5.804" stroke="none"/>
      <circle cx="5.804" cy="5.804" r="5.304" fill="none"/>
    </g>
    <g id="Ellipse_91" data-name="Ellipse 91" transform="translate(568.032 57.279)" fill="none" stroke="#fe9f9d" stroke-width="1">
      <circle cx="6.677" cy="6.677" r="6.677" stroke="none"/>
      <circle cx="6.677" cy="6.677" r="6.177" fill="none"/>
    </g>
    <g id="Ellipse_90" data-name="Ellipse 90" transform="translate(486.378 701.034)" fill="none" stroke="#fe9f9d" stroke-width="1">
      <circle cx="5.523" cy="5.523" r="5.523" stroke="none"/>
      <circle cx="5.523" cy="5.523" r="5.023" fill="none"/>
    </g>
    <g id="Ellipse_89" data-name="Ellipse 89" transform="translate(319.938 655.084)" fill="none" stroke="#fe9f9d" stroke-width="1">
      <circle cx="3.585" cy="3.585" r="3.585" stroke="none"/>
      <circle cx="3.585" cy="3.585" r="3.085" fill="none"/>
    </g>
    <g id="Ellipse_88" data-name="Ellipse 88" transform="translate(528.75 556.345)" fill="none" stroke="#fe9f9d" stroke-width="1">
      <circle cx="3.978" cy="3.978" r="3.978" stroke="none"/>
      <circle cx="3.978" cy="3.978" r="3.478" fill="none"/>
    </g>
    <g id="Ellipse_87" data-name="Ellipse 87" transform="translate(453.509 524.971)" fill="none" stroke="#fe9f9d" stroke-width="1">
      <circle cx="5.666" cy="5.666" r="5.666" stroke="none"/>
      <circle cx="5.666" cy="5.666" r="5.166" fill="none"/>
    </g>
    <g id="Ellipse_86" data-name="Ellipse 86" transform="translate(290.876 419.592)" fill="none" stroke="#fe9f9d" stroke-width="1">
      <circle cx="3.793" cy="3.793" r="3.793" stroke="none"/>
      <circle cx="3.793" cy="3.793" r="3.293" fill="none"/>
    </g>
    <g id="Ellipse_85" data-name="Ellipse 85" transform="translate(471.976 304.087)" fill="none" stroke="#fe9f9d" stroke-width="1">
      <circle cx="4.467" cy="4.467" r="4.467" stroke="none"/>
      <circle cx="4.467" cy="4.467" r="3.967" fill="none"/>
    </g>
    <g id="Ellipse_84" data-name="Ellipse 84" transform="translate(535.778 225.904)" fill="none" stroke="#fe9f9d" stroke-width="1">
      <circle cx="4.005" cy="4.005" r="4.005" stroke="none"/>
      <circle cx="4.005" cy="4.005" r="3.505" fill="none"/>
    </g>
    <g id="Ellipse_83" data-name="Ellipse 83" transform="translate(363.444 222.799)" fill="none" stroke="#fe9f9d" stroke-width="1">
      <circle cx="6.512" cy="6.512" r="6.512" stroke="none"/>
      <circle cx="6.512" cy="6.512" r="6.012" fill="none"/>
    </g>
    <g id="Ellipse_82" data-name="Ellipse 82" transform="translate(284.022 127.56)" fill="none" stroke="#fe9f9d" stroke-width="1">
      <circle cx="5.025" cy="5.025" r="5.025" stroke="none"/>
      <circle cx="5.025" cy="5.025" r="4.525" fill="none"/>
    </g>
    <g id="Ellipse_81" data-name="Ellipse 81" transform="translate(317.293 70.922)" fill="none" stroke="#fe9f9d" stroke-width="1">
      <circle cx="6.579" cy="6.579" r="6.579" stroke="none"/>
      <circle cx="6.579" cy="6.579" r="6.079" fill="none"/>
    </g>
    <g id="Ellipse_80" data-name="Ellipse 80" transform="translate(75.267 688.313)" fill="none" stroke="#fe9f9d" stroke-width="1">
      <circle cx="5.282" cy="5.282" r="5.282" stroke="none"/>
      <circle cx="5.282" cy="5.282" r="4.782" fill="none"/>
    </g>
    <g id="Ellipse_79" data-name="Ellipse 79" transform="translate(215.963 623.966)" fill="none" stroke="#fe9f9d" stroke-width="1">
      <circle cx="3.659" cy="3.659" r="3.659" stroke="none"/>
      <circle cx="3.659" cy="3.659" r="3.159" fill="none"/>
    </g>
    <g id="Ellipse_78" data-name="Ellipse 78" transform="translate(172.583 545.829)" fill="none" stroke="#fe9f9d" stroke-width="1">
      <circle cx="3.836" cy="3.836" r="3.836" stroke="none"/>
      <circle cx="3.836" cy="3.836" r="3.336" fill="none"/>
    </g>
    <g id="Ellipse_77" data-name="Ellipse 77" transform="translate(17.445 513.161)" fill="none" stroke="#fe9f9d" stroke-width="1">
      <circle cx="3.508" cy="3.508" r="3.508" stroke="none"/>
      <circle cx="3.508" cy="3.508" r="3.008" fill="none"/>
    </g>
    <g id="Ellipse_76" data-name="Ellipse 76" transform="translate(260.982 405.845)" fill="none" stroke="#fe9f9d" stroke-width="1">
      <circle cx="5.507" cy="5.507" r="5.507" stroke="none"/>
      <circle cx="5.507" cy="5.507" r="5.007" fill="none"/>
    </g>
    <g id="Ellipse_75" data-name="Ellipse 75" transform="translate(209.853 374.297)" fill="none" stroke="#fe9f9d" stroke-width="1">
      <circle cx="5.108" cy="5.108" r="5.108" stroke="none"/>
      <circle cx="5.108" cy="5.108" r="4.608" fill="none"/>
    </g>
    <g id="Ellipse_74" data-name="Ellipse 74" transform="translate(170.065 265.543)" fill="none" stroke="#fe9f9d" stroke-width="1">
      <circle cx="6.09" cy="6.09" r="6.09" stroke="none"/>
      <circle cx="6.09" cy="6.09" r="5.59" fill="none"/>
    </g>
    <g id="Ellipse_73" data-name="Ellipse 73" transform="translate(44.795 205.777)" fill="none" stroke="#fe9f9d" stroke-width="1">
      <circle cx="4.481" cy="4.481" r="4.481" stroke="none"/>
      <circle cx="4.481" cy="4.481" r="3.981" fill="none"/>
    </g>
    <g id="Ellipse_72" data-name="Ellipse 72" transform="translate(145.869 104.42)" fill="none" stroke="#fe9f9d" stroke-width="1">
      <circle cx="4.49" cy="4.49" r="4.49" stroke="none"/>
      <circle cx="4.49" cy="4.49" r="3.99" fill="none"/>
    </g>
    <g id="Ellipse_71" data-name="Ellipse 71" transform="translate(41.613 -0.126)" fill="none" stroke="#fe9f9d" stroke-width="1">
      <circle cx="5.711" cy="5.711" r="5.711" stroke="none"/>
      <circle cx="5.711" cy="5.711" r="5.211" fill="none"/>
    </g>
  </g>
</svg>
