<svg xmlns="http://www.w3.org/2000/svg" xmlns:xlink="http://www.w3.org/1999/xlink" width="432" height="353.099" viewBox="0 0 432 353.099">
  <defs>
    <linearGradient id="linear-gradient" x1="0.5" y1="1" x2="0.5" gradientUnits="objectBoundingBox">
      <stop offset="0" stop-color="gray" stop-opacity="0.251"/>
      <stop offset="0.54" stop-color="gray" stop-opacity="0.122"/>
      <stop offset="1" stop-color="gray" stop-opacity="0.102"/>
    </linearGradient>
  </defs>
  <g id="less" transform="translate(0 9.65)">
    <path id="Path_332" data-name="Path 332" d="M349.619,116.489c-27.335-.95-53.373-9.773-78.232-19.428S221.9,76.708,195.223,71.593c-17.16-3.29-36.787-3.755-50.611,5.444C131.3,85.906,127,101.174,124.695,115.357c-1.74,10.669-2.762,21.895,2.006,31.883,3.307,6.935,9.182,12.764,13.241,19.428,14.136,23.111,4.147,51.612-11.171,74.178-7.18,10.588-15.521,20.7-21.063,31.955s-8.109,24.18-3.261,35.676c4.811,11.4,16.269,19.952,28.678,25.97,25.21,12.227,54.906,15.724,83.883,17.705,64.126,4.388,128.59,2.488,192.884.587,23.8-.705,47.692-1.419,71.1-5.1,13-2.044,26.418-5.284,35.858-13.114,11.978-9.938,14.947-26.769,6.922-39.228-13.469-20.9-50.682-26.093-60.109-48.528-5.178-12.345.144-26.1,7.67-37.551,16.151-24.564,43.219-46.117,44.647-74.195.98-19.289-12.037-38.6-32.158-47.726-21.088-9.6-50.34-8.384-65.891,7.45C401.906,111.066,373.752,117.325,349.619,116.489Z" transform="translate(-96.266 -58.445)" fill="#c4ffbd" opacity="0.1"/>
    <path id="Path_333" data-name="Path 333" d="M218.087,521.584l-144.563-.705L59.16,487.188l50.792-3.687L101.1,446.562l100.461-13.021-96.2-33.442,8.5-2.019,154.687,25.236-8.519,57.647L247.85,512.643Z" transform="translate(-34.174 -229.945)" fill="#c4ffbd"/>
    <path id="Path_334" data-name="Path 334" d="M187,698.651s8.869-1.419,14.191,4.849c0,0-3.9,3.075-12.3-1.183Z" transform="translate(-145.432 -421.829)" fill="#c4ffbd"/>
    <path id="Path_335" data-name="Path 335" d="M179.816,698.51s-5.66,6.965-2.872,14.719c0,0,4.612-1.846,5.115-11.247Z" transform="translate(-139.178 -421.827)" fill="#c4ffbd"/>
    <path id="Path_336" data-name="Path 336" d="M172.76,668.319s3.548-6.508,17.739,2.6c0,0-1.892,4.375-8.16,4.021S174.416,671.749,172.76,668.319Z" transform="translate(-137.206 -403.086)" fill="#c4ffbd"/>
    <path id="Path_337" data-name="Path 337" d="M159.545,670.28s-7.362-.845-8.075,16.007c0,0,4.667.967,7.982-4.363S161.408,673.6,159.545,670.28Z" transform="translate(-124.908 -405.516)" fill="#c4ffbd"/>
    <path id="Path_338" data-name="Path 338" d="M160.44,629.923s4.139-11.471,19.158-3.311c0,0-3.43,10.525-17.621,7.214Z" transform="translate(-130.09 -378.602)" fill="#c4ffbd"/>
    <path id="Path_339" data-name="Path 339" d="M149.52,590.46s7.805-11.589,21.641-.845c0,0-4.849,10.88-20.459,4.967Z" transform="translate(-123.782 -356.286)" fill="#c4ffbd"/>
    <path id="Path_340" data-name="Path 340" d="M145.6,552.748s9.106-10.647,22.807,0c0,0-8.633,9.342-22.807,2.72Z" transform="translate(-121.517 -334.894)" fill="#c4ffbd"/>
    <path id="Path_341" data-name="Path 341" d="M142.24,514.687s9.224-11.116,22.351-.591c0,0-10.407,9.816-22.351,3.193Z" transform="translate(-119.577 -312.684)" fill="#c4ffbd"/>
    <path id="Path_342" data-name="Path 342" d="M144.2,477.452s9.714-14.309,22-4.612c0,0-10.407,12.3-22,7.332Z" transform="translate(-120.709 -289.522)" fill="#c4ffbd"/>
    <path id="Path_343" data-name="Path 343" d="M149.52,439.307s10.289-14.191,22.233-3.311c0,0-12.181,12.3-22.233,5.913Z" transform="translate(-123.782 -267.815)" fill="#c4ffbd"/>
    <path id="Path_344" data-name="Path 344" d="M156.912,401.974s12.181-13.338,22.807-8.025c0,0-12.692,14.166-23.339,11.564Z" transform="translate(-127.744 -245.176)" fill="#c4ffbd"/>
    <path id="Path_345" data-name="Path 345" d="M166.357,365.274s14.056-16.337,22.233-10.88c0,0-10.356,12.671-23.229,13.938Z" transform="translate(-132.932 -222.405)" fill="#c4ffbd"/>
    <path id="Path_346" data-name="Path 346" d="M180.011,328.994s12.3-13.338,21.291-10.027c0,0-10.525,13.836-22.942,14.191Z" transform="translate(-140.441 -202.28)" fill="#c4ffbd"/>
    <path id="Path_347" data-name="Path 347" d="M194.631,292.892s13.6-12.772,19.513-10.525c0,0-9.816,14.191-20.1,13.363Z" transform="translate(-149.499 -181.29)" fill="#c4ffbd"/>
    <path id="Path_348" data-name="Path 348" d="M208.32,255.268s11.708-15.26,18.1-14.077c0,0-7.1,13.6-18.1,15.627Z" transform="translate(-157.747 -157.62)" fill="#c4ffbd"/>
    <path id="Path_349" data-name="Path 349" d="M221.717,214.1s10.348-11.695,15.94-11.67c0,0-8.168,15.627-16.366,15.483Z" transform="translate(-165.24 -135.267)" fill="#c4ffbd"/>
    <path id="Path_350" data-name="Path 350" d="M228.841,167.081l10-24.361s.5,22.021-11.268,28.88Z" transform="translate(-168.867 -100.776)" fill="#c4ffbd"/>
    <path id="Path_351" data-name="Path 351" d="M240.1,106.7s1.656-20.345.591-22c0,0,7.146,16.915-.659,30.988Z" transform="translate(-176.065 -67.261)" fill="#c4ffbd"/>
    <path id="Path_352" data-name="Path 352" d="M136.166,636.042s-10.365-6.424-17.076,9.292c0,0,9.224,6.124,18.3-5.284Z" transform="translate(-106.204 -384.991)" fill="#c4ffbd"/>
    <path id="Path_353" data-name="Path 353" d="M122.909,594.95s-12.713-5.8-18.879,10.609c0,0,9.82,6.758,20.036-6.462Z" transform="translate(-97.505 -361.431)" fill="#c4ffbd"/>
    <path id="Path_354" data-name="Path 354" d="M113.007,555.058s-9.106-10.648-22.807,0c0,0,8.633,9.342,22.807,2.72Z" transform="translate(-89.516 -336.228)" fill="#c4ffbd"/>
    <path id="Path_355" data-name="Path 355" d="M110.931,514.687s-9.224-11.116-22.351-.591c0,0,10.407,9.816,22.351,3.193Z" transform="translate(-88.58 -312.684)" fill="#c4ffbd"/>
    <path id="Path_356" data-name="Path 356" d="M116.115,474.481s-6.47-16.028-20.535-9.135c0,0,7.6,14.212,19.96,11.8Z" transform="translate(-92.624 -286.145)" fill="#c4ffbd"/>
    <path id="Path_357" data-name="Path 357" d="M123.145,434.561s-6.432-16.307-20.7-8.747c0,0,8.734,14.947,20.062,11.264Z" transform="translate(-96.592 -263.149)" fill="#c4ffbd"/>
    <path id="Path_358" data-name="Path 358" d="M141.25,388.209s-2.534-17.878-14.36-19.479c0,0,2.509,18.854,12.768,22.7Z" transform="translate(-110.71 -231.33)" fill="#c4ffbd"/>
    <path id="Path_359" data-name="Path 359" d="M153.706,351.272s-.988-21.54-10.766-22.292c0,0,.329,16.349,9.663,25.341Z" transform="translate(-119.981 -208.369)" fill="#c4ffbd"/>
    <path id="Path_360" data-name="Path 360" d="M167.918,314.51S165,296.6,155.67,294.41c0,0,1.157,17.346,11.323,24.5Z" transform="translate(-127.334 -188.399)" fill="#c4ffbd"/>
    <path id="Path_361" data-name="Path 361" d="M189.018,278.731s-.1-18.66-5.8-21.4c0,0-3.535,16.894,4.147,23.783Z" transform="translate(-142.779 -166.98)" fill="#c4ffbd"/>
    <path id="Path_362" data-name="Path 362" d="M199.864,244.13s-.8-19.213-6.7-21.92c0,0-2.019,15.2,5.82,23.179Z" transform="translate(-148.856 -146.693)" fill="#c4ffbd"/>
    <path id="Path_363" data-name="Path 363" d="M216.556,207.3s-.034-15.627-4.249-19.293c0,0-4.19,17.118,2.048,22.435Z" transform="translate(-159.255 -126.938)" fill="#c4ffbd"/>
    <path id="Path_364" data-name="Path 364" d="M221.658,163.008,217.557,137s-5.571,21.312,4.3,30.705Z" transform="translate(-162.178 -97.472)" fill="#c4ffbd"/>
    <path id="Path_365" data-name="Path 365" d="M217.2,110.8S206.67,93.313,206.886,91.37c0,0,1.119,18.326,14.36,27.453Z" transform="translate(-156.917 -71.114)" fill="#c4ffbd"/>
    <path id="Path_366" data-name="Path 366" d="M214.488,88.425S204.554,63.59,200.06,61.58c0,0,14.191,7.214,15.255,26.135Z" transform="translate(-152.976 -53.906)" fill="#c4ffbd"/>
    <path id="Path_367" data-name="Path 367" d="M220.24,171.243l-.68-.207c8.384-27.339,10.474-44.769,5.892-49.141l.486-.515C230.8,125.992,228.826,143.233,220.24,171.243Z" transform="translate(-164.24 -88.449)" fill="#444053"/>
    <path id="Path_368" data-name="Path 368" d="M165.135,300.719l-1.005-.359c.891-2.5,1.85-5.047,2.855-7.552,8.751-21.81,16.2-42.1,20.978-57.676l.874-.422c-4.785,15.606-12.1,36.673-20.864,58.513C166.972,295.681,166.018,298.211,165.135,300.719Z" transform="translate(-132.221 -153.914)" fill="#444053"/>
    <path id="Path_369" data-name="Path 369" d="M172.259,538.229c-.135-.148-13.722-15.45-23.2-41.572a153.811,153.811,0,0,1-9.152-47.633c-.65-20.328,3.615-43.025,10.922-63.644l.794.929c-16.4,46.277-9.887,85.932-1.242,109.812,9.372,25.886,22.807,41.019,22.938,41.171Z" transform="translate(-118.194 -240.948)" fill="#444053"/>
    <path id="Path_370" data-name="Path 370" d="M597.4,670.36s-9.575,11.686-1.972,29.354l-76.446,33.155-7.336,1.537-3.379-14.782,2.26-18.655v-10.2Z" transform="translate(-331.013 -405.566)" fill="#d5d6db"/>
    <path id="Path_371" data-name="Path 371" d="M59.16,582.679,164.968,563.39l140.2,22.334-87.081,31.351Z" transform="translate(-34.174 -325.436)" fill="#c4ffbd"/>
    <path id="Path_372" data-name="Path 372" d="M59.16,582.679,164.968,563.39l140.2,22.334-87.081,31.351Z" transform="translate(-34.174 -325.436)" fill="#c4ffbd"/>
    <path id="Path_373" data-name="Path 373" d="M142.292,652.47s-9.9,18.748,1.508,36.065l156.9,34s-9.739-14.934.5-35.664Z" transform="translate(-117.306 -395.232)" fill="#c4ffbd"/>
    <path id="Path_374" data-name="Path 374" d="M142.292,652.47s-9.9,18.748,1.508,36.065l156.9,34s-9.739-14.934.5-35.664Z" transform="translate(-117.306 -395.232)" opacity="0.1"/>
    <path id="Path_375" data-name="Path 375" d="M155.372,667.86s-5.655,13.718,0,22.6" transform="translate(-125.711 -404.122)" opacity="0.1"/>
    <path id="Path_376" data-name="Path 376" d="M308.214,767.238l87.6-37.378s4.9,1.056,1.732,4.646S309.9,770.828,309.9,770.828L151.31,733.239Z" transform="translate(-124.816 -439.936)" fill="#c4ffbd"/>
    <path id="Path_377" data-name="Path 377" d="M308.214,767.238l87.6-37.378s4.9,1.056,1.732,4.646S309.9,770.828,309.9,770.828L151.31,733.239Z" transform="translate(-124.816 -439.936)" opacity="0.1"/>
    <path id="Path_378" data-name="Path 378" d="M500.675,742.86s-8.447,10.137,0,25.341" transform="translate(-324.457 -447.445)" opacity="0.1"/>
    <rect id="Rectangle_280" data-name="Rectangle 280" width="39.942" height="0.422" transform="translate(179.226 307.883) rotate(-18.45)" opacity="0.1"/>
    <rect id="Rectangle_281" data-name="Rectangle 281" width="48.668" height="0.422" transform="translate(179.211 311.284) rotate(-20.82)" opacity="0.1"/>
    <rect id="Rectangle_282" data-name="Rectangle 282" width="56.409" height="0.422" transform="translate(179.466 315.292) rotate(-22.26)" opacity="0.1"/>
    <rect id="Rectangle_283" data-name="Rectangle 283" width="64.933" height="0.422" transform="translate(180.074 318.826) rotate(-24.31)" opacity="0.1"/>
    <rect id="Rectangle_284" data-name="Rectangle 284" width="71.019" height="0.422" transform="matrix(0.916, -0.401, 0.401, 0.916, 180.544, 320.546)" opacity="0.1"/>
    <rect id="Rectangle_285" data-name="Rectangle 285" width="84.986" height="0.422" transform="translate(181.526 323.435) rotate(-23.36)" opacity="0.1"/>
    <path id="Path_379" data-name="Path 379" d="M152.23,592.567l74.334-15.627,45.285,8.658-60.912,19.639Z" transform="translate(-87.935 -333.263)" fill="#fff" opacity="0.3"/>
    <path id="Path_380" data-name="Path 380" d="M611.093,659.69s3.843,1.55,1.588,3.945S524,691.041,524,691.041Z" transform="translate(-340.099 -399.402)" fill="#c4ffbd"/>
    <path id="Path_381" data-name="Path 381" d="M696.7,574.18s-9.57,11.682-1.968,29.354l-76.446,33.155-7.336,1.546-3.379-14.782,2.294-18.651V594.592Z" transform="translate(-388.373 -350.008)" fill="#d5d6db"/>
    <path id="Path_382" data-name="Path 382" d="M158.46,486.495l105.8-19.285,140.2,22.334L317.387,520.9Z" transform="translate(-91.534 -269.878)" fill="#3a3768"/>
    <path id="Path_383" data-name="Path 383" d="M241.548,556.29s-9.9,18.748,1.5,36.065l156.9,34s-9.735-14.947.519-35.668Z" transform="translate(-174.639 -339.674)" fill="#3a3768"/>
    <path id="Path_384" data-name="Path 384" d="M241.548,556.29s-9.9,18.748,1.5,36.065l156.9,34s-9.735-14.947.519-35.668l-49.618-10.741Z" transform="translate(-174.639 -339.674)" opacity="0.1"/>
    <path id="Path_385" data-name="Path 385" d="M254.665,571.68s-5.651,13.714,0,22.6" transform="translate(-183.068 -348.564)" opacity="0.1"/>
    <path id="Path_386" data-name="Path 386" d="M407.5,671.058l87.6-37.378s4.9,1.056,1.727,4.646-87.638,36.322-87.638,36.322L250.6,637.059Z" transform="translate(-182.17 -384.378)" fill="#3a3768"/>
    <path id="Path_387" data-name="Path 387" d="M407.5,671.058l87.6-37.378s4.9,1.056,1.727,4.646-87.638,36.322-87.638,36.322L250.6,637.059Z" transform="translate(-182.17 -384.378)" opacity="0.1"/>
    <path id="Path_388" data-name="Path 388" d="M599.965,646.68s-8.447,10.136,0,25.341" transform="translate(-381.812 -391.887)" opacity="0.1"/>
    <rect id="Rectangle_286" data-name="Rectangle 286" width="39.942" height="0.422" transform="translate(221.164 267.266) rotate(-18.45)" opacity="0.1"/>
    <rect id="Rectangle_287" data-name="Rectangle 287" width="48.668" height="0.422" transform="translate(221.155 270.665) rotate(-20.82)" opacity="0.1"/>
    <rect id="Rectangle_288" data-name="Rectangle 288" width="56.409" height="0.422" transform="translate(221.403 274.667) rotate(-22.26)" opacity="0.1"/>
    <rect id="Rectangle_289" data-name="Rectangle 289" width="64.933" height="0.422" transform="translate(222.017 278.202) rotate(-24.31)" opacity="0.1"/>
    <rect id="Rectangle_290" data-name="Rectangle 290" width="71.019" height="0.422" transform="matrix(0.916, -0.401, 0.401, 0.916, 222.481, 279.917)" opacity="0.1"/>
    <rect id="Rectangle_291" data-name="Rectangle 291" width="84.986" height="0.422" transform="translate(223.466 282.805) rotate(-23.36)" opacity="0.1"/>
    <path id="Path_389" data-name="Path 389" d="M251.53,496.387l74.334-15.627,45.285,8.658-60.912,19.639Z" transform="translate(-145.296 -277.705)" fill="#fff" opacity="0.45"/>
    <path id="Path_390" data-name="Path 390" d="M710.411,563.51s3.839,1.55,1.588,3.941-88.669,27.406-88.669,27.406Z" transform="translate(-397.477 -343.844)" fill="#3a3768"/>
    <path id="Path_391" data-name="Path 391" d="M706.116,464.15s-9.575,20.978-1.972,38.645L627.7,526.658l-7.32,1.55L617,513.426l2.26-18.655V484.562Z" transform="translate(-393.82 -286.449)" fill="#d5d6db"/>
    <path id="Path_392" data-name="Path 392" d="M167.89,376.469,273.7,357.18l140.2,22.334-87.085,31.351Z" transform="translate(-96.981 -206.32)" fill="#c4ffbd"/>
    <path id="Path_393" data-name="Path 393" d="M251.006,446.26s-9.913,18.748,1.491,36.065l156.9,34s-9.739-14.947.515-35.664Z" transform="translate(-180.097 -276.115)" fill="#c4ffbd"/>
    <path id="Path_394" data-name="Path 394" d="M251.006,446.26s-9.913,18.748,1.491,36.065l156.9,34s-9.739-14.947.515-35.664Z" transform="translate(-180.097 -276.115)" opacity="0.1"/>
    <path id="Path_395" data-name="Path 395" d="M264.1,461.65s-5.655,13.718,0,22.6" transform="translate(-188.518 -285.005)" opacity="0.1"/>
    <path id="Path_396" data-name="Path 396" d="M416.944,565.649l87.6-28.086s4.9,1.056,1.732,4.646-87.638,27.031-87.638,27.031L260.04,531.65Z" transform="translate(-187.623 -325.44)" fill="#c4ffbd"/>
    <path id="Path_397" data-name="Path 397" d="M416.944,565.649l87.6-28.086s4.9,1.056,1.732,4.646-87.638,27.031-87.638,27.031L260.04,531.65Z" transform="translate(-187.623 -325.44)" opacity="0.1"/>
    <path id="Path_398" data-name="Path 398" d="M609.405,536.65s-8.447,10.136,0,25.341" transform="translate(-387.265 -328.329)" opacity="0.1"/>
    <rect id="Rectangle_292" data-name="Rectangle 292" width="39.942" height="0.422" transform="translate(225.152 220.794) rotate(-18.45)" opacity="0.1"/>
    <rect id="Rectangle_293" data-name="Rectangle 293" width="48.668" height="0.422" transform="translate(225.141 224.195) rotate(-20.82)" opacity="0.1"/>
    <rect id="Rectangle_294" data-name="Rectangle 294" width="56.409" height="0.422" transform="translate(225.385 228.199) rotate(-22.26)" opacity="0.1"/>
    <rect id="Rectangle_295" data-name="Rectangle 295" width="64.933" height="0.422" transform="translate(226.005 231.73) rotate(-24.31)" opacity="0.1"/>
    <rect id="Rectangle_296" data-name="Rectangle 296" width="71.019" height="0.422" transform="matrix(0.916, -0.401, 0.401, 0.916, 226.47, 233.449)" opacity="0.1"/>
    <rect id="Rectangle_297" data-name="Rectangle 297" width="84.986" height="0.422" transform="translate(227.454 236.34) rotate(-23.36)" opacity="0.1"/>
    <path id="Path_399" data-name="Path 399" d="M260.96,386.357l74.334-15.627,45.285,8.658-60.912,19.639Z" transform="translate(-150.743 -214.147)" fill="#fff" opacity="0.3"/>
    <path id="Path_400" data-name="Path 400" d="M719.841,453.48s3.843,1.55,1.588,3.945-88.669,27.406-88.669,27.406Z" transform="translate(-402.924 -280.286)" fill="#c4ffbd"/>
    <path id="Path_401" data-name="Path 401" d="M379.406,149.892s-16.049-.967-14.174,10.293a2.747,2.747,0,0,0,1.427,2.893s.03-.845,1.647-.553a7.2,7.2,0,0,0,1.748.084,3.64,3.64,0,0,0,2.133-.879h0s4.515-1.867,6.272-9.25c0,0,1.3-1.609,1.267-2.023l-2.72,1.157a4.873,4.873,0,0,1,.2,3.582s-.089-3.51-.612-3.43c-.106,0-1.406.68-1.406.68s1.592,3.408.389,5.883c0,0,.456-4.2-.887-5.638l-1.909,1.115s1.863,3.518.6,6.39c0,0,.325-4.405-1-6.12l-1.732,1.352s1.753,3.468.684,5.85c0,0-.139-5.127-1.056-5.516a10.439,10.439,0,0,0-1.744,1.884s1.2,2.534.452,3.848c0,0-.452-3.417-.845-3.434a11.37,11.37,0,0,0-1.664,3.8,8.219,8.219,0,0,1,1.3-4.029,4.524,4.524,0,0,0-2.306,1.2s.232-1.6,2.682-1.74a10.381,10.381,0,0,1,1.58-1.82,9.888,9.888,0,0,0-3.911.448s1.3-1.508,4.354-.845l1.689-1.394s-3.2-.422-4.561.046c0,0,1.567-1.335,5.022-.363l1.863-1.111a16.925,16.925,0,0,0-4.359-.376s1.715-.925,4.9.076l1.326-.6s-2-.393-2.585-.456-.617-.224-.617-.224a6.973,6.973,0,0,1,3.759.422A16.762,16.762,0,0,0,379.406,149.892Z" transform="translate(-248.299 -104.907)" fill="#c4ffbd"/>
    <path id="Path_402" data-name="Path 402" d="M914.006,259.472s-16.049-.967-14.174,10.293a2.747,2.747,0,0,0,1.427,2.893s.03-.845,1.647-.553a7.444,7.444,0,0,0,1.749.084,3.629,3.629,0,0,0,2.112-.878h0s4.519-1.867,6.272-9.25c0,0,1.3-1.609,1.267-2.023l-2.711,1.157a4.873,4.873,0,0,1,.2,3.582s-.089-3.51-.608-3.429c-.106,0-1.411.68-1.411.68s1.592,3.408.393,5.883c0,0,.456-4.2-.891-5.638l-1.909,1.115s1.863,3.518.6,6.39c0,0,.326-4.405-1-6.12l-1.727,1.352s1.749,3.467.68,5.85c0,0-.14-5.127-1.056-5.516a10.594,10.594,0,0,0-1.744,1.884s1.2,2.534.456,3.848c0,0-.456-3.417-.845-3.434a11.37,11.37,0,0,0-1.664,3.8,8.194,8.194,0,0,1,1.3-4.029,4.545,4.545,0,0,0-2.31,1.2s.237-1.6,2.682-1.74a10.542,10.542,0,0,1,1.58-1.825,9.927,9.927,0,0,0-3.911.452s1.3-1.508,4.355-.845l1.689-1.394s-3.206-.422-4.562.046c0,0,1.563-1.335,5.022-.363l1.858-1.111a16.922,16.922,0,0,0-4.358-.376s1.715-.925,4.9.076l1.331-.6s-2-.393-2.589-.456-.617-.224-.617-.224a6.922,6.922,0,0,1,3.759.422A17.037,17.037,0,0,0,914.006,259.472Z" transform="translate(-557.109 -168.205)" fill="#c4ffbd" opacity="0.1"/>
    <path id="Path_403" data-name="Path 403" d="M438.752,301.856s-6.994-14.5-15.9-7.353a2.743,2.743,0,0,0-1.829,2.657s.739-.384,1.267,1.17a7.486,7.486,0,0,0,.777,1.563,3.645,3.645,0,0,0,1.812,1.436h0s3.831,3.033,11.133.963a7.225,7.225,0,0,0,2.374.106l-2.331-1.8a4.9,4.9,0,0,1-3.032,1.917s3.024-1.787,2.7-2.2c-.068-.084-1.267-.9-1.267-.9s-2.2,3.054-4.946,3.21c0,0,3.886-1.647,4.485-3.527l-1.9-1.124s-2.167,3.345-5.288,3.641c0,0,4-1.863,4.853-3.856l-2.019-.845s-2.175,3.218-4.777,3.451c0,0,4.409-2.623,4.3-3.615a10.7,10.7,0,0,0-2.5-.6s-1.613,2.276-3.134,2.276c0,0,2.758-2.065,2.589-2.4a11.143,11.143,0,0,0-4.139.422,8.223,8.223,0,0,1,4.152-.845,4.549,4.549,0,0,0-2.171-1.432s1.512-.574,2.825,1.491a10.417,10.417,0,0,1,2.361.49,9.915,9.915,0,0,0-2.3-3.189s1.951.393,2.842,3.379l2.048.811s-1.178-3.007-2.264-3.957c0,0,1.926.714,2.767,4.224l1.875,1.081a16.709,16.709,0,0,0-1.8-3.987s1.643,1.047,2.323,4.316l1.17.87s-.634-1.939-.845-2.479-.106-.65-.106-.65a6.93,6.93,0,0,1,1.47,3.484A15.754,15.754,0,0,0,438.752,301.856Z" transform="translate(-280.614 -187.309)" fill="#c4ffbd" opacity="0.1"/>
    <path id="Path_404" data-name="Path 404" d="M822.532,198.236s-6.99-14.5-15.9-7.353a2.749,2.749,0,0,0-1.829,2.657s.743-.38,1.267,1.17a7.309,7.309,0,0,0,.781,1.567,3.623,3.623,0,0,0,1.807,1.432h0s3.835,3.033,11.133.967a7.259,7.259,0,0,0,2.378.1l-2.319-1.808a4.9,4.9,0,0,1-3.028,1.922s3.02-1.791,2.695-2.2c-.067-.084-1.267-.9-1.267-.9s-2.2,3.054-4.946,3.21c0,0,3.89-1.647,4.49-3.522l-1.93-1.115S813.7,197.7,810.579,198c0,0,4-1.867,4.857-3.86l-2.023-.845s-2.175,3.223-4.773,3.451c0,0,4.405-2.623,4.3-3.611a10.448,10.448,0,0,0-2.492-.6s-1.614,2.272-3.138,2.272c0,0,2.762-2.065,2.593-2.4a11.167,11.167,0,0,0-4.143.422,8.219,8.219,0,0,1,4.152-.845,4.522,4.522,0,0,0-2.167-1.432s1.512-.574,2.826,1.491a10.457,10.457,0,0,1,2.361.494,9.883,9.883,0,0,0-2.3-3.193s1.951.4,2.842,3.4l2.053.811s-1.178-3.011-2.264-3.962c0,0,1.926.714,2.762,4.224l1.879,1.081a16.862,16.862,0,0,0-1.8-3.987s1.647,1.047,2.323,4.316l1.17.87s-.629-1.939-.845-2.479-.106-.646-.106-.646a6.947,6.947,0,0,1,1.466,3.484A16.217,16.217,0,0,0,822.532,198.236Z" transform="translate(-502.304 -127.453)" fill="#c4ffbd" opacity="0.1"/>
    <path id="Path_405" data-name="Path 405" d="M875.4,368.04s-6.99-14.5-15.91-7.357a2.748,2.748,0,0,0-1.829,2.657s.743-.38,1.267,1.17a7.317,7.317,0,0,0,.777,1.567,3.623,3.623,0,0,0,1.808,1.432h0s3.835,3.037,11.137.967c0,0,2.036.351,2.374.1l-2.331-1.8a4.9,4.9,0,0,1-3.033,1.922s3.02-1.791,2.695-2.2c-.068-.084-1.267-.9-1.267-.9s-2.2,3.054-4.946,3.214c0,0,3.89-1.651,4.49-3.527l-1.9-1.123s-2.162,3.345-5.288,3.641c0,0,4-1.867,4.857-3.86l-2.023-.845s-2.175,3.218-4.772,3.451c0,0,4.409-2.623,4.3-3.615a10.494,10.494,0,0,0-2.5-.6s-1.613,2.272-3.138,2.272c0,0,2.762-2.065,2.593-2.4a11.167,11.167,0,0,0-4.143.422,8.244,8.244,0,0,1,4.156-.845,4.515,4.515,0,0,0-2.171-1.432s1.512-.579,2.826,1.491a10.419,10.419,0,0,1,2.361.49,9.96,9.96,0,0,0-2.3-3.193s1.951.4,2.842,3.4l2.048.811s-1.178-3.011-2.264-3.957c0,0,1.926.71,2.762,4.224l1.879,1.077a16.864,16.864,0,0,0-1.8-3.987s1.647,1.047,2.327,4.321l1.17.845s-.634-1.939-.845-2.479-.105-.646-.105-.646a6.907,6.907,0,0,1,1.466,3.484A17.1,17.1,0,0,0,875.4,368.04Z" transform="translate(-532.839 -225.538)" fill="#c4ffbd" opacity="0.1"/>
    <ellipse id="Ellipse_15" data-name="Ellipse 15" cx="9.71" cy="1.085" rx="9.71" ry="1.085" transform="translate(75.584 329.026)" fill="#c4ffbd" opacity="0.1"/>
    <ellipse id="Ellipse_16" data-name="Ellipse 16" cx="9.71" cy="1.085" rx="9.71" ry="1.085" transform="translate(11.931 310.577)" fill="#c4ffbd" opacity="0.1"/>
    <ellipse id="Ellipse_17" data-name="Ellipse 17" cx="9.71" cy="1.085" rx="9.71" ry="1.085" transform="translate(124.104 341.278)" fill="#c4ffbd" opacity="0.1"/>
    <ellipse id="Ellipse_18" data-name="Ellipse 18" cx="9.71" cy="1.085" rx="9.71" ry="1.085" transform="translate(372.743 314.59)" fill="#c4ffbd" opacity="0.1"/>
    <ellipse id="Ellipse_19" data-name="Ellipse 19" cx="9.71" cy="1.085" rx="9.71" ry="1.085" transform="translate(291.943 309.323)" fill="#c4ffbd" opacity="0.1"/>
    <ellipse id="Ellipse_20" data-name="Ellipse 20" cx="11.484" cy="1.972" rx="11.484" ry="1.972" transform="translate(237.899 333.237)" fill="#c4ffbd" opacity="0.1"/>
    <path id="Path_406" data-name="Path 406" d="M677.358,790.14s-15.99,8.261-7.729,17.992a3.091,3.091,0,0,0,3.024,1.964s-.448-.819,1.267-1.474a8.23,8.23,0,0,0,1.727-.917,4.058,4.058,0,0,0,1.546-2.065h0s3.269-4.376.735-12.472c0,0,.329-2.289.042-2.661l-1.943,2.665a5.44,5.44,0,0,1,2.239,3.328s-2.112-3.324-2.534-2.956c-.093.076-.963,1.457-.963,1.457s3.48,2.361,3.738,5.427c0,0-1.96-4.3-4.076-4.908l-1.212,2.162s3.8,2.315,4.224,5.795c0,0-2.209-4.414-4.464-5.3l-.891,2.285s3.666,2.331,4,5.229c0,0-3.066-4.844-4.169-4.692a11.711,11.711,0,0,0-.6,2.809s2.589,1.732,2.635,3.434c0,0-2.39-3.02-2.758-2.821a12.728,12.728,0,0,0,.583,4.616,9.113,9.113,0,0,1-1.06-4.616,5.069,5.069,0,0,0-1.533,2.467s-.688-1.668,1.58-3.206a11.688,11.688,0,0,1,.477-2.652,11.131,11.131,0,0,0-3.5,2.669s.384-2.192,3.712-3.282l.845-2.314s-3.328,1.411-4.354,2.652c0,0,.739-2.175,4.616-3.218l1.149-2.112a19.394,19.394,0,0,0-4.4,2.112s1.119-1.871,4.756-2.733l.933-1.33s-2.146.764-2.745,1.039-.718.139-.718.139a7.766,7.766,0,0,1,3.848-1.748A18.82,18.82,0,0,0,677.358,790.14Z" transform="translate(-422.852 -474.756)" fill="#c4ffbd"/>
    <path id="Path_407" data-name="Path 407" d="M607.618,202.774c-2.762-7.505-17.967-8.211-24.564-6.3-4.688,1.364-14.571,2.9-19.851,3.674l-.342-.325c.684-.2.7-.7.617-1.44a22.541,22.541,0,0,1,.042-2.923c3.235,1.005,6.116-1.373,6.116-1.373h0c3.8-1.689,2.779-8.92,3.506-10.9.545-1.478,1.132-10.187,1.394-14.529h.055l.03-1.457c.038-.629.055-1,.055-1s.372-10.618,1.1-12.768c.676-1.977,1.225-11.936,1.309-13.515v-.207l-.055-.921c.038-.672.055-1.419.051-2.2,0-3.611-.376-8.16-.422-8.895v-.384c.03-1.542-.165-9.262-6.732-12.181-2.42-1.081-5.33-2.369-8.147-3.624-.726-6.272-3.115-1.7-2.971-8.02,0-.95,1.687,5.317,1.78,4.371,0,.275-.87-3.206-.874-2.914l-2.363-1.457-2.429-2.429c.249-7.9,7.136-7.486,6.857-15.219-.025.756-1.119-9.179-1.191-8.419.146-2.616-1.1-3.677-1.78-6.206-.253-.891-.044-4.532-.775-5.127-.691-.48-2.279-5.705-3.111-5.829-2-.512-.918-1.025-2.967-1.267a9.386,9.386,0,0,0-1.368-2.657c-4.283-5.879-10.626-11.4-18.127-12.671-3.763-.634-5.983,1.867-8.542,4.557-.267.236.233.688,0,.958-1.377,1.643-4.83,1.631-6.24,3.27-.093.11-.2.211-.3.317-2.762,2.471-1.156,1.352-4.227,3.569-.541.4.468.2,0,.685-1.237,1.226-.007.821-.972,2.271-1.381,1.943-.856,3.182-1.295,5.5-.883,4.646-5.121,13.458-4.534,18.134,1.309,10.462-.734,10.24,1.458,20.562.585,2.536-6.706,9.812-4.857,11.643-4.515,4.088-13.618,13-13.618,13v.237h-.714l.072.845h-.072l.393,4.583-.393,6.673v.629h.025c.131,2.445.65,11.239,1.267,13.093.726,2.15,1.094,12.768,1.094,12.768s.8,15.006,1.537,16.991-.308,9.195,3.505,10.9h0a8.025,8.025,0,0,0,3.831,1.588c-.194,1.58-.072,2.724.557,3.083a1.842,1.842,0,0,0,.887.253,9.431,9.431,0,0,0-.688,1.2,17.89,17.89,0,0,1-4.426-1.043c-4.1-1.689-17.692-5.491-21.641-2.817s-13.452,5.1-9.064,15.859,6.432,11.032,6.432,11.032a15.626,15.626,0,0,1,3.51,3.527c1.318,1.981,13.6,6.513,16.666,6.513a30.069,30.069,0,0,1,3.907.194s-3.332,2.923-2.889,4.621-1.014,15.289-1.014,15.289,3.379,3.4,4.823-1.06l.051.068c.27.367,1.732,2.027,4.481-.068a25.118,25.118,0,0,1,3.573-2.264l13.313-1.884a37.672,37.672,0,0,1,4.169-.03c2.112.173,4.186-1.077,5.491-2.044,2.758,1.047,5.858,2.192,7.332,2.61,2.99.845,16.734,4.532,19.948,3.379a4.465,4.465,0,0,0,1.732-1.233l3.066.1-1.436.287s2.8.046,6.6.1l-.161.093,4.768-.042c6.977.063,14.816.084,15.847-.148,1.613-.359,10-.106,12.468,0h.688s9.212-1.837,5.41-11.184c-2.923-7.18-11.906-9.266-15.893-9.841,1.123-.224,2.091-.4,2.733-.5,2.783-.422,8.189-2.956,8.629-3.822s4.971-3.379,6.141-4.811S610.393,210.279,607.618,202.774Zm-76.3,21-.452.148-.3.1-.583.574c-.464-.313-.963-.642-1.482-.98C529.415,223.676,530.357,223.731,531.32,223.777Zm40.254,11.9Z" transform="translate(-305.653 -43.42)" fill="url(#linear-gradient)"/>
    <path id="Path_408" data-name="Path 408" d="M686.65,293.759s6.462,16.894,10.136,15.2,2.678-8.869,3.379-10.838,1.478-16.894,1.478-16.894.355-10.559,1.056-12.7c.65-1.964,1.178-11.868,1.267-13.427V254.9l-.7-12.248-3.945-.984-9.148,3.379-1.267,7.235-.494,2.826-.211,1.2Z" transform="translate(-434.053 -157.934)" fill="#ffb8b8"/>
    <path id="Path_409" data-name="Path 409" d="M691.69,358.3s6.166,5.047,8.025,5.491,3,4.38,3,4.38" transform="translate(-436.965 -225.305)" opacity="0.1"/>
    <path id="Path_410" data-name="Path 410" d="M543.316,295.509s-6.462,16.894-10.136,15.2-2.678-8.869-3.379-10.838-1.478-16.894-1.478-16.894-.355-10.559-1.056-12.7c-.65-1.964-1.178-11.868-1.267-13.427v-.207l.7-12.248,3.945-.984,9.148,3.379,1.267,7.235.494,2.826.211,1.2Z" transform="translate(-341.254 -158.945)" fill="#ffb8b8"/>
    <path id="Path_411" data-name="Path 411" d="M556.2,404.752s-4.929,5.419-3.1,6.4,13.659,19.428,13.659,19.428,38.856,4.785,46.184-2.395,7.18-20.007,7.18-20.007-5.888,1.267-6.53.579-4.169-4.008-4.169-4.008S559.582,401.728,556.2,404.752Z" transform="translate(-356.676 -251.362)" fill="#4b4b5b"/>
    <path id="Path_412" data-name="Path 412" d="M556.2,404.752s-4.929,5.419-3.1,6.4,13.659,19.428,13.659,19.428,38.856,4.785,46.184-2.395,7.18-20.007,7.18-20.007-5.888,1.267-6.53.579-4.169-4.008-4.169-4.008S559.582,401.728,556.2,404.752Z" transform="translate(-356.676 -251.362)" opacity="0.02"/>
    <path id="Path_413" data-name="Path 413" d="M611.691,191.254l-12.671,10.136-3.831.279-1.406.1L570.161,203.5l-24.5-1.791-3.645-.266-4.646-.338-9.714-9.292a166.363,166.363,0,0,1,12.9-12.337,26.46,26.46,0,0,1,6.251-4.177l.279-.1a6.952,6.952,0,0,0,2.678-1.867c4.756-4.9,9.152-17,9.152-17s20.978-10.838,18.444,3.379,9.431,10.7,9.431,10.7l3.945,1.8,1.558.714,3.974,1.82,8.967,4.114C612.274,182.1,611.691,191.254,611.691,191.254Z" transform="translate(-342.213 -106.357)" fill="#ffb8b8"/>
    <path id="Path_709" data-name="Path 709" d="M18.867,0A18.867,18.867,0,0,1,37.733,18.867c0,8.919-6.329,15.07-15.224,17.652-1.152.338-3.98,2.117-5.48,2.117-2.7,0-3.034-.693-5.479-2.117C5.545,33.034,0,26.587,0,18.867A18.867,18.867,0,0,1,18.867,0Z" transform="translate(208.097 23.821)" opacity="0.1"/>
    <path id="Path_414" data-name="Path 414" d="M610.762,235.874H526v-.207l.7-12.248a166.342,166.342,0,0,1,12.9-12.337l53.216-2.112,2.475-2.61,8.967,4.114c7.041,3.235,6.475,12.388,6.475,12.388S611.7,233.467,610.762,235.874Z" transform="translate(-341.254 -137.537)" opacity="0.1"/>
    <path id="Path_415" data-name="Path 415" d="M610.762,234.874H526v-.207l.7-12.248a166.338,166.338,0,0,1,12.9-12.337l53.216-2.112,2.475-2.61,8.967,4.114c7.041,3.235,6.475,12.388,6.475,12.388S611.7,232.467,610.762,234.874Z" transform="translate(-341.254 -136.96)" fill="#e7c7ca"/>
    <path id="Path_416" data-name="Path 416" d="M586.569,188.873s13.372,17.038,31.182-.351,1.972,38.785,1.972,38.785l-38.434,4.561Z" transform="translate(-373.192 -125.304)" opacity="0.1"/>
    <path id="Path_417" data-name="Path 417" d="M586.569,190.873s13.372,17.038,31.182-.351,1.972,38.785,1.972,38.785l-38.434,4.561Z" transform="translate(-373.192 -126.46)" fill="#e7c7ca"/>
    <path id="Path_418" data-name="Path 418" d="M606.069,202.047l1.415,21.578L609,230.8l1.157,5.491s2.957,42.235,2.112,44.347.422,3.8.6,4.925-.177,3.945-.038,5.212,0,1.829-3.235,1.377-7.746-1.238-7.746-1.238-11.4.845-15.344-.562-11.4-1.411-11.4-1.411-11.264.283-14.922-.139-5.634,4.507-8.025,3.1,2.813-15.061,4.5-19.006-2.251-13.938-2.251-13.938l5.068-28.116,1.128-6.373V204.433l.279-.1a6.95,6.95,0,0,0,2.678-1.867l1.267,20.163,39.7,1.411V201.35" transform="translate(-356.006 -134.643)" opacity="0.1"/>
    <path id="Path_419" data-name="Path 419" d="M606.069,200.047l1.415,21.578L609,228.8l1.157,5.491s2.957,42.235,2.112,44.347.422,3.8.6,4.925-.177,3.945-.038,5.212,0,1.829-3.235,1.377-7.746-1.238-7.746-1.238-11.4.845-15.344-.562-11.4-1.411-11.4-1.411-11.264.283-14.922-.139-5.634,4.507-8.025,3.1,2.813-15.061,4.5-19.006-2.251-13.938-2.251-13.938l5.068-28.116,1.128-6.373V202.433l.279-.1a6.951,6.951,0,0,0,2.678-1.867l1.267,20.163,39.7,1.411V199.35" transform="translate(-356.006 -133.488)" fill="#e7c7ca"/>
    <path id="Path_420" data-name="Path 420" d="M600.347,72.351c-.241-.883-.677-3.021-1.37-3.612-.661-.475-.978-1.766-1.783-1.891-1.926-.507-2.021-3.872-4-4.114a9.393,9.393,0,0,0-1.267-2.631c-4.139-5.845-10.263-11.357-17.468-12.6-3.772-.655-4.227,1.116-6.642,4.089-1.326,1.635-5.813,2.618-7.152,4.222-2.581,3.117,2.217-1.576-1.035.836-1.736,1.267-1.685,2.589-2.914,4.371-1.33,1.93-2.844,8.016-3.267,10.322-.845,4.608-3.719,5.428-3.158,10.078,1.267,10.4-1.188,9.813.919,20.076,1.229,5.985-6.638,25.107-.919,27.244,2.015.756,4.316,1.508,5.258,3.442.422.845.494,1.82.891,2.673,1.335,2.847,5.723,2.956,8.08.883,1.4-1.232-5.058-7.818-5.9-13.832-.506-3.613,4.619-7.062,4.732-8.332,1.132-13.667.2-13.562.842-27.264.19-4.143,1.356-8.844,5.068-10.719,5-2.534,11.006,1.689,16.506.883a32.746,32.746,0,0,1,1.579,19.982c-.717,2.989-1.863,5.9-2.356,9.239a15.4,15.4,0,0,0-.14,1.7c-.165,5.723,2.923,10.952,5.592,16.011a8.519,8.519,0,0,1,1.128,3.087,7.447,7.447,0,0,1-.6,3.231c-1.508,4.059-4.11,7.826-4.405,12.147a1.965,1.965,0,0,0,.317,1.444,1.816,1.816,0,0,0,1.09.49c4.561.781,8.506-3.261,10.732-7.319a34.313,34.313,0,0,0,4.232-14.58c.46-8.6-5.931-10.993-5.741-19.6C597.413,92.52,602.936,81.791,600.347,72.351Z" transform="translate(-347.926 -45.633)" opacity="0.1"/>
    <path id="Path_422" data-name="Path 422" d="M581.79,476.469l16.755.536-2.4-12.426L583.306,465.8Z" transform="translate(-336.069 -268.359)" fill="#c3c7d9"/>
    <path id="Path_423" data-name="Path 423" d="M686.812,430.614c-1.128,1.406-5.491,3.941-5.913,4.785s-5.63,3.379-8.308,3.8-11.12,2.255-12.671,3.239c-1.111.71-10.027,2.956-15.885,4.2a45.071,45.071,0,0,1-4.811.866c-2.534.139-30.266-9.292-30.266-9.292l5.347-5.491.3-.1c1.512-.511,8.5-2.872,12.375-4,4.367-1.267,9.435-6.475,9.435-6.475s7.459-2.534,8.447-2.817-2.534-9.854-2.534-9.854,16.189-2.247,22.524-4.152,20.978-1.2,23.652,6.264S687.957,429.208,686.812,430.614Z" transform="translate(-389.176 -251.954)" fill="#4b4b5b"/>
    <path id="Path_424" data-name="Path 424" d="M569.716,502.342s-3.235,3.379-6.475,3.1-14.567.845-14.567.845a22.711,22.711,0,0,0-5.706,3.307c-2.648,2.086-4.055.422-4.316.068l-.046-.068c-1.411,4.439-4.646,1.056-4.646,1.056s1.406-13.515.976-15.2,2.783-4.591,2.783-4.591l3.8-.967,9.63-2.467,13.8,4.785Z" transform="translate(-345.852 -299.891)" fill="#e7c7ca"/>
    <path id="Path_425" data-name="Path 425" d="M541.5,493.26l-2.851,19.775-.046-.068c-1.411,4.439-4.646,1.056-4.646,1.056s1.406-13.515.976-15.2,2.783-4.591,2.783-4.591Z" transform="translate(-345.852 -303.264)" opacity="0.1"/>
    <path id="Path_426" data-name="Path 426" d="M599,360.08s7.459,2.534,13.938,0" transform="translate(-383.423 -226.333)" opacity="0.1"/>
    <path id="Path_427" data-name="Path 427" d="M659.29,371.42s3.1,1.546,5.491,0" transform="translate(-418.249 -232.884)" opacity="0.1"/>
    <path id="Path_428" data-name="Path 428" d="M659.29,379.13s5.208.7,6.2-.71" transform="translate(-418.249 -236.927)" opacity="0.1"/>
    <path id="Path_429" data-name="Path 429" d="M655.29,394.706s9.782-1.267,12.21-2.956" transform="translate(-415.938 -244.627)" opacity="0.1"/>
    <path id="Path_430" data-name="Path 430" d="M584.62,391.75s5.491,3.1,9.575,2.956" transform="translate(-375.116 -244.627)" opacity="0.1"/>
    <path id="Path_431" data-name="Path 431" d="M644.026,485.2a45.055,45.055,0,0,1-4.811.866c-2.534.139-30.266-9.292-30.266-9.292l5.347-5.491.3-.1c.845.6,1.537,1.107,2.032,1.5,2.327,1.833,4.574-.562,5.419-.562s8.164,6.052,8.164,6.052,6.758,1.55,7.885,2.956,5.068,1.128,5.769,2.112A3.767,3.767,0,0,1,644.026,485.2Z" transform="translate(-389.17 -290.51)" opacity="0.1"/>
    <path id="Path_432" data-name="Path 432" d="M512.138,410.914s-6.834.393-10.774-1.267-17.034-5.491-20.835-2.8-12.954,5.068-8.73,15.771S478,433.6,478,433.6a15.248,15.248,0,0,1,3.379,3.506c1.267,1.972,13.093,6.475,16.049,6.475s8.164,0,15.484,5.068a31.822,31.822,0,0,0,13.938,5.634s9.292,3.8,12.185,4.646,16.113,4.5,19.213,3.379,5.068-8.168,5.068-8.168,1.406-6.335.7-7.319-4.646-.705-5.769-2.112-7.885-2.956-7.885-2.956-7.3-6.057-8.147-6.057-3.092,2.391-5.419.562a123.628,123.628,0,0,0-14.575-9.292C516.869,424.146,512.138,410.914,512.138,410.914Z" transform="translate(-309.316 -252.81)" fill="#4b4b5b"/>
    <path id="Path_433" data-name="Path 433" d="M536.27,427.2a8.067,8.067,0,0,1,6.922,1.829c3.379,2.817,14.748,8.472,14.748,8.472" transform="translate(-347.187 -265.009)" opacity="0.1"/>
    <path id="Path_434" data-name="Path 434" d="M711.838,427s-15.065,2.281-17.878,5.377" transform="translate(-438.276 -264.989)" opacity="0.1"/>
    <path id="Path_435" data-name="Path 435" d="M724.337,508.538h-.663c-2.382-.084-10.453-.338-12.008,0-1.829.422-26.047,0-26.047,0l4.735-.984s-1.757-6.158-.642-6.669c0,0-6.335-4.173-1.558-6.99a14.819,14.819,0,0,1,9.925-1.63L710.07,488.2l2.3-.781s13.515.705,17.173,10S724.337,508.538,724.337,508.538Z" transform="translate(-433.458 -299.891)" fill="#e7c7ca"/>
    <path id="Path_436" data-name="Path 436" d="M757.777,508.566h-.663c3.932-3.244,12.827-13.118-13.6-20.315l2.3-.781s13.515.705,17.173,10S757.777,508.566,757.777,508.566Z" transform="translate(-466.898 -299.92)" opacity="0.1"/>
    <circle id="Ellipse_22" data-name="Ellipse 22" cx="0.739" cy="0.739" r="0.739" transform="translate(265.293 196.221)" fill="#4b4b5b"/>
    <circle id="Ellipse_23" data-name="Ellipse 23" cx="0.739" cy="0.739" r="0.739" transform="translate(260.997 197.442)" fill="#4b4b5b"/>
    <path id="Path_443" data-name="Path 443" d="M695.31,511.86s10.69,4.485,17.739-5.44" transform="translate(-439.056 -310.866)" fill="none" stroke="#000" stroke-miterlimit="10" stroke-width="1" opacity="0.1"/>
    <path id="Path_444" data-name="Path 444" d="M700.29,534.333s8.73-5.676,19.851-.186" transform="translate(-441.933 -325.5)" fill="none" stroke="#000" stroke-miterlimit="10" stroke-width="1" opacity="0.1"/>
    <path id="Path_445" data-name="Path 445" d="M561.93,528.882s3.666-8.27,13.456-1.964" transform="translate(-362.009 -321.337)" fill="none" stroke="#000" stroke-miterlimit="10" stroke-width="1" opacity="0.1"/>
    <path id="Path_446" data-name="Path 446" d="M533.79,233.948l7.476-6.758s28.986-1.9,30.186,7.953c0,0,10.276-11.682,31.888-9.081l9.144,7.281-25.274,11.091-24.56,8.519-18.089-8.1Z" transform="translate(-345.754 -148.701)" opacity="0.1"/>
    <path id="Path_447" data-name="Path 447" d="M533.79,234.948l7.476-6.758s28.986-1.9,30.186,7.953c0,0,10.276-11.682,31.888-9.081l9.144,7.281-25.274,11.091-24.56,8.519-18.089-8.1Z" transform="translate(-345.754 -149.278)" fill="#d5d6db"/>
    <path id="Path_448" data-name="Path 448" d="M437.38,204.83l3.307,39.562,35.055,1.761-1.52-39.393-.03-.663Z" transform="translate(-252.651 -118.315)" opacity="0.1"/>
    <path id="Path_449" data-name="Path 449" d="M437.38,202.83l3.307,39.562,35.055,1.761-1.52-39.393-.03-.663Z" transform="translate(-252.651 -117.16)" fill="#c4ffbd"/>
    <path id="Path_450" data-name="Path 450" d="M585.872,202.83l-36.162,5.423v39.739l35.338-5.106Z" transform="translate(-317.538 -117.16)" opacity="0.1"/>
    <path id="Path_451" data-name="Path 451" d="M585.872,200.83l-36.162,5.423v39.739l35.338-5.106Z" transform="translate(-317.538 -116.005)" fill="#c4ffbd"/>
    <path id="Path_452" data-name="Path 452" d="M588.424,223.79l-19.534,2.171.427,6.656,19.095-2.086Z" transform="translate(-328.618 -129.267)" fill="#fff" opacity="0.3"/>
    <path id="Path_453" data-name="Path 453" d="M537.129,341.892l1.989,5.351s2.956,2.534,6.192,1.267,6.057-1.9,7.463-3.13,3.379-7.429,3.379-7.429,1.972-6.758,3.941-8.447,7.18-24.965,0-22.689-12.671,23.394-12.671,23.394a5.008,5.008,0,0,1-3.1,1.689c-1.829.144-5.491-.283-6.2,1.267S535.017,338.8,537.129,341.892Z" transform="translate(-347.193 -195.475)" fill="#ffb8b8"/>
    <path id="Path_454" data-name="Path 454" d="M623.785,255.464a12.164,12.164,0,0,1-10.605-2.644l1.525,39.389a10.749,10.749,0,0,0,9.08,3Z" transform="translate(-391.614 -164.375)" opacity="0.1"/>
    <path id="Path_455" data-name="Path 455" d="M623.785,253.464a12.163,12.163,0,0,1-10.605-2.644l1.525,39.389a10.749,10.749,0,0,0,9.08,3Z" transform="translate(-391.614 -163.22)" fill="#c4ffbd"/>
    <path id="Path_456" data-name="Path 456" d="M623.785,253.464a12.163,12.163,0,0,1-10.605-2.644l1.525,39.389a10.749,10.749,0,0,0,9.08,3Z" transform="translate(-391.614 -163.22)" opacity="0.1"/>
    <path id="Path_457" data-name="Path 457" d="M640.29,241.2s14.711-4.5,18.546-3.865" transform="translate(-407.274 -155.396)" opacity="0.1"/>
    <path id="Path_458" data-name="Path 458" d="M578.571,238.376s-14.259-3.379-16.641-2.42" transform="translate(-362.009 -154.534)" opacity="0.1"/>
    <path id="Path_459" data-name="Path 459" d="M662.25,244.68s9.837-3.607,13.393-1.892" transform="translate(-419.959 -158.313)" opacity="0.1"/>
    <path id="Path_460" data-name="Path 460" d="M650.52,452.01A32.337,32.337,0,0,1,655.369,449a79.1,79.1,0,0,0,7.18-4.388" transform="translate(-413.183 -275.162)" opacity="0.1"/>
    <path id="Path_461" data-name="Path 461" d="M546.853,360.08s-6.171,5.047-8.025,5.491-3,4.38-3,4.38" transform="translate(-346.933 -226.333)" opacity="0.1"/>
    <path id="Path_462" data-name="Path 462" d="M678.909,340.13l-1.968,5.364s-2.956,2.534-6.2,1.267-6.052-1.9-7.463-3.13S659.9,336.2,659.9,336.2s-1.968-6.758-3.941-8.447-7.18-24.965,0-22.689,12.671,23.394,12.671,23.394a5.008,5.008,0,0,0,3.1,1.689c1.829.144,5.49-.283,6.2,1.267S681.02,337.046,678.909,340.13Z" transform="translate(-414.203 -194.464)" fill="#ffb8b8"/>
    <path id="Path_463" data-name="Path 463" d="M707.15,364.94s4.033,2.593,4.016,5.693" transform="translate(-445.895 -229.141)" opacity="0.1"/>
    <path id="Path_708" data-name="Path 708" d="M18.867,0A18.867,18.867,0,0,1,37.733,18.867c0,7.929-6.415,14.16-14.171,17.331-2.057.844-4.968,2.491-7.223,2.491-3.188,0-5.413-2.476-8.1-4.484C3.7,30.815,0,25.764,0,18.867A18.867,18.867,0,0,1,18.867,0Z" transform="translate(208.165 22.896)" fill="#ffb8b8"/>
    <path id="Path_466" data-name="Path 466" d="M1028.573,661.63s2.5,3.273-1.157,8.219-6.677,9.119-5.461,12.2c0,0,5.524-9.182,10.018-9.313S1033.511,667.15,1028.573,661.63Z" transform="translate(-627.583 -400.523)" fill="#c4ffbd"/>
    <path id="Path_467" data-name="Path 467" d="M1028.769,661.63a4.06,4.06,0,0,1,.511,1.026c4.384,5.153,6.724,9.963,2.5,10.082-3.928.114-8.637,7.138-9.765,8.907a4.109,4.109,0,0,0,.131.422s5.524-9.182,10.018-9.313S1033.706,667.15,1028.769,661.63Z" transform="translate(-627.779 -400.523)" opacity="0.1"/>
    <path id="Path_468" data-name="Path 468" d="M1048.208,670.5c0,1.153-.131,2.086-.287,2.086s-.291-.933-.291-2.086.161-.608.321-.608S1048.208,669.349,1048.208,670.5Z" transform="translate(-642.572 -405.222)" fill="#ffd037"/>
    <path id="Path_469" data-name="Path 469" d="M1050.091,673.659c-1.01.549-1.892.883-1.968.743s.68-.7,1.689-1.267.612-.152.688,0S1051.1,673.105,1050.091,673.659Z" transform="translate(-642.854 -407.002)" fill="#ffd037"/>
    <path id="Path_470" data-name="Path 470" d="M998.977,661.63s-2.5,3.273,1.157,8.219,6.678,9.119,5.457,12.2c0,0-5.52-9.182-10.018-9.313S994.053,667.15,998.977,661.63Z" transform="translate(-611.224 -400.523)" fill="#c4ffbd"/>
    <path id="Path_471" data-name="Path 471" d="M998.977,661.63a4.051,4.051,0,0,0-.511,1.026c-4.384,5.153-6.724,9.963-2.5,10.082,3.924.114,8.637,7.138,9.765,8.907a3.273,3.273,0,0,1-.135.422s-5.52-9.182-10.018-9.313S994.053,667.15,998.977,661.63Z" transform="translate(-611.224 -400.523)" opacity="0.1"/>
    <path id="Path_472" data-name="Path 472" d="M995.64,670.5c0,1.153.127,2.086.287,2.086s.291-.933.291-2.086-.165-.608-.321-.608S995.64,669.349,995.64,670.5Z" transform="translate(-612.541 -405.222)" fill="#ffd037"/>
    <path id="Path_473" data-name="Path 473" d="M991.019,673.659c1.009.549,1.892.883,1.968.743s-.68-.7-1.689-1.267-.613-.152-.689,0S990.006,673.105,991.019,673.659Z" transform="translate(-609.516 -407.002)" fill="#ffd037"/>
    <ellipse id="Ellipse_25" data-name="Ellipse 25" cx="26.186" cy="4.017" rx="26.186" ry="4.017" transform="translate(368.186 298.549)" fill="#c4ffbd" opacity="0.1"/>
    <path id="Path_474" data-name="Path 474" d="M1017.362,697.439l-.127,1.022-.177,1.444-.072.6-.177,1.444-.076.6-.173,1.44-2.006,16.429c-.177,1.466-2.572,2.61-5.465,2.61H998.677c-2.893,0-5.284-1.145-5.465-2.61L991.205,704l-.177-1.44-.072-.6-.177-1.444-.076-.6-.173-1.444-.127-1.022c-.1-.845,1.2-1.529,2.834-1.529h21.3C1016.167,695.91,1017.463,696.607,1017.362,697.439Z" transform="translate(-609.513 -420.325)" fill="#65617d"/>
    <path id="Path_475" data-name="Path 475" d="M928.835,658.53l-.173,1.444H902.307l-.177-1.444Z" transform="translate(-521.113 -380.394)" fill="#9d9cb5"/>
    <path id="Path_476" data-name="Path 476" d="M928.927,663.38l-.173,1.445H902.9l-.177-1.445Z" transform="translate(-521.454 -383.195)" fill="#9d9cb5"/>
    <path id="Path_477" data-name="Path 477" d="M929.024,668.23l-.177,1.444H903.493l-.173-1.444Z" transform="translate(-521.8 -385.997)" fill="#9d9cb5"/>
    <g id="Group_481" data-name="Group 481" transform="translate(-13046 -3090.18)">
      <path id="Path_705" data-name="Path 705" d="M627.079,176.06c-3.545,10.5-23.392,12.3-23.392,12.3s-16.105-1.237-16.729-12.3c-.8-14.135,8.726-20.119,20.061-20.061C620.409,156.069,631.287,163.6,627.079,176.06Z" transform="translate(12666.834 2940.367)" fill="#2f2e41"/>
      <path id="Path_706" data-name="Path 706" d="M589.5,172.647s-.174-.969-6.981,1.584-10.887,21.39-7.484,32.451c1.372,4.458.256,7.672-1.565,9.92-6.833,8.439-4.143,21.113,5.811,25.453q.421.184.86.363l4.254,2.553a19.457,19.457,0,0,1-2.709-16.264c1.563-5.157,4.448-4.016,4.171-9.649-.118-2.423.608-4.714,0-7.385-.311-1.337-3.991-9.64-4.393-11.046-3.4-11.912-1.748-10.536,10.164-22.449a75.712,75.712,0,0,0,12.763,7.658c5.956,2.553,11.061,5.105,6.807,13.614s-14.465,16.167-7.658,27.228,7.658,6.807,6.807,11.061h0l-.851,4.254,5.105-5.105-3.4,6.807s11.061,0,14.465-8.509l1.7,1.7s6.807-11.912-5.956-22.973c0,0-4.254-2.553,1.7-11.061s1.382-26.8-6.276-30.206S589.5,172.647,589.5,172.647Z" transform="translate(12674.969 2937.222)" fill="#2f2e41"/>
      <circle id="Ellipse_67" data-name="Ellipse 67" cx="7.919" cy="7.919" r="7.919" transform="translate(13265.935 3084.753)" fill="#2f2e41"/>
      <path id="Path_707" data-name="Path 707" d="M605.584,133.919a7.919,7.919,0,0,1,7.126-7.879c-.26-.026-.524-.04-.791-.04a7.919,7.919,0,1,0,0,15.837c.267,0,.531-.014.792-.04a7.919,7.919,0,0,1-7.127-7.879Z" transform="translate(12658.767 2954.53)" fill="#2f2e41"/>
    </g>
  </g>
</svg>
