<?xml version="1.0" encoding="iso-8859-1"?>
<!-- Generator: Adobe Illustrator 19.0.0, SVG Export Plug-In . SVG Version: 6.00 Build 0)  -->
<svg version="1.1" id="Capa_1" xmlns="http://www.w3.org/2000/svg" xmlns:xlink="http://www.w3.org/1999/xlink" x="0px" y="0px"
	 viewBox="0 0 376.72 376.72" style="enable-background:new 0 0 376.72 376.72;" xml:space="preserve">
<g>
	<g>
		<path d="M318.68,13.12L318.68,13.12l-8,0V159.6c0.373,3.293-1.993,6.264-5.286,6.638c-1.874,0.213-3.738-0.468-5.034-1.838
			l-54.08-45.36L192.2,164.4c-2.546,2.121-6.329,1.776-8.45-0.77c-0.887-1.065-1.378-2.404-1.39-3.79V13.12H58.04
			c-24,0-48.8,12.8-48.8,48.8v266c0,36,25.2,48.8,48.8,48.8h260.64c24,0,48.8-12.8,48.8-48.8v-266
			C367.48,38.32,354.68,13.12,318.68,13.12z M54.76,86.16h95.52c3.314,0,6,2.686,6,6c0,3.314-2.686,6-6,6H54.76
			c-3.314,0-6-2.686-6-6C48.76,88.846,51.446,86.16,54.76,86.16z M54.76,140.8h95.52c3.313-0.044,6.035,2.606,6.079,5.919
			c0,0.027,0,0.054,0,0.081c0,3.314-2.686,6-6,6h-95.6c-3.314,0-6-2.686-6-6C48.76,143.486,51.446,140.8,54.76,140.8z M307.72,316.8
			H54.76c-3.314,0-6-2.686-6-6s2.686-6,6-6h252.96c3.314,0,6,2.686,6,6S311.034,316.8,307.72,316.8z M307.72,262.16H54.76
			c-3.314,0-6-2.686-6-6s2.686-6,6-6h252.96c3.314,0,6,2.686,6,6S311.034,262.16,307.72,262.16z M307.72,207.52H54.76
			c-3.314,0-6-2.686-6-6s2.686-6,6-6h252.96c3.314,0,6,2.686,6,6S311.034,207.52,307.72,207.52z"/>
	</g>
</g>
<g>
	<g>
		<path d="M194.12,0v146.72l48-40c1.122-1.07,2.61-1.671,4.16-1.68c1.398-0.002,2.754,0.479,3.84,1.36l48,40V0H194.12z"/>
	</g>
</g>
<g>
</g>
<g>
</g>
<g>
</g>
<g>
</g>
<g>
</g>
<g>
</g>
<g>
</g>
<g>
</g>
<g>
</g>
<g>
</g>
<g>
</g>
<g>
</g>
<g>
</g>
<g>
</g>
<g>
</g>
</svg>
