<?xml version="1.0" encoding="iso-8859-1"?>
<!-- Generator: Adobe Illustrator 19.0.0, SVG Export Plug-In . SVG Version: 6.00 Build 0)  -->
<svg version="1.1" id="Capa_1" xmlns="http://www.w3.org/2000/svg" xmlns:xlink="http://www.w3.org/1999/xlink" x="0px" y="0px"
	 viewBox="0 0 409.36 409.36" style="enable-background:new 0 0 409.36 409.36;" xml:space="preserve">
<g>
	<g>
		<path d="M216.32,0v134.4l29.2-33.76c1.125-1.304,2.757-2.062,4.48-2.08c1.751-0.005,3.416,0.755,4.56,2.08l29.12,33.76V0H216.32z"
			/>
	</g>
</g>
<g>
	<g>
		<polygon points="339.36,294.24 251.52,294.4 251.52,383.76 251.52,406.64 361.84,294.16 		"/>
	</g>
</g>
<g>
	<g>
		<path d="M325.44,1.36L325.44,1.36l-29.68,0v149.12c-0.012,2.501-1.574,4.733-3.92,5.6c-0.688,0.123-1.392,0.123-2.08,0
			c-1.751,0.005-3.416-0.755-4.56-2.08l-35.12-40.64L214.96,154c-2.154,2.518-5.941,2.814-8.46,0.661
			c-1.338-1.145-2.106-2.819-2.1-4.581V1.36h-62.64v408h97.76V288.4c0-3.314,2.686-6,6-6h103.04h16V40.48
			C364.56,18.875,347.045,1.36,325.44,1.36z"/>
	</g>
</g>
<g>
	<g>
		<path d="M84.16,1.28C62.555,1.147,44.933,18.554,44.801,40.159C44.8,40.266,44.8,40.373,44.8,40.48v329.76
			c0.044,21.543,17.497,38.996,39.04,39.04h45.52v-408H84.16z M93.44,325.76c-11.848-0.175-21.361-9.83-21.36-21.68h-0.32
			c0-11.974,9.706-21.68,21.68-21.68c11.974,0,21.68,9.706,21.68,21.68C115.12,316.054,105.414,325.76,93.44,325.76z M93.76,128.32
			l-0.32-0.24c-11.974,0-21.68-9.706-21.68-21.68c0-11.974,9.706-21.68,21.68-21.68s21.68,9.706,21.68,21.68
			C115.254,118.343,105.702,128.144,93.76,128.32z"/>
	</g>
</g>
<g>
</g>
<g>
</g>
<g>
</g>
<g>
</g>
<g>
</g>
<g>
</g>
<g>
</g>
<g>
</g>
<g>
</g>
<g>
</g>
<g>
</g>
<g>
</g>
<g>
</g>
<g>
</g>
<g>
</g>
</svg>
