<svg id="Layer_5" enable-background="new 0 0 64 64" height="512" viewBox="0 0 64 64" width="512" xmlns="http://www.w3.org/2000/svg"><g><path d="m60.988 10.586c-8.548 4.374-13.988 13.19-13.988 22.878v2.51c3.308-9.638 8.904-17.18 9.2-17.575l1.6 1.2c-.071.095-5.78 7.797-9.012 17.368l-6.71 12.033h-9.078c-.552 0-1 .449-1 1v10c0 .551.448 1 1 1h22c.552 0 1-.449 1-1v-10c0-.551-.448-1-1-1h-10.634l3.794-6.734c2.977-1.73 5.297-4.415 7.352-8.525l1.408-2.818-1.11-3.332 3.357-2.238c.369-1.124 1.681-5.735 1.821-14.767zm-14.981 45.755c.436.498.61.659.999.659.388 0 .562-.161.996-.658.468-.534 1.174-1.342 2.502-1.342s2.034.808 2.501 1.342c.434.497.607.658.995.658v2c-1.328 0-2.034-.808-2.501-1.342-.435-.497-.607-.658-.995-.658s-.562.161-.996.658c-.468.534-1.174 1.342-2.502 1.342-1.329 0-2.035-.807-2.503-1.341-.437-.498-.61-.659-1-.659-.389 0-.563.161-.999.659-.468.534-1.174 1.341-2.504 1.341-.851 0-2.353-.442-2.854-3.404-.059-.345-.363-.596-.722-.596-.351 0-.654.249-.723.592l-.721 3.604-1.961-.393.721-3.603c.255-1.274 1.383-2.2 2.684-2.2 1.339 0 2.472.951 2.694 2.262.136.802.447 1.738.882 1.738.39 0 .563-.161 1-.659.468-.534 1.174-1.341 2.503-1.341 1.33 0 2.036.807 2.504 1.341z"/><path d="m40 28.414v7.219l4.411-2.807z"/><path d="m36.7 47h4.201l4.099-6.939v-5.239l-13.358 8.5z"/><path d="m38 36.905v-33.905h-2v10.869l-4-2.667-4 2.667v-10.869h-8v10h-10v23.905l14 8.909zm-2-3.905h-2v-2h2zm-24-18h8v2h-8zm0 4h24v2h-24zm0 4h24v2h-24zm0 4h24v2h-24zm0 4h20v2h-20zm2 6h-2v-2h2zm2-2h20v2h-20z"/><path d="m18 4.414-6.586 6.586h6.586z"/><path d="m34 10.131v-7.131h-4v7.131l2-1.333z"/><path d="m33.3 47-3.471-2.524-5.829 3.71-5.829-3.71-13.096 9.524h24.925v-4c0-1.654 1.346-3 3-3z"/><path d="m3 34.822v18.215l13.358-9.715z"/><path d="m8 28.414-4.411 4.411 4.411 2.808z"/></g></svg>