<svg height="460.688pt" viewBox="0 0 460.688 460.688" width="460.688pt" xmlns="http://www.w3.org/2000/svg"><path d="m168 252.6875 32 32 8-8v-100.6875h-208v112h132.6875zm-136 19.3125h-16v-48h16zm0-64h-16v-16h16zm0 0"/><path d="m208 48h-208v112h208zm-176 96h-16v-48h16zm0-64h-16v-16h16zm0 0"/><path d="m275.304688 168 20.6875-20.6875 20.6875 20.6875-20.6875 20.6875zm0 0"/><path d="m32 0h32v32h-32zm0 0"/><path d="m144 0h32v32h-32zm0 0"/><path d="m147.304688 296 20.6875-20.6875 20.6875 20.6875-20.6875 20.6875zm0 0"/><path d="m352 155.3125-196.6875 196.6875 108.6875 108.6875 196.6875-196.6875zm-5.65625 23.03125 11.3125 11.3125-14.03125 14.03125-11.3125-11.3125zm-24 24 11.3125 11.3125-64 64-11.3125-11.3125zm-58.34375 235.710938-48.398438-48.398438 11.308594-11.3125 37.089844 37.089844 48.328125-48.328125 11.3125 11.308593zm69.433594-69.4375-11.3125-11.3125 10.96875-10.960938 11.308594 11.3125zm0 0"/><path d="m156.6875 328-24-24h-132.6875v112h196.6875l-64-64zm-124.6875 72h-16v-48h16zm0-64h-16v-16h16zm0 0"/></svg>