<svg height="512" viewBox="0 0 55 56" width="512" xmlns="http://www.w3.org/2000/svg"><g id="027---Lego"><ellipse id="Oval" cx="18" cy="1" rx="3" ry="1"/><ellipse id="Oval" cx="9" cy="5" rx="3" ry="1"/><path id="Shape" d="m4.468 6.29-2.892 1.219 16.424 6.916 16.424-6.916-2.892-1.219c-1.1812914 1.21545952-2.8422292 1.84215935-4.532 1.71-2.851 0-5-1.29-5-3 .057371-.90829666.5937509-1.71743798 1.408-2.124l-1.016-.428c-1.1894789 1.09730976-2.777182 1.65835605-4.392 1.552-1.614818.10635605-3.2025211-.45469024-4.392-1.552l-1.016.428c.8142491.40656202 1.350629 1.21570334 1.408 2.124 0 1.71-2.149 3-5 3-1.68977076.13215935-3.35070856-.49454048-4.532-1.71zm13.532-.29c2.851 0 5 1.29 5 3s-2.149 3-5 3-5-1.29-5-3 2.149-3 5-3z"/><ellipse id="Oval" cx="27" cy="5" rx="3" ry="1"/><ellipse id="Oval" cx="18" cy="9" rx="3" ry="1"/><ellipse id="Oval" cx="28" cy="30" rx="3" ry="1"/><ellipse id="Oval" cx="37" cy="26" rx="3" ry="1"/><path id="Shape" d="m36 23.057v-14.041l-17 7.158v14.826l4.164-1.756c.536-1.316 2.425-2.244 4.836-2.244.158 0 .3.018.458.026l3.621-1.526c.321-1.257 1.85-2.21 3.921-2.443z"/><ellipse id="Oval" cx="46" cy="30" rx="3" ry="1"/><path id="Shape" d="m32.608 27.448-1.016.428c.8142491.406562 1.350629 1.2157033 1.408 2.124 0 1.71-2.149 3-5 3-1.6897708.1321594-3.3507086-.4945405-4.532-1.71l-2.893 1.219 16.425 6.916 16.425-6.916-2.893-1.219c-1.1812914 1.2154595-2.8422292 1.8421594-4.532 1.71-2.851 0-5-1.29-5-3 .057371-.9082967.5937509-1.717438 1.408-2.124l-1.016-.428c-1.1894789 1.0973098-2.777182 1.658356-4.392 1.552-1.614818.106356-3.2025211-.4546902-4.392-1.552zm9.392 6.552c0 1.71-2.149 3-5 3s-5-1.29-5-3 2.149-3 5-3 5 1.29 5 3z"/><ellipse id="Oval" cx="37" cy="34" rx="3" ry="1"/><path id="Shape" d="m55 34.016-17 7.158v14.32l17-7.158z"/><path id="Shape" d="m0 40.336 36 15.158v-14.32l-18.388-7.742-17.612-7.416zm10.082.737c.2195722-.506681.8082778-.7394772 1.315-.52l22 9.53c.4341221.1888371.6763433.6562151.5803388 1.1197932-.0960044.463578-.503925.7963153-.9773388.7972068-.1376895.0007996-.273996-.027484-.4-.083l-22-9.529c-.5059057-.2203397-.73771953-.8088247-.518-1.315zm-8-3.47c.21957217-.506681.80827784-.7394772 1.315-.52l3 1.3c.33398483.1382145.56738872.4459032.61048273.8047792.04309402.3588761-.11083004.7130753-.4025982.9264305-.29176815.2133553-.6759624.2526548-1.00488453.1027903l-3-1.3c-.24346309-.1058057-.43486614-.3040733-.53203094-.551112s-.09211704-.522574.01403094-.765888z"/><path id="Shape" d="m0 23.846 17 7.158v-14.83l-17-7.158z"/></g></svg>