<svg id="Solid" height="512" viewBox="0 0 512 512" width="512" xmlns="http://www.w3.org/2000/svg"><path d="m448 176h32v160h-32z"/><path d="m240 336h128v-224h-124l-20 26.667v213.333l9.6-12.8a8 8 0 0 1 6.4-3.2zm40-192h64a8 8 0 0 1 0 16h-64a8 8 0 0 1 0-16zm-32 32h96a8 8 0 0 1 0 16h-96a8 8 0 0 1 0-16zm104 40a8 8 0 0 1 -8 8h-32a8 8 0 0 1 0-16h32a8 8 0 0 1 8 8zm-104-8h32a8 8 0 0 1 0 16h-32a8 8 0 0 1 0-16zm0 32h96a8 8 0 0 1 0 16h-96a8 8 0 0 1 0-16zm0 32h48a8 8 0 0 1 0 16h-48a8 8 0 0 1 0-16z"/><path d="m456 400h16a8.009 8.009 0 0 0 8-8v-8h-32v8a8.009 8.009 0 0 0 8 8z"/><path d="m448 352h32v16h-32z"/><path d="m464 137.889-11.056 22.111h22.112z"/><path d="m368 368v-16h-124l-12 16z"/><path d="m198.4 339.2 9.6 12.8v-213.333l-20-26.667h-124v224h128a8 8 0 0 1 6.4 3.2zm-78.4-195.2h64a8 8 0 0 1 0 16h-64a8 8 0 0 1 0-16zm-32 32h96a8 8 0 0 1 0 16h-96a8 8 0 0 1 0-16zm104 40a8 8 0 0 1 -8 8h-32a8 8 0 0 1 0-16h32a8 8 0 0 1 8 8zm-104-8h32a8 8 0 0 1 0 16h-32a8 8 0 0 1 0-16zm0 32h96a8 8 0 0 1 0 16h-96a8 8 0 0 1 0-16zm104 40a8 8 0 0 1 -8 8h-32a8 8 0 0 1 0-16h32a8 8 0 0 1 8 8zm-104-8h32a8 8 0 0 1 0 16h-32a8 8 0 0 1 0-16zm96 48h-96a8 8 0 0 1 0-16h96a8 8 0 0 1 0 16z"/><path d="m188 352h-124v16h136z"/><path d="m400 128h-16v248a8 8 0 0 1 -8 8h-320a8 8 0 0 1 -8-8v-248h-16v272h368z"/></svg>