<svg height="512" viewBox="0 0 64 64" width="512" xmlns="http://www.w3.org/2000/svg"><g id="Tools_box" data-name="Tools box"><path d="m44 21a1 1 0 0 1 1-1h3a1 1 0 0 1 1 1v1h1v-6h-1v1a1 1 0 0 1 -1 1h-3a1 1 0 0 1 -1-1v-1h-5a7.009 7.009 0 0 0 -6.938 6.073l.956-1.2a4.975 4.975 0 0 1 3.905-1.873 1.068 1.068 0 0 1 1.077 1v2h6z"/><path d="m6 9v23h2v-21a1 1 0 0 1 1-1h46a1 1 0 0 1 1 1v21h2v-23a1 1 0 0 0 -1-1h-50a1 1 0 0 0 -1 1z"/><path d="m40 24h2v8h-2z"/><path d="m24 6h16v-1a1 1 0 0 0 -1-1h-14a1 1 0 0 0 -1 1z"/><path d="m4 35v24a1 1 0 0 0 1 1h54a1 1 0 0 0 1-1v-24a1 1 0 0 0 -1-1h-54a1 1 0 0 0 -1 1zm19 1h18a3 3 0 0 1 0 6h-18a3 3 0 0 1 0-6z"/><path d="m22 32v-3.528a3.008 3.008 0 0 1 1.35-2.5 6 6 0 0 0 .65-9.45v4.478a1 1 0 0 1 -.445.832l-3 2a1 1 0 0 1 -1.11 0l-3-2a1 1 0 0 1 -.445-.832v-4.478a6 6 0 0 0 .65 9.453 3.011 3.011 0 0 1 1.35 2.5v3.525z"/><path d="m23 40h18a1 1 0 0 0 0-2h-18a1 1 0 0 0 0 2z"/></g></svg>