<svg id="Layer_3" enable-background="new 0 0 64 64" height="512" viewBox="0 0 64 64" width="512" xmlns="http://www.w3.org/2000/svg"><g><path d="m53 35h-5-1v6h6z"/><path d="m47 43h6v2h-6z"/><path d="m33 28v-6c0-.155.036-.309.105-.447l.895-1.789v-2.764h-4v2.764l.895 1.789c.069.138.105.292.105.447v6z"/><path d="m55 11h-46v22h6v-5.333c-2.419-1.149-4-3.605-4-6.319 0-2.956 1.875-5.606 4.666-6.594.307-.107.646-.062.911.126s.423.493.423.817v5.237l1 1 1-1v-5.237c0-.325.158-.629.423-.816.266-.188.604-.233.911-.126 2.791.988 4.666 3.638 4.666 6.594 0 2.714-1.581 5.17-4 6.319v5.332h6v-4c0-.552.448-1 1-1h1v-5.764l-.895-1.789c-.069-.138-.105-.292-.105-.447v-4c0-.552.448-1 1-1h6c.552 0 1 .448 1 1v4c0 .155-.036.309-.105.447l-.895 1.789v5.764h1c.552 0 1 .448 1 1v4h6v-5.333c-2.419-1.149-4-3.605-4-6.319 0-2.956 1.875-5.606 4.666-6.594.306-.107.646-.062.911.126s.423.493.423.817v5.237l1 1 1-1v-5.237c0-.325.158-.629.423-.816.265-.188.605-.233.911-.126 2.791.988 4.666 3.638 4.666 6.594 0 2.714-1.581 5.17-4 6.319v5.332h6z"/><path d="m47 33v-6c0-.424.267-.801.666-.943 1.994-.706 3.334-2.598 3.334-4.708 0-1.595-.765-3.065-2-3.993v3.993c0 .265-.105.52-.293.707l-2 2c-.391.391-1.023.391-1.414 0l-2-2c-.188-.188-.293-.442-.293-.707v-3.993c-1.235.928-2 2.398-2 3.993 0 2.11 1.34 4.002 3.334 4.708.399.142.666.519.666.943v6z"/><path d="m28 3h8v2h-8z"/><path d="m7 10c0-.552.448-1 1-1h48c.552 0 1 .448 1 1v23h2v-23c0-1.654-1.346-3-3-3h-48c-1.654 0-3 1.346-3 3v23h2z"/><path d="m11 43h6v2h-6z"/><path d="m55 35v11c0 .552-.448 1-1 1h-8c-.552 0-1-.448-1-1v-11h-1-6v5c0 .552-.448 1-1 1h-10c-.552 0-1-.448-1-1v-5h-6-1v11c0 .552-.448 1-1 1h-8c-.552 0-1-.448-1-1v-11h-6v22c0 2.206 1.794 4 4 4h50c2.206 0 4-1.794 4-4v-22z"/><path d="m17 35h-1-5v6h6z"/><path d="m19 33v-6c0-.424.267-.801.666-.943 1.994-.706 3.334-2.598 3.334-4.708 0-1.595-.765-3.065-2-3.993v3.993c0 .265-.105.52-.293.707l-2 2c-.391.391-1.023.391-1.414 0l-2-2c-.188-.188-.293-.442-.293-.707v-3.993c-1.235.928-2 2.398-2 3.993 0 2.11 1.34 4.002 3.334 4.708.399.142.666.519.666.943v6z"/><path d="m28 35h8v4h-8z"/><path d="m29 30h6v3h-6z"/></g></svg>