<svg id="Layer_1" enable-background="new 0 0 512 512" height="512" viewBox="0 0 512 512" width="512" xmlns="http://www.w3.org/2000/svg"><g><path d="m482 308.965h-30v-17c0-8.284-6.716-15-15-15h-120c-8.284 0-15 6.716-15 15v125.048c0 24.813 20.187 45 45 45h60c23.926 0 43.542-18.77 44.916-42.356 33.707-3.475 60.084-32.038 60.084-66.647v-14.045c0-16.542-13.458-30-30-30zm0 44.045c0 18.01-12.934 33.056-30 36.338v-50.383h30z"/><path d="m202.5 79.988c8.271 0 15-6.729 15-15s-6.729-15-15-15-15 6.729-15 15 6.729 15 15 15z"/><path d="m405 246.965v-181.977c0-8.284-6.716-15-15-15h-145.08c1.665 4.695 2.58 9.741 2.58 15 0 24.813-20.187 45-45 45s-45-20.187-45-45c0-5.259.915-10.305 2.58-15h-145.08c-8.284 0-15 6.716-15 15v212.024h274.564c6.179-17.483 22.863-30.047 42.436-30.047z"/><path d="m272 307.012h-272v27.976c0 8.284 6.716 15 15 15h257z"/><path d="m272 379.988h-139v23h-31.011c-8.284 0-15 6.716-15 15s6.716 15 15 15h171.741c-1.122-5.151-1.73-10.492-1.73-15.975z"/></g></svg>