<svg xmlns="http://www.w3.org/2000/svg" width="27.001" height="27.002" viewBox="0 0 27.001 27.002">
  <g id="Icon_ionic-ios-color-wand" data-name="Icon ionic-ios-color-wand" transform="translate(-4.5 -4.5)">
    <path id="Path_2" data-name="Path 2" d="M31.338,28.519,14.154,11.278a.564.564,0,0,0-.795,0L11.341,13.3a.564.564,0,0,0,0,.795L28.526,31.338a.564.564,0,0,0,.795,0l2.011-2.025A.558.558,0,0,0,31.338,28.519Zm-1.793,1.005-.007.007a.564.564,0,0,1-.795,0L15.391,16.137a.564.564,0,0,1,0-.795l.007-.007a.564.564,0,0,1,.795,0L29.545,28.73A.564.564,0,0,1,29.545,29.524Z"/>
    <path id="Path_3" data-name="Path 3" d="M13.556,8.445A.846.846,0,0,0,14.4,7.6V5.344a.844.844,0,0,0-1.687,0V7.6A.846.846,0,0,0,13.556,8.445Z" fill="#32f31d"/>
    <path id="Path_4" data-name="Path 4" d="M13.556,18.513a.846.846,0,0,0-.844.844v2.257a.844.844,0,0,0,1.688,0V19.357A.846.846,0,0,0,13.556,18.513Z" fill="#60f"/>
    <path id="Path_5" data-name="Path 5" d="M19.034,13.373a.846.846,0,0,0,.844.844h2.25a.844.844,0,0,0,0-1.687h-2.25A.846.846,0,0,0,19.034,13.373Z" fill="rgba(10,216,239,0.52)"/>
    <path id="Path_6" data-name="Path 6" d="M8.43,13.373a.846.846,0,0,0-.844-.844H5.344a.844.844,0,0,0,0,1.688h2.25A.845.845,0,0,0,8.43,13.373Z" fill="#eb2c2c"/>
    <path id="Path_7" data-name="Path 7" d="M8.775,9.914a.835.835,0,0,0,.6.246.865.865,0,0,0,.6-.246.845.845,0,0,0,0-1.2L8.5,7.242A.835.835,0,0,0,7.9,7a.865.865,0,0,0-.6.246.845.845,0,0,0,0,1.2Z" fill="#f7ff00"/>
    <path id="Path_8" data-name="Path 8" d="M9.373,16.868h0a.865.865,0,0,0-.6.246l-1.47,1.477a.844.844,0,0,0,.6,1.441.865.865,0,0,0,.6-.246l1.47-1.477a.845.845,0,0,0,0-1.2A.865.865,0,0,0,9.373,16.868Z" fill="#d0f"/>
    <path id="Path_9" data-name="Path 9" d="M17.747,10.16a.865.865,0,0,0,.6-.246l1.47-1.477a.845.845,0,0,0,0-1.2.835.835,0,0,0-.6-.246.865.865,0,0,0-.6.246l-1.47,1.477a.849.849,0,0,0,0,1.2A.865.865,0,0,0,17.747,10.16Z" fill="#f6246c"/>
  </g>
</svg>
