<svg fill="#f5f5f7" height="457pt" viewBox="-4 0 457 457.6" width="457pt" xmlns="http://www.w3.org/2000/svg"><path d="m208.300781 4.800781h-96v448h96zm-24 416h-48c-4.417969 0-8-3.582031-8-8s3.582031-8 8-8h48c4.417969 0 8 3.582031 8 8s-3.582031 8-8 8zm0-32h-48c-4.417969 0-8-3.582031-8-8s3.582031-8 8-8h48c4.417969 0 8 3.582031 8 8s-3.582031 8-8 8zm0-304h-48c-4.417969 0-8-3.582031-8-8s3.582031-8 8-8h48c4.417969 0 8 3.582031 8 8s-3.582031 8-8 8zm0-32h-48c-4.417969 0-8-3.582031-8-8s3.582031-8 8-8h48c4.417969 0 8 3.582031 8 8s-3.582031 8-8 8zm0 0"/><path d="m.300781 452.800781h96v-448h-96zm24-416h48c4.417969 0 8 3.582031 8 8s-3.582031 8-8 8h-48c-4.417969 0-8-3.582031-8-8s3.582031-8 8-8zm0 32h48c4.417969 0 8 3.582031 8 8s-3.582031 8-8 8h-48c-4.417969 0-8-3.582031-8-8s3.582031-8 8-8zm0 304h48c4.417969 0 8 3.582031 8 8s-3.582031 8-8 8h-48c-4.417969 0-8-3.582031-8-8s3.582031-8 8-8zm0 32h48c4.417969 0 8 3.582031 8 8s-3.582031 8-8 8h-48c-4.417969 0-8-3.582031-8-8s3.582031-8 8-8zm0 0"/><path d="m239.964844 24.855469 115.941406 432.746093 92.730469-24.847656-115.945313-432.753906zm25.808594 34.496093c-1.144532-4.269531 1.386718-8.65625 5.65625-9.800781l46.398437-12.414062c2.820313-.914063 5.914063-.191407 8.039063 1.875 2.125 2.0625 2.933593 5.136719 2.101562 7.980469s-3.164062 4.996093-6.070312 5.59375l-46.398438 12.421874c-4.265625 1.140626-8.648438-1.390624-9.792969-5.65625zm157.054687 338.894532c1.144531 4.269531-1.386719 8.65625-5.65625 9.800781l-46.398437 12.417969c-.675782.1875-1.375.28125-2.074219.277344-4.015625.003906-7.410157-2.972657-7.933594-6.953126-.523437-3.980468 1.984375-7.734374 5.863281-8.773437l46.398438-12.421875c4.269531-1.148438 8.65625 1.386719 9.800781 5.652344zm-64.441406-24.140625 46.402343-12.425781c4.257813-1.117188 8.621094 1.414062 9.757813 5.671874 1.140625 4.253907-1.375 8.625-5.621094 9.785157l-46.394531 12.464843c-.675781.179688-1.371094.269532-2.070312.269532-4.015626.003906-7.410157-2.972656-7.9375-6.953125-.523438-3.984375 1.984374-7.734375 5.863281-8.773438zm-22.519531-300.410157c1.144531 4.269532-1.386719 8.65625-5.65625 9.800782l-46.398438 12.425781c-4.261719 1.117187-8.621094-1.417969-9.761719-5.671875-1.136719-4.253906 1.375-8.628906 5.625-9.785156l46.359375-12.425782c2.054688-.558593 4.246094-.277343 6.09375.785157 1.84375 1.0625 3.191406 2.816406 3.738282 4.871093zm0 0"/></svg>