<svg fill="#f5f5f7" height="512" viewBox="0 0 54 56" width="512" xmlns="http://www.w3.org/2000/svg"><g id="003---Cooking"><path id="Shape" d="m14.28 4.3c-1.3769026 1.53668602-1.3769026 3.86331398 0 5.4.0296661.02918773.0610557.05657021.094.082.5264161.7593396.496408 1.7731264-.074 2.5-.0341931.0337655-.0656269.0702154-.094.109l-.01.013c-.2190703.3028853-.2509212.7026647-.0825725 1.0364161.1683488.3337514.5087857.5457438.8825725.5495839.2766106.0005222.5412815-.1126499.732-.313 1.3659098-1.5378099 1.360316-3.85580048-.013-5.387-.0290976-.02941814-.0601698-.05681519-.093-.082-.4984611-.72783744-.4984611-1.68716256 0-2.415.0350134-.02629521.0684075-.05468017.1-.085 1.3618203-1.5194703 1.3802486-3.81486055.043-5.356-.3400093-.40175698-.9344257-.4684369-1.355-.152-.4419275.3335081-.5313104.96142245-.2 1.405.0283731.0387846.0598069.07523447.094.109.5706984.72654524.6015114 1.74012998.076 2.5-.0348015.02691386-.0681799.05561929-.1.086z"/><path id="Shape" d="m19.527 4.3c-1.3759894 1.53703517-1.3759894 3.86296483 0 5.4.0316685.02961327.0650601.05732829.1.083.5255114.75987.4946984 1.7734548-.076 2.5-.0338791.0337749-.0649798.0702263-.093.109l-.01.013c-.2190703.3028853-.2509212.7026647-.0825725 1.0364161.1683488.3337514.5087857.5457438.8825725.5495839.2768619.0003259.5417684-.1127924.733-.313 1.3654557-1.5379818 1.3598627-3.8556264-.013-5.387-.0296567-.02950946-.0610456-.05722526-.094-.083-.4968779-.72796173-.4968779-1.68603827 0-2.414.0354307-.02576907.0688595-.05418361.1-.085 1.3609349-1.51981298 1.3793578-3.81453213.043-5.356-.342115-.3966279-.9323165-.46206044-1.353-.15-.4419275.3335081-.5313104.96142245-.2 1.405.0280202.03877372.0591209.07522515.093.109.5709899.72621701.6026074 1.73960036.078 2.5-.0378647.02515181-.0739502.05288423-.108.083z"/><path id="Shape" d="m24.527 4.3c-1.3759894 1.53703517-1.3759894 3.86296483 0 5.4.0316685.02961327.0650601.05732829.1.083.5255114.75987.4946984 1.7734548-.076 2.5-.0338791.0337749-.0649798.0702263-.093.109l-.01.013c-.2190703.3028853-.2509212.7026647-.0825725 1.0364161.1683488.3337514.5087857.5457438.8825725.5495839.2768619.0003259.5417684-.1127924.733-.313 1.3654557-1.5379818 1.3598627-3.8556264-.013-5.387-.0296567-.02950946-.0610456-.05722526-.094-.083-.4968779-.72796173-.4968779-1.68603827 0-2.414.0354307-.02576907.0688595-.05418361.1-.085 1.3609349-1.51981298 1.3793578-3.81453213.043-5.356-.342115-.3966279-.9323165-.46206044-1.353-.15-.4419275.3335081-.5313104.96142245-.2 1.405.0280202.03877372.0591209.07522515.093.109.5709899.72621701.6026074 1.73960036.078 2.5-.0378647.02515181-.0739502.05288423-.108.083z"/><path id="Shape" d="m43.84 6.81c1.0882897-2.41936037.0211374-5.26361152-2.39-6.37-.02-.01-.05-.02-.07-.03-1.1897195-.52300807-2.5408213-.54047755-3.7436656-.04840487-1.2028444.49207267-2.1543065 1.45150012-2.6363344 2.65840487l-4.58 14.98h6.87zm-6.69-1.71c.66-1.52 2.02-2.39 3.03-1.95s1.3 2.04.63 3.55-2.02 2.39-3.04 1.95-1.29-2.03-.62-3.55z"/><path id="Shape" d="m44 24h5c1.1045695 0 2-.8954305 2-2s-.8954305-2-2-2h-5z"/><path id="Shape" d="m54 47c-.0032948-1.1032019-.8967981-1.9967052-2-2h-50c-1.10320187.0032948-1.9967052.8967981-2 2v9h54zm-21 5c0 .5522847-.4477153 1-1 1h-10c-.5522847 0-1-.4477153-1-1v-3c0-.5522847.4477153-1 1-1h10c.5522847 0 1 .4477153 1 1zm6.5 1c-1.3807119 0-2.5-1.1192881-2.5-2.5s1.1192881-2.5 2.5-2.5 2.5 1.1192881 2.5 2.5-1.1192881 2.5-2.5 2.5zm9 0c-1.3807119 0-2.5-1.1192881-2.5-2.5s1.1192881-2.5 2.5-2.5 2.5 1.1192881 2.5 2.5-1.1192881 2.5-2.5 2.5z"/><path id="Shape" d="m5 24h5v-4h-5c-1.1045695 0-2 .8954305-2 2s.8954305 2 2 2z"/><path id="Shape" d="m17 43h20c2.7614237 0 5-2.2385763 5-5v-18h-30v18c0 2.7614237 2.2385763 5 5 5zm-3-20c0-.5522847.4477153-1 1-1s1 .4477153 1 1v1c0 .5522847-.4477153 1-1 1s-1-.4477153-1-1zm0 5c0-.5522847.4477153-1 1-1s1 .4477153 1 1v10c0 .5522847-.4477153 1-1 1s-1-.4477153-1-1z"/></g></svg>