<svg xmlns="http://www.w3.org/2000/svg" xmlns:xlink="http://www.w3.org/1999/xlink" width="249" height="386" viewBox="0 0 249 386">
  <defs>
    <clipPath id="clip-path">
      <rect width="153" height="237" fill="none"/>
    </clipPath>
  </defs>
  <g id="Group_534" data-name="Group 534" transform="translate(-650 -37)">
    <g id="Repeat_Grid_1" data-name="Repeat Grid 1" transform="translate(746 37)" clip-path="url(#clip-path)">
      <g transform="translate(-1222 -85)">
        <circle id="Ellipse_2" data-name="Ellipse 2" cx="6" cy="6" r="6" transform="translate(1222 85)" fill="#fff"/>
      </g>
      <g transform="translate(-1194 -85)">
        <circle id="Ellipse_2-2" data-name="Ellipse 2" cx="6" cy="6" r="6" transform="translate(1222 85)" fill="#fff"/>
      </g>
      <g transform="translate(-1166 -85)">
        <circle id="Ellipse_2-3" data-name="Ellipse 2" cx="6" cy="6" r="6" transform="translate(1222 85)" fill="#fff"/>
      </g>
      <g transform="translate(-1138 -85)">
        <circle id="Ellipse_2-4" data-name="Ellipse 2" cx="6" cy="6" r="6" transform="translate(1222 85)" fill="#fff"/>
      </g>
      <g transform="translate(-1110 -85)">
        <circle id="Ellipse_2-5" data-name="Ellipse 2" cx="6" cy="6" r="6" transform="translate(1222 85)" fill="#fff"/>
      </g>
      <g transform="translate(-1082 -85)">
        <circle id="Ellipse_2-6" data-name="Ellipse 2" cx="6" cy="6" r="6" transform="translate(1222 85)" fill="#fff"/>
      </g>
      <g transform="translate(-1222 -53)">
        <circle id="Ellipse_2-7" data-name="Ellipse 2" cx="6" cy="6" r="6" transform="translate(1222 85)" fill="#fff"/>
      </g>
      <g transform="translate(-1194 -53)">
        <circle id="Ellipse_2-8" data-name="Ellipse 2" cx="6" cy="6" r="6" transform="translate(1222 85)" fill="#fff"/>
      </g>
      <g transform="translate(-1166 -53)">
        <circle id="Ellipse_2-9" data-name="Ellipse 2" cx="6" cy="6" r="6" transform="translate(1222 85)" fill="#fff"/>
      </g>
      <g transform="translate(-1138 -53)">
        <circle id="Ellipse_2-10" data-name="Ellipse 2" cx="6" cy="6" r="6" transform="translate(1222 85)" fill="#fff"/>
      </g>
      <g transform="translate(-1110 -53)">
        <circle id="Ellipse_2-11" data-name="Ellipse 2" cx="6" cy="6" r="6" transform="translate(1222 85)" fill="#fff"/>
      </g>
      <g transform="translate(-1082 -53)">
        <circle id="Ellipse_2-12" data-name="Ellipse 2" cx="6" cy="6" r="6" transform="translate(1222 85)" fill="#fff"/>
      </g>
      <g transform="translate(-1222 -21)">
        <circle id="Ellipse_2-13" data-name="Ellipse 2" cx="6" cy="6" r="6" transform="translate(1222 85)" fill="#fff"/>
      </g>
      <g transform="translate(-1194 -21)">
        <circle id="Ellipse_2-14" data-name="Ellipse 2" cx="6" cy="6" r="6" transform="translate(1222 85)" fill="#fff"/>
      </g>
      <g transform="translate(-1166 -21)">
        <circle id="Ellipse_2-15" data-name="Ellipse 2" cx="6" cy="6" r="6" transform="translate(1222 85)" fill="#fff"/>
      </g>
      <g transform="translate(-1138 -21)">
        <circle id="Ellipse_2-16" data-name="Ellipse 2" cx="6" cy="6" r="6" transform="translate(1222 85)" fill="#fff"/>
      </g>
      <g transform="translate(-1110 -21)">
        <circle id="Ellipse_2-17" data-name="Ellipse 2" cx="6" cy="6" r="6" transform="translate(1222 85)" fill="#fff"/>
      </g>
      <g transform="translate(-1082 -21)">
        <circle id="Ellipse_2-18" data-name="Ellipse 2" cx="6" cy="6" r="6" transform="translate(1222 85)" fill="#fff"/>
      </g>
      <g transform="translate(-1222 11)">
        <circle id="Ellipse_2-19" data-name="Ellipse 2" cx="6" cy="6" r="6" transform="translate(1222 85)" fill="#fff"/>
      </g>
      <g transform="translate(-1194 11)">
        <circle id="Ellipse_2-20" data-name="Ellipse 2" cx="6" cy="6" r="6" transform="translate(1222 85)" fill="#fff"/>
      </g>
      <g transform="translate(-1166 11)">
        <circle id="Ellipse_2-21" data-name="Ellipse 2" cx="6" cy="6" r="6" transform="translate(1222 85)" fill="#fff"/>
      </g>
      <g transform="translate(-1138 11)">
        <circle id="Ellipse_2-22" data-name="Ellipse 2" cx="6" cy="6" r="6" transform="translate(1222 85)" fill="#fff"/>
      </g>
      <g transform="translate(-1110 11)">
        <circle id="Ellipse_2-23" data-name="Ellipse 2" cx="6" cy="6" r="6" transform="translate(1222 85)" fill="#fff"/>
      </g>
      <g transform="translate(-1082 11)">
        <circle id="Ellipse_2-24" data-name="Ellipse 2" cx="6" cy="6" r="6" transform="translate(1222 85)" fill="#fff"/>
      </g>
      <g transform="translate(-1222 43)">
        <circle id="Ellipse_2-25" data-name="Ellipse 2" cx="6" cy="6" r="6" transform="translate(1222 85)" fill="#fff"/>
      </g>
      <g transform="translate(-1194 43)">
        <circle id="Ellipse_2-26" data-name="Ellipse 2" cx="6" cy="6" r="6" transform="translate(1222 85)" fill="#fff"/>
      </g>
      <g transform="translate(-1166 43)">
        <circle id="Ellipse_2-27" data-name="Ellipse 2" cx="6" cy="6" r="6" transform="translate(1222 85)" fill="#fff"/>
      </g>
      <g transform="translate(-1138 43)">
        <circle id="Ellipse_2-28" data-name="Ellipse 2" cx="6" cy="6" r="6" transform="translate(1222 85)" fill="#fff"/>
      </g>
      <g transform="translate(-1110 43)">
        <circle id="Ellipse_2-29" data-name="Ellipse 2" cx="6" cy="6" r="6" transform="translate(1222 85)" fill="#fff"/>
      </g>
      <g transform="translate(-1082 43)">
        <circle id="Ellipse_2-30" data-name="Ellipse 2" cx="6" cy="6" r="6" transform="translate(1222 85)" fill="#fff"/>
      </g>
      <g transform="translate(-1222 75)">
        <circle id="Ellipse_2-31" data-name="Ellipse 2" cx="6" cy="6" r="6" transform="translate(1222 85)" fill="#fff"/>
      </g>
      <g transform="translate(-1194 75)">
        <circle id="Ellipse_2-32" data-name="Ellipse 2" cx="6" cy="6" r="6" transform="translate(1222 85)" fill="#fff"/>
      </g>
      <g transform="translate(-1166 75)">
        <circle id="Ellipse_2-33" data-name="Ellipse 2" cx="6" cy="6" r="6" transform="translate(1222 85)" fill="#fff"/>
      </g>
      <g transform="translate(-1138 75)">
        <circle id="Ellipse_2-34" data-name="Ellipse 2" cx="6" cy="6" r="6" transform="translate(1222 85)" fill="#fff"/>
      </g>
      <g transform="translate(-1110 75)">
        <circle id="Ellipse_2-35" data-name="Ellipse 2" cx="6" cy="6" r="6" transform="translate(1222 85)" fill="#fff"/>
      </g>
      <g transform="translate(-1082 75)">
        <circle id="Ellipse_2-36" data-name="Ellipse 2" cx="6" cy="6" r="6" transform="translate(1222 85)" fill="#fff"/>
      </g>
      <g transform="translate(-1222 107)">
        <circle id="Ellipse_2-37" data-name="Ellipse 2" cx="6" cy="6" r="6" transform="translate(1222 85)" fill="#fff"/>
      </g>
      <g transform="translate(-1194 107)">
        <circle id="Ellipse_2-38" data-name="Ellipse 2" cx="6" cy="6" r="6" transform="translate(1222 85)" fill="#fff"/>
      </g>
      <g transform="translate(-1166 107)">
        <circle id="Ellipse_2-39" data-name="Ellipse 2" cx="6" cy="6" r="6" transform="translate(1222 85)" fill="#fff"/>
      </g>
      <g transform="translate(-1138 107)">
        <circle id="Ellipse_2-40" data-name="Ellipse 2" cx="6" cy="6" r="6" transform="translate(1222 85)" fill="#fff"/>
      </g>
      <g transform="translate(-1110 107)">
        <circle id="Ellipse_2-41" data-name="Ellipse 2" cx="6" cy="6" r="6" transform="translate(1222 85)" fill="#fff"/>
      </g>
      <g transform="translate(-1082 107)">
        <circle id="Ellipse_2-42" data-name="Ellipse 2" cx="6" cy="6" r="6" transform="translate(1222 85)" fill="#fff"/>
      </g>
      <g transform="translate(-1222 139)">
        <circle id="Ellipse_2-43" data-name="Ellipse 2" cx="6" cy="6" r="6" transform="translate(1222 85)" fill="#fff"/>
      </g>
      <g transform="translate(-1194 139)">
        <circle id="Ellipse_2-44" data-name="Ellipse 2" cx="6" cy="6" r="6" transform="translate(1222 85)" fill="#fff"/>
      </g>
      <g transform="translate(-1166 139)">
        <circle id="Ellipse_2-45" data-name="Ellipse 2" cx="6" cy="6" r="6" transform="translate(1222 85)" fill="#fff"/>
      </g>
      <g transform="translate(-1138 139)">
        <circle id="Ellipse_2-46" data-name="Ellipse 2" cx="6" cy="6" r="6" transform="translate(1222 85)" fill="#fff"/>
      </g>
      <g transform="translate(-1110 139)">
        <circle id="Ellipse_2-47" data-name="Ellipse 2" cx="6" cy="6" r="6" transform="translate(1222 85)" fill="#fff"/>
      </g>
      <g transform="translate(-1082 139)">
        <circle id="Ellipse_2-48" data-name="Ellipse 2" cx="6" cy="6" r="6" transform="translate(1222 85)" fill="#fff"/>
      </g>
    </g>
    <g id="Repeat_Grid_2" data-name="Repeat Grid 2" transform="translate(650 186)" clip-path="url(#clip-path)">
      <g transform="translate(-1222 -85)">
        <circle id="Ellipse_2-49" data-name="Ellipse 2" cx="6" cy="6" r="6" transform="translate(1222 85)" fill="rgba(10,216,239,0.52)"/>
      </g>
      <g transform="translate(-1194 -85)">
        <circle id="Ellipse_2-50" data-name="Ellipse 2" cx="6" cy="6" r="6" transform="translate(1222 85)" fill="rgba(10,216,239,0.52)"/>
      </g>
      <g transform="translate(-1166 -85)">
        <circle id="Ellipse_2-51" data-name="Ellipse 2" cx="6" cy="6" r="6" transform="translate(1222 85)" fill="rgba(10,216,239,0.52)"/>
      </g>
      <g transform="translate(-1138 -85)">
        <circle id="Ellipse_2-52" data-name="Ellipse 2" cx="6" cy="6" r="6" transform="translate(1222 85)" fill="rgba(10,216,239,0.52)"/>
      </g>
      <g transform="translate(-1110 -85)">
        <circle id="Ellipse_2-53" data-name="Ellipse 2" cx="6" cy="6" r="6" transform="translate(1222 85)" fill="rgba(10,216,239,0.52)"/>
      </g>
      <g transform="translate(-1082 -85)">
        <circle id="Ellipse_2-54" data-name="Ellipse 2" cx="6" cy="6" r="6" transform="translate(1222 85)" fill="rgba(10,216,239,0.52)"/>
      </g>
      <g transform="translate(-1222 -53)">
        <circle id="Ellipse_2-55" data-name="Ellipse 2" cx="6" cy="6" r="6" transform="translate(1222 85)" fill="rgba(10,216,239,0.52)"/>
      </g>
      <g transform="translate(-1194 -53)">
        <circle id="Ellipse_2-56" data-name="Ellipse 2" cx="6" cy="6" r="6" transform="translate(1222 85)" fill="rgba(10,216,239,0.52)"/>
      </g>
      <g transform="translate(-1166 -53)">
        <circle id="Ellipse_2-57" data-name="Ellipse 2" cx="6" cy="6" r="6" transform="translate(1222 85)" fill="rgba(10,216,239,0.52)"/>
      </g>
      <g transform="translate(-1138 -53)">
        <circle id="Ellipse_2-58" data-name="Ellipse 2" cx="6" cy="6" r="6" transform="translate(1222 85)" fill="rgba(10,216,239,0.52)"/>
      </g>
      <g transform="translate(-1110 -53)">
        <circle id="Ellipse_2-59" data-name="Ellipse 2" cx="6" cy="6" r="6" transform="translate(1222 85)" fill="rgba(10,216,239,0.52)"/>
      </g>
      <g transform="translate(-1082 -53)">
        <circle id="Ellipse_2-60" data-name="Ellipse 2" cx="6" cy="6" r="6" transform="translate(1222 85)" fill="rgba(10,216,239,0.52)"/>
      </g>
      <g transform="translate(-1222 -21)">
        <circle id="Ellipse_2-61" data-name="Ellipse 2" cx="6" cy="6" r="6" transform="translate(1222 85)" fill="rgba(10,216,239,0.52)"/>
      </g>
      <g transform="translate(-1194 -21)">
        <circle id="Ellipse_2-62" data-name="Ellipse 2" cx="6" cy="6" r="6" transform="translate(1222 85)" fill="rgba(10,216,239,0.52)"/>
      </g>
      <g transform="translate(-1166 -21)">
        <circle id="Ellipse_2-63" data-name="Ellipse 2" cx="6" cy="6" r="6" transform="translate(1222 85)" fill="rgba(10,216,239,0.52)"/>
      </g>
      <g transform="translate(-1138 -21)">
        <circle id="Ellipse_2-64" data-name="Ellipse 2" cx="6" cy="6" r="6" transform="translate(1222 85)" fill="rgba(10,216,239,0.52)"/>
      </g>
      <g transform="translate(-1110 -21)">
        <circle id="Ellipse_2-65" data-name="Ellipse 2" cx="6" cy="6" r="6" transform="translate(1222 85)" fill="rgba(10,216,239,0.52)"/>
      </g>
      <g transform="translate(-1082 -21)">
        <circle id="Ellipse_2-66" data-name="Ellipse 2" cx="6" cy="6" r="6" transform="translate(1222 85)" fill="rgba(10,216,239,0.52)"/>
      </g>
      <g transform="translate(-1222 11)">
        <circle id="Ellipse_2-67" data-name="Ellipse 2" cx="6" cy="6" r="6" transform="translate(1222 85)" fill="rgba(10,216,239,0.52)"/>
      </g>
      <g transform="translate(-1194 11)">
        <circle id="Ellipse_2-68" data-name="Ellipse 2" cx="6" cy="6" r="6" transform="translate(1222 85)" fill="rgba(10,216,239,0.52)"/>
      </g>
      <g transform="translate(-1166 11)">
        <circle id="Ellipse_2-69" data-name="Ellipse 2" cx="6" cy="6" r="6" transform="translate(1222 85)" fill="rgba(10,216,239,0.52)"/>
      </g>
      <g transform="translate(-1138 11)">
        <circle id="Ellipse_2-70" data-name="Ellipse 2" cx="6" cy="6" r="6" transform="translate(1222 85)" fill="rgba(10,216,239,0.52)"/>
      </g>
      <g transform="translate(-1110 11)">
        <circle id="Ellipse_2-71" data-name="Ellipse 2" cx="6" cy="6" r="6" transform="translate(1222 85)" fill="rgba(10,216,239,0.52)"/>
      </g>
      <g transform="translate(-1082 11)">
        <circle id="Ellipse_2-72" data-name="Ellipse 2" cx="6" cy="6" r="6" transform="translate(1222 85)" fill="rgba(10,216,239,0.52)"/>
      </g>
      <g transform="translate(-1222 43)">
        <circle id="Ellipse_2-73" data-name="Ellipse 2" cx="6" cy="6" r="6" transform="translate(1222 85)" fill="rgba(10,216,239,0.52)"/>
      </g>
      <g transform="translate(-1194 43)">
        <circle id="Ellipse_2-74" data-name="Ellipse 2" cx="6" cy="6" r="6" transform="translate(1222 85)" fill="rgba(10,216,239,0.52)"/>
      </g>
      <g transform="translate(-1166 43)">
        <circle id="Ellipse_2-75" data-name="Ellipse 2" cx="6" cy="6" r="6" transform="translate(1222 85)" fill="rgba(10,216,239,0.52)"/>
      </g>
      <g transform="translate(-1138 43)">
        <circle id="Ellipse_2-76" data-name="Ellipse 2" cx="6" cy="6" r="6" transform="translate(1222 85)" fill="rgba(10,216,239,0.52)"/>
      </g>
      <g transform="translate(-1110 43)">
        <circle id="Ellipse_2-77" data-name="Ellipse 2" cx="6" cy="6" r="6" transform="translate(1222 85)" fill="rgba(10,216,239,0.52)"/>
      </g>
      <g transform="translate(-1082 43)">
        <circle id="Ellipse_2-78" data-name="Ellipse 2" cx="6" cy="6" r="6" transform="translate(1222 85)" fill="rgba(10,216,239,0.52)"/>
      </g>
      <g transform="translate(-1222 75)">
        <circle id="Ellipse_2-79" data-name="Ellipse 2" cx="6" cy="6" r="6" transform="translate(1222 85)" fill="rgba(10,216,239,0.52)"/>
      </g>
      <g transform="translate(-1194 75)">
        <circle id="Ellipse_2-80" data-name="Ellipse 2" cx="6" cy="6" r="6" transform="translate(1222 85)" fill="rgba(10,216,239,0.52)"/>
      </g>
      <g transform="translate(-1166 75)">
        <circle id="Ellipse_2-81" data-name="Ellipse 2" cx="6" cy="6" r="6" transform="translate(1222 85)" fill="rgba(10,216,239,0.52)"/>
      </g>
      <g transform="translate(-1138 75)">
        <circle id="Ellipse_2-82" data-name="Ellipse 2" cx="6" cy="6" r="6" transform="translate(1222 85)" fill="rgba(10,216,239,0.52)"/>
      </g>
      <g transform="translate(-1110 75)">
        <circle id="Ellipse_2-83" data-name="Ellipse 2" cx="6" cy="6" r="6" transform="translate(1222 85)" fill="rgba(10,216,239,0.52)"/>
      </g>
      <g transform="translate(-1082 75)">
        <circle id="Ellipse_2-84" data-name="Ellipse 2" cx="6" cy="6" r="6" transform="translate(1222 85)" fill="rgba(10,216,239,0.52)"/>
      </g>
      <g transform="translate(-1222 107)">
        <circle id="Ellipse_2-85" data-name="Ellipse 2" cx="6" cy="6" r="6" transform="translate(1222 85)" fill="rgba(10,216,239,0.52)"/>
      </g>
      <g transform="translate(-1194 107)">
        <circle id="Ellipse_2-86" data-name="Ellipse 2" cx="6" cy="6" r="6" transform="translate(1222 85)" fill="rgba(10,216,239,0.52)"/>
      </g>
      <g transform="translate(-1166 107)">
        <circle id="Ellipse_2-87" data-name="Ellipse 2" cx="6" cy="6" r="6" transform="translate(1222 85)" fill="rgba(10,216,239,0.52)"/>
      </g>
      <g transform="translate(-1138 107)">
        <circle id="Ellipse_2-88" data-name="Ellipse 2" cx="6" cy="6" r="6" transform="translate(1222 85)" fill="rgba(10,216,239,0.52)"/>
      </g>
      <g transform="translate(-1110 107)">
        <circle id="Ellipse_2-89" data-name="Ellipse 2" cx="6" cy="6" r="6" transform="translate(1222 85)" fill="rgba(10,216,239,0.52)"/>
      </g>
      <g transform="translate(-1082 107)">
        <circle id="Ellipse_2-90" data-name="Ellipse 2" cx="6" cy="6" r="6" transform="translate(1222 85)" fill="rgba(10,216,239,0.52)"/>
      </g>
      <g transform="translate(-1222 139)">
        <circle id="Ellipse_2-91" data-name="Ellipse 2" cx="6" cy="6" r="6" transform="translate(1222 85)" fill="rgba(10,216,239,0.52)"/>
      </g>
      <g transform="translate(-1194 139)">
        <circle id="Ellipse_2-92" data-name="Ellipse 2" cx="6" cy="6" r="6" transform="translate(1222 85)" fill="rgba(10,216,239,0.52)"/>
      </g>
      <g transform="translate(-1166 139)">
        <circle id="Ellipse_2-93" data-name="Ellipse 2" cx="6" cy="6" r="6" transform="translate(1222 85)" fill="rgba(10,216,239,0.52)"/>
      </g>
      <g transform="translate(-1138 139)">
        <circle id="Ellipse_2-94" data-name="Ellipse 2" cx="6" cy="6" r="6" transform="translate(1222 85)" fill="rgba(10,216,239,0.52)"/>
      </g>
      <g transform="translate(-1110 139)">
        <circle id="Ellipse_2-95" data-name="Ellipse 2" cx="6" cy="6" r="6" transform="translate(1222 85)" fill="rgba(10,216,239,0.52)"/>
      </g>
      <g transform="translate(-1082 139)">
        <circle id="Ellipse_2-96" data-name="Ellipse 2" cx="6" cy="6" r="6" transform="translate(1222 85)" fill="rgba(10,216,239,0.52)"/>
      </g>
    </g>
  </g>
</svg>
