<svg xmlns="http://www.w3.org/2000/svg" width="19.762" height="14.562" viewBox="0 0 19.762 14.562">
  <path id="Icon_material-view-comfy" data-name="Icon material-view-comfy" d="M4.5,11.661H8.661V7.5H4.5Zm0,5.2H8.661V12.7H4.5Zm5.2,0h4.161V12.7H9.7Zm5.2,0h4.161V12.7H14.9Zm-5.2-5.2h4.161V7.5H9.7ZM14.9,7.5v4.161h4.161V7.5Zm5.2,9.361h4.161V12.7H20.1Zm-15.6,5.2H8.661V17.9H4.5Zm5.2,0h4.161V17.9H9.7Zm5.2,0h4.161V17.9H14.9Zm5.2,0h4.161V17.9H20.1ZM20.1,7.5v4.161h4.161V7.5Z" transform="translate(-4.5 -7.5)"/>
</svg>
